%TF.GenerationSoftware,KiCad,Pcbnew,7.0.2*%
%TF.CreationDate,2023-06-23T11:00:41+02:00*%
%TF.ProjectId,DA_01_0V2_Smart_Battery_Charger,44415f30-315f-4305-9632-5f536d617274,rev?*%
%TF.SameCoordinates,Original*%
%TF.FileFunction,Soldermask,Top*%
%TF.FilePolarity,Negative*%
%FSLAX46Y46*%
G04 Gerber Fmt 4.6, Leading zero omitted, Abs format (unit mm)*
G04 Created by KiCad (PCBNEW 7.0.2) date 2023-06-23 11:00:41*
%MOMM*%
%LPD*%
G01*
G04 APERTURE LIST*
G04 Aperture macros list*
%AMRoundRect*
0 Rectangle with rounded corners*
0 $1 Rounding radius*
0 $2 $3 $4 $5 $6 $7 $8 $9 X,Y pos of 4 corners*
0 Add a 4 corners polygon primitive as box body*
4,1,4,$2,$3,$4,$5,$6,$7,$8,$9,$2,$3,0*
0 Add four circle primitives for the rounded corners*
1,1,$1+$1,$2,$3*
1,1,$1+$1,$4,$5*
1,1,$1+$1,$6,$7*
1,1,$1+$1,$8,$9*
0 Add four rect primitives between the rounded corners*
20,1,$1+$1,$2,$3,$4,$5,0*
20,1,$1+$1,$4,$5,$6,$7,0*
20,1,$1+$1,$6,$7,$8,$9,0*
20,1,$1+$1,$8,$9,$2,$3,0*%
G04 Aperture macros list end*
%ADD10RoundRect,0.140500X-0.677500X-0.102500X0.677500X-0.102500X0.677500X0.102500X-0.677500X0.102500X0*%
%ADD11RoundRect,0.183000X-0.550000X-0.145000X0.550000X-0.145000X0.550000X0.145000X-0.550000X0.145000X0*%
%ADD12RoundRect,0.185500X-0.512500X-0.147500X0.512500X-0.147500X0.512500X0.147500X-0.512500X0.147500X0*%
%ADD13C,0.991000*%
%ADD14C,0.863000*%
%ADD15RoundRect,0.080000X-0.943000X-0.258000X0.943000X-0.258000X0.943000X0.258000X-0.943000X0.258000X0*%
%ADD16RoundRect,0.038000X-1.206500X-1.651000X1.206500X-1.651000X1.206500X1.651000X-1.206500X1.651000X0*%
%ADD17RoundRect,0.188000X-0.525000X-0.150000X0.525000X-0.150000X0.525000X0.150000X-0.525000X0.150000X0*%
%ADD18RoundRect,0.238000X0.275000X-0.200000X0.275000X0.200000X-0.275000X0.200000X-0.275000X-0.200000X0*%
%ADD19RoundRect,0.238000X-0.200000X-0.275000X0.200000X-0.275000X0.200000X0.275000X-0.200000X0.275000X0*%
%ADD20RoundRect,0.263000X-0.225000X-0.250000X0.225000X-0.250000X0.225000X0.250000X-0.225000X0.250000X0*%
%ADD21RoundRect,0.256750X0.256250X-0.218750X0.256250X0.218750X-0.256250X0.218750X-0.256250X-0.218750X0*%
%ADD22RoundRect,0.263000X0.250000X-0.225000X0.250000X0.225000X-0.250000X0.225000X-0.250000X-0.225000X0*%
%ADD23RoundRect,0.238000X0.200000X0.275000X-0.200000X0.275000X-0.200000X-0.275000X0.200000X-0.275000X0*%
%ADD24RoundRect,0.263000X0.225000X0.250000X-0.225000X0.250000X-0.225000X-0.250000X0.225000X-0.250000X0*%
%ADD25RoundRect,0.263000X-0.250000X0.225000X-0.250000X-0.225000X0.250000X-0.225000X0.250000X0.225000X0*%
%ADD26RoundRect,0.140500X0.102500X-0.647500X0.102500X0.647500X-0.102500X0.647500X-0.102500X-0.647500X0*%
%ADD27RoundRect,0.038000X-0.654000X-0.654000X0.654000X-0.654000X0.654000X0.654000X-0.654000X0.654000X0*%
%ADD28C,1.384000*%
%ADD29RoundRect,0.332500X0.480500X-0.870500X0.480500X0.870500X-0.480500X0.870500X-0.480500X-0.870500X0*%
%ADD30C,0.650000*%
%ADD31RoundRect,0.188000X-0.420000X0.150000X-0.420000X-0.150000X0.420000X-0.150000X0.420000X0.150000X0*%
%ADD32RoundRect,0.113000X-0.495000X0.075000X-0.495000X-0.075000X0.495000X-0.075000X0.495000X0.075000X0*%
%ADD33O,2.176000X1.126000*%
%ADD34O,1.876000X0.976000*%
%ADD35RoundRect,0.238000X-0.275000X0.200000X-0.275000X-0.200000X0.275000X-0.200000X0.275000X0.200000X0*%
%ADD36RoundRect,0.038000X0.647700X0.748776X-0.647700X0.748776X-0.647700X-0.748776X0.647700X-0.748776X0*%
G04 APERTURE END LIST*
D10*
%TO.C,U2*%
X147120000Y-72075000D03*
X147120000Y-72725000D03*
X147120000Y-73375000D03*
X147120000Y-74025000D03*
X147120000Y-74675000D03*
X147120000Y-75325000D03*
X147120000Y-75975000D03*
X147120000Y-76625000D03*
X147120000Y-77275000D03*
X147120000Y-77925000D03*
X152880000Y-77925000D03*
X152880000Y-77275000D03*
X152880000Y-76625000D03*
X152880000Y-75975000D03*
X152880000Y-75325000D03*
X152880000Y-74675000D03*
X152880000Y-74025000D03*
X152880000Y-73375000D03*
X152880000Y-72725000D03*
X152880000Y-72075000D03*
%TD*%
D11*
%TO.C,U1*%
X113354654Y-78838517D03*
X113354654Y-79788517D03*
X113354654Y-80738517D03*
X115684654Y-80738517D03*
X115684654Y-78838517D03*
%TD*%
D12*
%TO.C,D2*%
X119583000Y-76850000D03*
X119583000Y-78750000D03*
X121613000Y-77800000D03*
%TD*%
D13*
%TO.C,J2*%
X135460000Y-72000000D03*
X140540000Y-70984000D03*
X140540000Y-73016000D03*
D14*
X136730000Y-72635000D03*
X136730000Y-71365000D03*
X138000000Y-72635000D03*
X138000000Y-71365000D03*
X139270000Y-72635000D03*
X139270000Y-71365000D03*
%TD*%
D15*
%TO.C,U6*%
X137557000Y-83595000D03*
X137557000Y-84865000D03*
X137557000Y-86135000D03*
X137557000Y-87405000D03*
X142507000Y-87405000D03*
X142507000Y-86135000D03*
X142507000Y-84865000D03*
X142507000Y-83595000D03*
D16*
X140032000Y-85500000D03*
%TD*%
D15*
%TO.C,U5*%
X117525000Y-83595000D03*
X117525000Y-84865000D03*
X117525000Y-86135000D03*
X117525000Y-87405000D03*
X122475000Y-87405000D03*
X122475000Y-86135000D03*
X122475000Y-84865000D03*
X122475000Y-83595000D03*
D16*
X120000000Y-85500000D03*
%TD*%
D15*
%TO.C,U8*%
X177525000Y-83595000D03*
X177525000Y-84865000D03*
X177525000Y-86135000D03*
X177525000Y-87405000D03*
X182475000Y-87405000D03*
X182475000Y-86135000D03*
X182475000Y-84865000D03*
X182475000Y-83595000D03*
D16*
X180000000Y-85500000D03*
%TD*%
D15*
%TO.C,U7*%
X157525000Y-83545000D03*
X157525000Y-84815000D03*
X157525000Y-86085000D03*
X157525000Y-87355000D03*
X162475000Y-87355000D03*
X162475000Y-86085000D03*
X162475000Y-84815000D03*
X162475000Y-83545000D03*
D16*
X160000000Y-85450000D03*
%TD*%
D17*
%TO.C,U9*%
X120825000Y-90050000D03*
X120825000Y-91000000D03*
X120825000Y-91950000D03*
X123195000Y-91950000D03*
X123195000Y-91000000D03*
X123195000Y-90050000D03*
%TD*%
%TO.C,U11*%
X160815000Y-90050000D03*
X160815000Y-91000000D03*
X160815000Y-91950000D03*
X163185000Y-91950000D03*
X163185000Y-91000000D03*
X163185000Y-90050000D03*
%TD*%
%TO.C,U12*%
X180815000Y-90050000D03*
X180815000Y-91000000D03*
X180815000Y-91950000D03*
X183185000Y-91950000D03*
X183185000Y-91000000D03*
X183185000Y-90050000D03*
%TD*%
%TO.C,Q3*%
X156565000Y-90050000D03*
X156565000Y-91000000D03*
X156565000Y-91950000D03*
X158935000Y-91950000D03*
X158935000Y-91000000D03*
X158935000Y-90050000D03*
%TD*%
%TO.C,Q4*%
X176565000Y-90050000D03*
X176565000Y-91000000D03*
X176565000Y-91950000D03*
X178935000Y-91950000D03*
X178935000Y-91000000D03*
X178935000Y-90050000D03*
%TD*%
%TO.C,Q2*%
X136565000Y-90050000D03*
X136565000Y-91000000D03*
X136565000Y-91950000D03*
X138935000Y-91950000D03*
X138935000Y-91000000D03*
X138935000Y-90050000D03*
%TD*%
%TO.C,Q1*%
X116575000Y-90050000D03*
X116575000Y-91000000D03*
X116575000Y-91950000D03*
X118945000Y-91950000D03*
X118945000Y-91000000D03*
X118945000Y-90050000D03*
%TD*%
%TO.C,U10*%
X140815000Y-90050000D03*
X140815000Y-91000000D03*
X140815000Y-91950000D03*
X143185000Y-91950000D03*
X143185000Y-91000000D03*
X143185000Y-90050000D03*
%TD*%
D18*
%TO.C,R27*%
X129200000Y-74125000D03*
X129200000Y-72475000D03*
%TD*%
D19*
%TO.C,R11*%
X125975000Y-86200000D03*
X127625000Y-86200000D03*
%TD*%
D18*
%TO.C,R19*%
X144800000Y-94050000D03*
X144800000Y-92400000D03*
%TD*%
D20*
%TO.C,C8*%
X101975000Y-83000000D03*
X103525000Y-83000000D03*
%TD*%
D19*
%TO.C,R1*%
X143675000Y-71850000D03*
X145325000Y-71850000D03*
%TD*%
D20*
%TO.C,C3*%
X154950000Y-74300000D03*
X156500000Y-74300000D03*
%TD*%
D21*
%TO.C,D5*%
X174000000Y-96787500D03*
X174000000Y-95212500D03*
%TD*%
D22*
%TO.C,C16*%
X175750000Y-87525000D03*
X175750000Y-85975000D03*
%TD*%
D23*
%TO.C,R24*%
X160625000Y-93300000D03*
X158975000Y-93300000D03*
%TD*%
D22*
%TO.C,C14*%
X135750000Y-87545000D03*
X135750000Y-85995000D03*
%TD*%
D24*
%TO.C,C6*%
X145275000Y-75300000D03*
X143725000Y-75300000D03*
%TD*%
D25*
%TO.C,C18*%
X144800000Y-87075000D03*
X144800000Y-88625000D03*
%TD*%
D23*
%TO.C,R5*%
X156550000Y-71700000D03*
X154900000Y-71700000D03*
%TD*%
D25*
%TO.C,C7*%
X117250000Y-78800000D03*
X117250000Y-80350000D03*
%TD*%
D20*
%TO.C,C1*%
X154950000Y-76650000D03*
X156500000Y-76650000D03*
%TD*%
D25*
%TO.C,C11*%
X127075000Y-76425000D03*
X127075000Y-77975000D03*
%TD*%
D26*
%TO.C,U4*%
X168550000Y-82385000D03*
X169200000Y-82385000D03*
X169850000Y-82385000D03*
X170500000Y-82385000D03*
X171150000Y-82385000D03*
X171800000Y-82385000D03*
X172450000Y-82385000D03*
X172450000Y-76615000D03*
X171800000Y-76615000D03*
X171150000Y-76615000D03*
X170500000Y-76615000D03*
X169850000Y-76615000D03*
X169200000Y-76615000D03*
X168550000Y-76615000D03*
%TD*%
D23*
%TO.C,R22*%
X120600000Y-93300000D03*
X118950000Y-93300000D03*
%TD*%
D20*
%TO.C,C4*%
X113350000Y-77525000D03*
X114900000Y-77525000D03*
%TD*%
D21*
%TO.C,D3*%
X114000000Y-96787500D03*
X114000000Y-95212500D03*
%TD*%
D25*
%TO.C,C23*%
X164700000Y-89745000D03*
X164700000Y-91295000D03*
%TD*%
%TO.C,C21*%
X124750000Y-89725000D03*
X124750000Y-91275000D03*
%TD*%
D18*
%TO.C,R26*%
X130350000Y-74125000D03*
X130350000Y-72475000D03*
%TD*%
%TO.C,R20*%
X164700000Y-94050000D03*
X164700000Y-92400000D03*
%TD*%
D21*
%TO.C,D4*%
X134000000Y-96787500D03*
X134000000Y-95212500D03*
%TD*%
D24*
%TO.C,C5*%
X145275000Y-76475000D03*
X143725000Y-76475000D03*
%TD*%
D23*
%TO.C,R3*%
X106275000Y-83000000D03*
X104625000Y-83000000D03*
%TD*%
D25*
%TO.C,C20*%
X184700000Y-87025000D03*
X184700000Y-88575000D03*
%TD*%
D27*
%TO.C,J6*%
X179000000Y-95500000D03*
D28*
X181000000Y-95500000D03*
%TD*%
D19*
%TO.C,R15*%
X165850000Y-86225000D03*
X167500000Y-86225000D03*
%TD*%
D25*
%TO.C,C12*%
X167125000Y-76600000D03*
X167125000Y-78150000D03*
%TD*%
D23*
%TO.C,R23*%
X140600000Y-93300000D03*
X138950000Y-93300000D03*
%TD*%
D21*
%TO.C,D6*%
X154000000Y-96787500D03*
X154000000Y-95212500D03*
%TD*%
D29*
%TO.C,D1*%
X110000000Y-78885000D03*
X110000000Y-74615000D03*
%TD*%
D25*
%TO.C,C19*%
X164700000Y-87025000D03*
X164700000Y-88575000D03*
%TD*%
D19*
%TO.C,R16*%
X185850000Y-87425000D03*
X187500000Y-87425000D03*
%TD*%
D30*
%TO.C,J1*%
X105930000Y-74110000D03*
X105930000Y-79890000D03*
D31*
X107000000Y-73800000D03*
X107000000Y-74600000D03*
D32*
X107000000Y-75750000D03*
X107000000Y-76750000D03*
X107000000Y-77250000D03*
X107000000Y-78250000D03*
X107000000Y-80200000D03*
X107000000Y-79400000D03*
X107000000Y-78750000D03*
X107000000Y-77750000D03*
X107000000Y-76250000D03*
X107000000Y-75250000D03*
D33*
X106430000Y-72680000D03*
X106430000Y-81320000D03*
D34*
X102250000Y-72680000D03*
X102250000Y-81320000D03*
%TD*%
D23*
%TO.C,R25*%
X180625000Y-93300000D03*
X178975000Y-93300000D03*
%TD*%
D19*
%TO.C,R17*%
X185850000Y-86300000D03*
X187500000Y-86300000D03*
%TD*%
D18*
%TO.C,R21*%
X184700000Y-94050000D03*
X184700000Y-92400000D03*
%TD*%
D25*
%TO.C,C17*%
X124750000Y-87075000D03*
X124750000Y-88625000D03*
%TD*%
D35*
%TO.C,R9*%
X154000000Y-92450000D03*
X154000000Y-94100000D03*
%TD*%
D19*
%TO.C,R10*%
X125976453Y-87393054D03*
X127626453Y-87393054D03*
%TD*%
D25*
%TO.C,C22*%
X144800000Y-89745000D03*
X144800000Y-91295000D03*
%TD*%
D35*
%TO.C,R6*%
X114000000Y-92375000D03*
X114000000Y-94025000D03*
%TD*%
D27*
%TO.C,J4*%
X139000000Y-95500000D03*
D28*
X141000000Y-95500000D03*
%TD*%
D27*
%TO.C,J3*%
X119000000Y-95500000D03*
D28*
X121000000Y-95500000D03*
%TD*%
D20*
%TO.C,C10*%
X143725000Y-74125000D03*
X145275000Y-74125000D03*
%TD*%
D23*
%TO.C,R4*%
X156550000Y-72825000D03*
X154900000Y-72825000D03*
%TD*%
D26*
%TO.C,U3*%
X128550000Y-82385000D03*
X129200000Y-82385000D03*
X129850000Y-82385000D03*
X130500000Y-82385000D03*
X131150000Y-82385000D03*
X131800000Y-82385000D03*
X132450000Y-82385000D03*
X132450000Y-76615000D03*
X131800000Y-76615000D03*
X131150000Y-76615000D03*
X130500000Y-76615000D03*
X129850000Y-76615000D03*
X129200000Y-76615000D03*
X128550000Y-76615000D03*
%TD*%
D18*
%TO.C,R18*%
X124750000Y-94050000D03*
X124750000Y-92400000D03*
%TD*%
D25*
%TO.C,C24*%
X184700000Y-89745000D03*
X184700000Y-91295000D03*
%TD*%
D19*
%TO.C,R13*%
X145975000Y-86275000D03*
X147625000Y-86275000D03*
%TD*%
D22*
%TO.C,C15*%
X155750000Y-87525000D03*
X155750000Y-85975000D03*
%TD*%
D19*
%TO.C,R2*%
X143675000Y-72975000D03*
X145325000Y-72975000D03*
%TD*%
D35*
%TO.C,R8*%
X174000000Y-92450000D03*
X174000000Y-94100000D03*
%TD*%
D19*
%TO.C,R14*%
X165850000Y-87350000D03*
X167500000Y-87350000D03*
%TD*%
D35*
%TO.C,R7*%
X134000000Y-92425000D03*
X134000000Y-94075000D03*
%TD*%
D27*
%TO.C,J5*%
X159000000Y-95500000D03*
D28*
X161000000Y-95500000D03*
%TD*%
D20*
%TO.C,C2*%
X154950000Y-75475000D03*
X156500000Y-75475000D03*
%TD*%
D19*
%TO.C,R12*%
X145975000Y-87400000D03*
X147625000Y-87400000D03*
%TD*%
D36*
%TO.C,C9*%
X110000000Y-84710848D03*
X110000000Y-82500000D03*
%TD*%
D22*
%TO.C,C13*%
X115675000Y-87550000D03*
X115675000Y-86000000D03*
%TD*%
M02*
