%TF.GenerationSoftware,KiCad,Pcbnew,7.0.2*%
%TF.CreationDate,2023-06-23T11:00:41+02:00*%
%TF.ProjectId,DA_01_0V2_Smart_Battery_Charger,44415f30-315f-4305-9632-5f536d617274,rev?*%
%TF.SameCoordinates,Original*%
%TF.FileFunction,Copper,L2,Bot*%
%TF.FilePolarity,Positive*%
%FSLAX46Y46*%
G04 Gerber Fmt 4.6, Leading zero omitted, Abs format (unit mm)*
G04 Created by KiCad (PCBNEW 7.0.2) date 2023-06-23 11:00:41*
%MOMM*%
%LPD*%
G01*
G04 APERTURE LIST*
%TA.AperFunction,ComponentPad*%
%ADD10R,1.308000X1.308000*%
%TD*%
%TA.AperFunction,ComponentPad*%
%ADD11C,1.308000*%
%TD*%
%TA.AperFunction,ComponentPad*%
%ADD12O,2.100000X1.050000*%
%TD*%
%TA.AperFunction,ComponentPad*%
%ADD13O,1.800000X0.900000*%
%TD*%
%TA.AperFunction,ViaPad*%
%ADD14C,0.600000*%
%TD*%
%TA.AperFunction,Conductor*%
%ADD15C,0.400000*%
%TD*%
%TA.AperFunction,Conductor*%
%ADD16C,0.300000*%
%TD*%
%TA.AperFunction,Conductor*%
%ADD17C,0.200000*%
%TD*%
%TA.AperFunction,Conductor*%
%ADD18C,0.800000*%
%TD*%
G04 APERTURE END LIST*
D10*
%TO.P,J6,1,1*%
%TO.N,Net-(Q4-S2)*%
X179000000Y-95500000D03*
D11*
%TO.P,J6,2,2*%
%TO.N,+BAT_4*%
X181000000Y-95500000D03*
%TD*%
D12*
%TO.P,J1,SH1,SHIELD*%
%TO.N,Net-(C8-Pad1)*%
X106430000Y-72680000D03*
%TO.P,J1,SH2,SHIELD*%
X106430000Y-81320000D03*
D13*
%TO.P,J1,SH3,SHIELD*%
X102250000Y-72680000D03*
%TO.P,J1,SH4,SHIELD*%
X102250000Y-81320000D03*
%TD*%
D10*
%TO.P,J4,1,1*%
%TO.N,Net-(Q2-S2)*%
X139000000Y-95500000D03*
D11*
%TO.P,J4,2,2*%
%TO.N,+BAT_2*%
X141000000Y-95500000D03*
%TD*%
D10*
%TO.P,J3,1,1*%
%TO.N,Net-(Q1-S2)*%
X119000000Y-95500000D03*
D11*
%TO.P,J3,2,2*%
%TO.N,+BAT_1*%
X121000000Y-95500000D03*
%TD*%
D10*
%TO.P,J5,1,1*%
%TO.N,Net-(Q3-S2)*%
X159000000Y-95500000D03*
D11*
%TO.P,J5,2,2*%
%TO.N,+BAT_3*%
X161000000Y-95500000D03*
%TD*%
D14*
%TO.N,+3.3V*%
X130350000Y-69949000D03*
X122875000Y-77800000D03*
X168550000Y-75000000D03*
X154075000Y-74675000D03*
X143975000Y-70788000D03*
X157550000Y-72800000D03*
X148375000Y-74675000D03*
%TO.N,GND*%
X182500000Y-67500000D03*
X107500000Y-87500000D03*
X152500000Y-92500000D03*
X107500000Y-67500000D03*
X187500000Y-77500000D03*
X177500000Y-77500000D03*
X112500000Y-82500000D03*
X112500000Y-72500000D03*
X157500000Y-82500000D03*
X167500000Y-97500000D03*
X161650000Y-80475000D03*
X182500000Y-72500000D03*
X162500000Y-77500000D03*
X117500000Y-82500000D03*
X172500000Y-72500000D03*
X147500000Y-67500000D03*
X117500000Y-67500000D03*
X112500000Y-97500000D03*
X187500000Y-82500000D03*
X152500000Y-67500000D03*
X177500000Y-72500000D03*
X142500000Y-67500000D03*
X122500000Y-67500000D03*
X152500000Y-82500000D03*
X137500000Y-82500000D03*
X122500000Y-97500000D03*
X107500000Y-92500000D03*
X147500000Y-92500000D03*
X124950000Y-85525000D03*
X107500000Y-82500000D03*
X147675000Y-82225000D03*
X127500000Y-67500000D03*
X162500000Y-97500000D03*
X142500000Y-97500000D03*
X167500000Y-67500000D03*
X132500000Y-97500000D03*
X152500000Y-97500000D03*
X127500000Y-92500000D03*
X187500000Y-72500000D03*
X102500000Y-87500000D03*
X112500000Y-67500000D03*
X132500000Y-92500000D03*
X134200000Y-75325000D03*
X102500000Y-92500000D03*
X172500000Y-97500000D03*
X147725000Y-84400000D03*
X167500000Y-92500000D03*
X125650000Y-77725000D03*
X142500000Y-77500000D03*
X137500000Y-77500000D03*
X134200000Y-72200000D03*
X177500000Y-97500000D03*
X187500000Y-92500000D03*
X177500000Y-67500000D03*
X112500000Y-92500000D03*
X117500000Y-77500000D03*
X147500000Y-97500000D03*
X117500000Y-97500000D03*
X137500000Y-97500000D03*
X127500000Y-97500000D03*
X182500000Y-97500000D03*
X162500000Y-72500000D03*
X182500000Y-77500000D03*
X127500000Y-72500000D03*
X137500000Y-67500000D03*
X122500000Y-72500000D03*
X117500000Y-72500000D03*
X107500000Y-97500000D03*
X167500000Y-72500000D03*
X172500000Y-67500000D03*
X162500000Y-67500000D03*
X142500000Y-82500000D03*
X172500000Y-92500000D03*
X158775000Y-76125000D03*
X157500000Y-67500000D03*
X132500000Y-67500000D03*
X151175000Y-76275000D03*
X157500000Y-97500000D03*
%TO.N,VBUS*%
X157525000Y-88075000D03*
X117525000Y-88150000D03*
X177525000Y-88125000D03*
X137550000Y-88125000D03*
X110000000Y-80750000D03*
%TO.N,/NRST*%
X139250000Y-73975000D03*
X145925000Y-74025000D03*
%TO.N,/BAT_1_CHRG*%
X128800000Y-89375000D03*
X115450000Y-96775000D03*
%TO.N,/BAT_2_CHRG*%
X148925000Y-86775000D03*
X135375000Y-96800000D03*
X145020148Y-84845148D03*
X148925000Y-89900000D03*
%TO.N,/BAT_4_CHRG*%
X175575000Y-96800000D03*
X184475000Y-84850000D03*
%TO.N,/BAT_3_CHRG*%
X167500000Y-89350000D03*
X167487000Y-83162000D03*
X164525000Y-83175000D03*
X155525000Y-96800000D03*
%TO.N,/SCL_TX*%
X169200000Y-78650000D03*
X148848500Y-72000000D03*
X129200000Y-75175000D03*
X138000000Y-74100000D03*
X150775000Y-74050000D03*
%TO.N,/SDA_RX*%
X169850000Y-78125000D03*
X148750000Y-71125000D03*
X134375000Y-70650000D03*
X151475000Y-73375000D03*
%TO.N,/BAT_1_STDBY*%
X124075000Y-86150000D03*
X148425000Y-72750000D03*
%TO.N,/BAT_2_STDBY*%
X150000000Y-82500000D03*
X150000000Y-75200000D03*
%TO.N,/BAT_1_V*%
X148925000Y-75300000D03*
X127625000Y-85300000D03*
%TO.N,/BAT_2_V*%
X147600000Y-85275000D03*
X148464597Y-75974454D03*
%TO.N,/BAT_3_V*%
X149300000Y-76623238D03*
X166910000Y-83940000D03*
%TO.N,/BAT_4_V*%
X186700000Y-85650000D03*
X148450000Y-77275000D03*
%TO.N,/BAT_4_CE*%
X182450000Y-82550000D03*
X154073500Y-76600000D03*
%TO.N,/BAT_1_PROG*%
X115900000Y-84875000D03*
X126850000Y-82400000D03*
%TO.N,/BAT_3_PROG*%
X156000000Y-84825000D03*
X168975000Y-84850000D03*
%TD*%
D15*
%TO.N,+3.3V*%
X130350000Y-69949000D02*
X143950000Y-69949000D01*
X128965214Y-69949000D02*
X130350000Y-69949000D01*
D16*
X157550000Y-72800000D02*
X157550000Y-70374000D01*
X148375000Y-74675000D02*
X149132107Y-73917893D01*
D15*
X122875000Y-77800000D02*
X122875000Y-76039214D01*
D17*
X143975000Y-69974000D02*
X143950000Y-69949000D01*
D16*
X149425000Y-69974000D02*
X149450000Y-69949000D01*
D17*
X143975000Y-70788000D02*
X143975000Y-69974000D01*
D15*
X157125000Y-69949000D02*
X163084786Y-69949000D01*
X149450000Y-69949000D02*
X154125000Y-69949000D01*
D16*
X154075000Y-69949000D02*
X154125000Y-69949000D01*
D15*
X143950000Y-69949000D02*
X149450000Y-69949000D01*
D16*
X154075000Y-74675000D02*
X154075000Y-69949000D01*
X149425000Y-73210786D02*
X149425000Y-69974000D01*
D15*
X154125000Y-69949000D02*
X157125000Y-69949000D01*
X163791893Y-70241893D02*
X168550000Y-75000000D01*
D16*
X157550000Y-70374000D02*
X157125000Y-69949000D01*
D15*
X123167893Y-75332107D02*
X128258107Y-70241893D01*
X123167886Y-75332100D02*
G75*
G03*
X122875000Y-76039214I707114J-707100D01*
G01*
D16*
X149132114Y-73917900D02*
G75*
G03*
X149425000Y-73210786I-707114J707100D01*
G01*
D15*
X128965214Y-69949010D02*
G75*
G03*
X128258107Y-70241893I-14J-999990D01*
G01*
X163791920Y-70241866D02*
G75*
G03*
X163084786Y-69949000I-707120J-707234D01*
G01*
D18*
%TO.N,VBUS*%
X177525000Y-88125000D02*
X117550000Y-88125000D01*
X110000000Y-80750000D02*
X110000000Y-84921572D01*
X113213910Y-88135482D02*
X117510482Y-88135482D01*
X110292893Y-85628679D02*
X112506803Y-87842589D01*
X112506802Y-87842590D02*
G75*
G03*
X113213910Y-88135482I707098J707090D01*
G01*
X110000020Y-84921572D02*
G75*
G03*
X110292893Y-85628679I999980J-28D01*
G01*
D17*
%TO.N,/NRST*%
X145925000Y-74025000D02*
X145875000Y-73975000D01*
X145875000Y-73975000D02*
X139250000Y-73975000D01*
D16*
%TO.N,/BAT_1_CHRG*%
X117757107Y-89667893D02*
X115742893Y-91682107D01*
X115450000Y-92389214D02*
X115450000Y-96775000D01*
X128800000Y-89375000D02*
X118464214Y-89375000D01*
X118464214Y-89375027D02*
G75*
G03*
X117757107Y-89667893I86J-1000273D01*
G01*
X115742886Y-91682100D02*
G75*
G03*
X115450000Y-92389214I707114J-707100D01*
G01*
%TO.N,/BAT_2_CHRG*%
X145682107Y-86482107D02*
X145313041Y-86113041D01*
X148925000Y-86775000D02*
X148923127Y-86773127D01*
X138207107Y-90192893D02*
X135642893Y-92757107D01*
X135350000Y-96775000D02*
X135375000Y-96800000D01*
X148923127Y-86773127D02*
X146290907Y-86773127D01*
X145020148Y-85405934D02*
X145020148Y-84845148D01*
X135350000Y-93464214D02*
X135350000Y-96775000D01*
X148925000Y-89900000D02*
X138914214Y-89900000D01*
X138914214Y-89900039D02*
G75*
G03*
X138207107Y-90192893I-14J-1000061D01*
G01*
X145020110Y-85405934D02*
G75*
G03*
X145313041Y-86113041I999990J34D01*
G01*
X145682106Y-86482108D02*
G75*
G03*
X146290907Y-86773127I722294J728708D01*
G01*
X135642886Y-92757100D02*
G75*
G03*
X135350000Y-93464214I707114J-707100D01*
G01*
%TO.N,/BAT_4_CHRG*%
X187407107Y-85307107D02*
X187242893Y-85142893D01*
X178614214Y-89125000D02*
X186385786Y-89125000D01*
X187092893Y-88832107D02*
X187407107Y-88517893D01*
X175575000Y-96800000D02*
X175575000Y-92164214D01*
X175867893Y-91457107D02*
X177907107Y-89417893D01*
X186535786Y-84850000D02*
X184475000Y-84850000D01*
X187700000Y-87810786D02*
X187700000Y-86014214D01*
X178614214Y-89125010D02*
G75*
G03*
X177907107Y-89417893I-14J-999990D01*
G01*
X187407114Y-88517900D02*
G75*
G03*
X187700000Y-87810786I-707114J707100D01*
G01*
X187242900Y-85142886D02*
G75*
G03*
X186535786Y-84850000I-707100J-707114D01*
G01*
X186385786Y-89124990D02*
G75*
G03*
X187092893Y-88832107I14J999990D01*
G01*
X175867886Y-91457100D02*
G75*
G03*
X175575000Y-92164214I707114J-707100D01*
G01*
X187699990Y-86014214D02*
G75*
G03*
X187407107Y-85307107I-999990J14D01*
G01*
%TO.N,/BAT_3_CHRG*%
X155525000Y-92714214D02*
X155525000Y-96800000D01*
X167500000Y-89350000D02*
X158889214Y-89350000D01*
X167487000Y-83162000D02*
X164538000Y-83162000D01*
X158182107Y-89642893D02*
X155817893Y-92007107D01*
X164538000Y-83162000D02*
X164525000Y-83175000D01*
X155817886Y-92007100D02*
G75*
G03*
X155525000Y-92714214I707114J-707100D01*
G01*
X158889214Y-89350010D02*
G75*
G03*
X158182107Y-89642893I-14J-999990D01*
G01*
D17*
%TO.N,/SCL_TX*%
X129200000Y-75175000D02*
X129982107Y-74392893D01*
X138000000Y-73414214D02*
X138000000Y-74100000D01*
X169200000Y-78650000D02*
X159839214Y-78650000D01*
X148925000Y-72100000D02*
X148900000Y-72125000D01*
X148848500Y-72176500D02*
X148848500Y-72125000D01*
X148825000Y-72200000D02*
X148825000Y-72100000D01*
X148900000Y-72125000D02*
X148848500Y-72125000D01*
X130689214Y-74100000D02*
X138000000Y-74100000D01*
X148825000Y-72200000D02*
X148848500Y-72176500D01*
X148748500Y-72100000D02*
X139314214Y-72100000D01*
X148825000Y-72100000D02*
X148925000Y-72100000D01*
X159132107Y-78357107D02*
X157140893Y-76365893D01*
X138607107Y-72392893D02*
X138292893Y-72707107D01*
X152505107Y-75780107D02*
X150775000Y-74050000D01*
X156433786Y-76073000D02*
X153212214Y-76073000D01*
X148848500Y-72000000D02*
X148748500Y-72100000D01*
X138292886Y-72707100D02*
G75*
G03*
X138000000Y-73414214I707114J-707100D01*
G01*
X130689214Y-74100010D02*
G75*
G03*
X129982107Y-74392893I-14J-999990D01*
G01*
X157140900Y-76365886D02*
G75*
G03*
X156433786Y-76073000I-707100J-707114D01*
G01*
X152505100Y-75780114D02*
G75*
G03*
X153212214Y-76073000I707100J707114D01*
G01*
X139314214Y-72100027D02*
G75*
G03*
X138607107Y-72392893I86J-1000273D01*
G01*
X159132100Y-78357114D02*
G75*
G03*
X159839214Y-78650000I707100J707114D01*
G01*
%TO.N,/SDA_RX*%
X134375000Y-70650000D02*
X136860786Y-70650000D01*
X138812214Y-71773000D02*
X147687786Y-71773000D01*
X153207107Y-75107107D02*
X151475000Y-73375000D01*
X137567893Y-70942893D02*
X138105107Y-71480107D01*
X156685786Y-75400000D02*
X153914214Y-75400000D01*
X169825000Y-78100000D02*
X160214214Y-78100000D01*
X159507107Y-77807107D02*
X157392893Y-75692893D01*
X148394893Y-71480107D02*
X148750000Y-71125000D01*
X169850000Y-78125000D02*
X169825000Y-78100000D01*
X138105080Y-71480134D02*
G75*
G03*
X138812214Y-71773000I707120J707234D01*
G01*
X147687786Y-71772990D02*
G75*
G03*
X148394893Y-71480107I14J999990D01*
G01*
X137567900Y-70942886D02*
G75*
G03*
X136860786Y-70650000I-707100J-707114D01*
G01*
X153207100Y-75107114D02*
G75*
G03*
X153914214Y-75400000I707100J707114D01*
G01*
X159507100Y-77807114D02*
G75*
G03*
X160214214Y-78100000I707100J707114D01*
G01*
X157392900Y-75692886D02*
G75*
G03*
X156685786Y-75400000I-707100J-707114D01*
G01*
%TO.N,/BAT_1_STDBY*%
X146060786Y-74700000D02*
X137289214Y-74700000D01*
X125010786Y-86150000D02*
X124075000Y-86150000D01*
X148425000Y-72750000D02*
X146767893Y-74407107D01*
X136582107Y-74992893D02*
X125717893Y-85857107D01*
X137289214Y-74700010D02*
G75*
G03*
X136582107Y-74992893I-14J-999990D01*
G01*
X125010786Y-86149990D02*
G75*
G03*
X125717893Y-85857107I14J999990D01*
G01*
X146060786Y-74699990D02*
G75*
G03*
X146767893Y-74407107I14J999990D01*
G01*
%TO.N,/BAT_2_STDBY*%
X150000000Y-75200000D02*
X150000000Y-82500000D01*
D16*
%TO.N,/BAT_1_V*%
X127625000Y-85300000D02*
X127625000Y-84925000D01*
X127625000Y-84925000D02*
X136957107Y-75592893D01*
X137664214Y-75300000D02*
X148925000Y-75300000D01*
X137664214Y-75300010D02*
G75*
G03*
X136957107Y-75592893I-14J-999990D01*
G01*
%TO.N,/BAT_2_V*%
X146850000Y-84525000D02*
X146850000Y-78014214D01*
X147142893Y-77307107D02*
X148464597Y-75985403D01*
X148464597Y-75985403D02*
X148464597Y-75974454D01*
X147600000Y-85275000D02*
X146850000Y-84525000D01*
X147142886Y-77307100D02*
G75*
G03*
X146850000Y-78014214I707114J-707100D01*
G01*
%TO.N,/BAT_3_V*%
X166900000Y-83950000D02*
X150514214Y-83950000D01*
X149300000Y-82735786D02*
X149300000Y-76623238D01*
X166910000Y-83940000D02*
X166900000Y-83950000D01*
X149807107Y-83657107D02*
X149592893Y-83442893D01*
X149300010Y-82735786D02*
G75*
G03*
X149592893Y-83442893I999990J-14D01*
G01*
X149807100Y-83657114D02*
G75*
G03*
X150514214Y-83950000I707100J707114D01*
G01*
%TO.N,/BAT_4_V*%
X150464214Y-85650000D02*
X186700000Y-85650000D01*
X148450000Y-77275000D02*
X148450000Y-83635786D01*
X148742893Y-84342893D02*
X149757107Y-85357107D01*
X149757100Y-85357114D02*
G75*
G03*
X150464214Y-85650000I707100J707114D01*
G01*
X148450010Y-83635786D02*
G75*
G03*
X148742893Y-84342893I999990J-14D01*
G01*
%TO.N,/BAT_4_CE*%
X162264214Y-82550000D02*
X182450000Y-82550000D01*
X154075363Y-76601863D02*
X155584094Y-76601863D01*
X156192893Y-76892893D02*
X161557107Y-82257107D01*
X154073500Y-76600000D02*
X154075363Y-76601863D01*
X156192901Y-76892885D02*
G75*
G03*
X155584094Y-76601863I-722301J-728715D01*
G01*
X161557100Y-82257114D02*
G75*
G03*
X162264214Y-82550000I707100J707114D01*
G01*
%TO.N,/BAT_1_PROG*%
X126850000Y-82400000D02*
X122664214Y-82400000D01*
X121957107Y-82692893D02*
X120067893Y-84582107D01*
X119360786Y-84875000D02*
X115900000Y-84875000D01*
X122664214Y-82400010D02*
G75*
G03*
X121957107Y-82692893I-14J-999990D01*
G01*
X119360786Y-84874990D02*
G75*
G03*
X120067893Y-84582107I14J999990D01*
G01*
%TO.N,/BAT_3_PROG*%
X168975000Y-84850000D02*
X168950000Y-84825000D01*
X168950000Y-84825000D02*
X156000000Y-84825000D01*
%TO.N,Net-(C8-Pad1)*%
X106430000Y-81320000D02*
X102250000Y-81320000D01*
D15*
X102250000Y-72680000D02*
X102250000Y-81320000D01*
X102250000Y-72680000D02*
X106430000Y-72680000D01*
%TD*%
%TA.AperFunction,Conductor*%
%TO.N,GND*%
G36*
X153617539Y-70419185D02*
G01*
X153663294Y-70471989D01*
X153674500Y-70523500D01*
X153674500Y-74041372D01*
X153671275Y-74069466D01*
X153669268Y-74078090D01*
X153666329Y-74169285D01*
X153665036Y-74183587D01*
X153659739Y-74219092D01*
X153655153Y-74238722D01*
X153646532Y-74265557D01*
X153642229Y-74276987D01*
X153613546Y-74343093D01*
X153568126Y-74447717D01*
X153566727Y-74451001D01*
X153564162Y-74463702D01*
X153557180Y-74486601D01*
X153538670Y-74531291D01*
X153523594Y-74645797D01*
X153495327Y-74709694D01*
X153437002Y-74748164D01*
X153367137Y-74748995D01*
X153312974Y-74717292D01*
X152177171Y-73581489D01*
X152157159Y-73555275D01*
X152155752Y-73552810D01*
X152105735Y-73495203D01*
X152090895Y-73473989D01*
X152085564Y-73464362D01*
X152075504Y-73440688D01*
X152074884Y-73438670D01*
X152065807Y-73409104D01*
X152064222Y-73403470D01*
X152042876Y-73320110D01*
X152042534Y-73318862D01*
X152039948Y-73309614D01*
X152039563Y-73308312D01*
X152039655Y-73308644D01*
X152039244Y-73307361D01*
X152036170Y-73297960D01*
X152035727Y-73296675D01*
X151997344Y-73187264D01*
X151994933Y-73180672D01*
X151994573Y-73179733D01*
X151992400Y-73174248D01*
X151986544Y-73165424D01*
X151975304Y-73144315D01*
X151955861Y-73097375D01*
X151867621Y-72982379D01*
X151752625Y-72894139D01*
X151752624Y-72894138D01*
X151752622Y-72894137D01*
X151618709Y-72838670D01*
X151475000Y-72819749D01*
X151331290Y-72838670D01*
X151197377Y-72894137D01*
X151082379Y-72982379D01*
X150994137Y-73097377D01*
X150938670Y-73231290D01*
X150917972Y-73388503D01*
X150889705Y-73452399D01*
X150831380Y-73490870D01*
X150778850Y-73495256D01*
X150775002Y-73494749D01*
X150631290Y-73513670D01*
X150497377Y-73569137D01*
X150382379Y-73657379D01*
X150294137Y-73772377D01*
X150238670Y-73906290D01*
X150219749Y-74050000D01*
X150238670Y-74193709D01*
X150294137Y-74327622D01*
X150294138Y-74327624D01*
X150294139Y-74327625D01*
X150382379Y-74442621D01*
X150497375Y-74530861D01*
X150555126Y-74554782D01*
X150570737Y-74562579D01*
X150587264Y-74572344D01*
X150697960Y-74611170D01*
X150699263Y-74611603D01*
X150708644Y-74614655D01*
X150709958Y-74615060D01*
X150709614Y-74614948D01*
X150710852Y-74615300D01*
X150720111Y-74617876D01*
X150721417Y-74618218D01*
X150803470Y-74639222D01*
X150809105Y-74640808D01*
X150840691Y-74650506D01*
X150864370Y-74660568D01*
X150873980Y-74665890D01*
X150895202Y-74680734D01*
X150952811Y-74730753D01*
X150957356Y-74733454D01*
X150981687Y-74752369D01*
X152207216Y-75977897D01*
X152207227Y-75977911D01*
X152220940Y-75991623D01*
X152220954Y-75991649D01*
X152257262Y-76027957D01*
X152319853Y-76090548D01*
X152460305Y-76198318D01*
X152613621Y-76286833D01*
X152777180Y-76354579D01*
X152948182Y-76400396D01*
X153123702Y-76423501D01*
X153212219Y-76423500D01*
X153400092Y-76423500D01*
X153467131Y-76443185D01*
X153512886Y-76495989D01*
X153523031Y-76563686D01*
X153518249Y-76600000D01*
X153537170Y-76743709D01*
X153592637Y-76877622D01*
X153592638Y-76877624D01*
X153592639Y-76877625D01*
X153680879Y-76992621D01*
X153795875Y-77080861D01*
X153929791Y-77136330D01*
X154073500Y-77155250D01*
X154217209Y-77136330D01*
X154264203Y-77116863D01*
X154285586Y-77110197D01*
X154300594Y-77106971D01*
X154360968Y-77080861D01*
X154404135Y-77062193D01*
X154469878Y-77034026D01*
X154481549Y-77029705D01*
X154508289Y-77021305D01*
X154527728Y-77016878D01*
X154564129Y-77011624D01*
X154577986Y-77010415D01*
X154669659Y-77007591D01*
X154679770Y-77005335D01*
X154706761Y-77002363D01*
X155540157Y-77002363D01*
X155564127Y-77004702D01*
X155632293Y-77018137D01*
X155652220Y-77023833D01*
X155730643Y-77053543D01*
X155749357Y-77062488D01*
X155821732Y-77104862D01*
X155838689Y-77116802D01*
X155887574Y-77157744D01*
X155906631Y-77173705D01*
X155914694Y-77181087D01*
X161224510Y-82490902D01*
X161224514Y-82490907D01*
X161233194Y-82499586D01*
X161233196Y-82499589D01*
X161237586Y-82503978D01*
X161237603Y-82504010D01*
X161273907Y-82540312D01*
X161273907Y-82540313D01*
X161338816Y-82605220D01*
X161484467Y-82716980D01*
X161643460Y-82808773D01*
X161813074Y-82879027D01*
X161990408Y-82926541D01*
X162172426Y-82950501D01*
X162264220Y-82950500D01*
X163857912Y-82950500D01*
X163924951Y-82970185D01*
X163970706Y-83022989D01*
X163980850Y-83090683D01*
X163969750Y-83175000D01*
X163986958Y-83305709D01*
X163988670Y-83318708D01*
X164013249Y-83378049D01*
X164020716Y-83447518D01*
X163989441Y-83509997D01*
X163929351Y-83545649D01*
X163898687Y-83549500D01*
X150520299Y-83549500D01*
X150508146Y-83548903D01*
X150496166Y-83547723D01*
X150409402Y-83539178D01*
X150385563Y-83534436D01*
X150296477Y-83507414D01*
X150274019Y-83498112D01*
X150191912Y-83454227D01*
X150171701Y-83440723D01*
X150116271Y-83395233D01*
X150095071Y-83377835D01*
X150086064Y-83369672D01*
X149976006Y-83259613D01*
X149942523Y-83198292D01*
X149947507Y-83128600D01*
X149989379Y-83072667D01*
X150047500Y-83048996D01*
X150143709Y-83036330D01*
X150277625Y-82980861D01*
X150392621Y-82892621D01*
X150480861Y-82777625D01*
X150536330Y-82643709D01*
X150555250Y-82500000D01*
X150555195Y-82499586D01*
X150552381Y-82478210D01*
X150536330Y-82356291D01*
X150530538Y-82342309D01*
X150512413Y-82298549D01*
X150506881Y-82281979D01*
X150502102Y-82263395D01*
X150451285Y-82157672D01*
X150450676Y-82156455D01*
X150446264Y-82147783D01*
X150445637Y-82146596D01*
X150445786Y-82146890D01*
X150445145Y-82145738D01*
X150440363Y-82137264D01*
X150439689Y-82136111D01*
X150396498Y-82063202D01*
X150393649Y-82058123D01*
X150378168Y-82028922D01*
X150368547Y-82005081D01*
X150365509Y-81994504D01*
X150360998Y-81968996D01*
X150355634Y-81892908D01*
X150354328Y-81887774D01*
X150350500Y-81857200D01*
X150350500Y-75842516D01*
X150354885Y-75809832D01*
X150355634Y-75807092D01*
X150360999Y-75730993D01*
X150365508Y-75705496D01*
X150368543Y-75694927D01*
X150378169Y-75671074D01*
X150393670Y-75641835D01*
X150396472Y-75636837D01*
X150440364Y-75562730D01*
X150440404Y-75562658D01*
X150441040Y-75561546D01*
X150445786Y-75553107D01*
X150446428Y-75551924D01*
X150446264Y-75552214D01*
X150446869Y-75551038D01*
X150451284Y-75542326D01*
X150451887Y-75541090D01*
X150502101Y-75436605D01*
X150504895Y-75430599D01*
X150505319Y-75429656D01*
X150507821Y-75423878D01*
X150507826Y-75423848D01*
X150507828Y-75423846D01*
X150509914Y-75413518D01*
X150516894Y-75390628D01*
X150536330Y-75343709D01*
X150555250Y-75200000D01*
X150536330Y-75056291D01*
X150480861Y-74922375D01*
X150392621Y-74807379D01*
X150277625Y-74719139D01*
X150277624Y-74719138D01*
X150277622Y-74719137D01*
X150143709Y-74663670D01*
X150000000Y-74644749D01*
X149856290Y-74663670D01*
X149722377Y-74719137D01*
X149607376Y-74807381D01*
X149522508Y-74917983D01*
X149466080Y-74959185D01*
X149396334Y-74963340D01*
X149335414Y-74929127D01*
X149325756Y-74917981D01*
X149317621Y-74907379D01*
X149304584Y-74897375D01*
X149202625Y-74819139D01*
X149201587Y-74818709D01*
X149094147Y-74774206D01*
X149039744Y-74730365D01*
X149017679Y-74664071D01*
X149034958Y-74596372D01*
X149051138Y-74574836D01*
X149083971Y-74539818D01*
X149089424Y-74531213D01*
X149106475Y-74509916D01*
X149378980Y-74237412D01*
X149379013Y-74237393D01*
X149415312Y-74201092D01*
X149415313Y-74201093D01*
X149480220Y-74136184D01*
X149591980Y-73990533D01*
X149683773Y-73831540D01*
X149754027Y-73661926D01*
X149801541Y-73484592D01*
X149825501Y-73302574D01*
X149825500Y-73210780D01*
X149825500Y-73182063D01*
X149825500Y-70523500D01*
X149845185Y-70456461D01*
X149897989Y-70410706D01*
X149949500Y-70399500D01*
X153550500Y-70399500D01*
X153617539Y-70419185D01*
G37*
%TD.AperFunction*%
%TA.AperFunction,Conductor*%
G36*
X188004418Y-65400816D02*
G01*
X188218791Y-65416148D01*
X188236296Y-65418665D01*
X188441969Y-65463406D01*
X188458928Y-65468385D01*
X188656150Y-65541946D01*
X188672242Y-65549296D01*
X188856968Y-65650163D01*
X188871848Y-65659724D01*
X189040353Y-65785866D01*
X189053723Y-65797452D01*
X189202547Y-65946276D01*
X189214133Y-65959646D01*
X189340271Y-66128146D01*
X189349836Y-66143031D01*
X189450703Y-66327757D01*
X189458053Y-66343849D01*
X189531611Y-66541063D01*
X189536595Y-66558039D01*
X189581333Y-66763700D01*
X189583851Y-66781211D01*
X189599184Y-66995579D01*
X189599500Y-67004426D01*
X189599500Y-97995572D01*
X189599184Y-98004419D01*
X189583851Y-98218788D01*
X189581333Y-98236299D01*
X189536595Y-98441960D01*
X189531611Y-98458936D01*
X189458053Y-98656150D01*
X189450703Y-98672242D01*
X189349836Y-98856968D01*
X189340271Y-98871853D01*
X189214133Y-99040353D01*
X189202547Y-99053723D01*
X189053723Y-99202547D01*
X189040353Y-99214133D01*
X188871853Y-99340271D01*
X188856968Y-99349836D01*
X188672242Y-99450703D01*
X188656150Y-99458053D01*
X188458936Y-99531611D01*
X188441960Y-99536595D01*
X188236299Y-99581333D01*
X188218788Y-99583851D01*
X188023369Y-99597828D01*
X188004417Y-99599184D01*
X187995572Y-99599500D01*
X102004428Y-99599500D01*
X101995582Y-99599184D01*
X101974407Y-99597669D01*
X101781211Y-99583851D01*
X101763700Y-99581333D01*
X101558039Y-99536595D01*
X101541063Y-99531611D01*
X101343849Y-99458053D01*
X101327757Y-99450703D01*
X101143031Y-99349836D01*
X101128146Y-99340271D01*
X100959646Y-99214133D01*
X100946276Y-99202547D01*
X100797452Y-99053723D01*
X100785866Y-99040353D01*
X100745924Y-98986997D01*
X100659724Y-98871848D01*
X100650163Y-98856968D01*
X100549296Y-98672242D01*
X100541946Y-98656150D01*
X100468385Y-98458928D01*
X100463406Y-98441969D01*
X100418665Y-98236296D01*
X100416148Y-98218787D01*
X100400816Y-98004418D01*
X100400500Y-97995572D01*
X100400500Y-81405055D01*
X101099500Y-81405055D01*
X101140209Y-81570224D01*
X101140210Y-81570225D01*
X101219266Y-81720852D01*
X101295211Y-81806576D01*
X101332072Y-81848184D01*
X101389428Y-81887774D01*
X101472070Y-81944818D01*
X101631128Y-82005140D01*
X101757628Y-82020500D01*
X101761377Y-82020500D01*
X102738623Y-82020500D01*
X102742372Y-82020500D01*
X102868872Y-82005140D01*
X102968842Y-81967227D01*
X103027928Y-81944819D01*
X103027928Y-81944818D01*
X103027930Y-81944818D01*
X103087303Y-81903833D01*
X103092959Y-81900153D01*
X103135861Y-81873878D01*
X103146135Y-81868237D01*
X103257710Y-81813699D01*
X103269602Y-81808639D01*
X103376334Y-81769667D01*
X103389740Y-81765615D01*
X103492329Y-81740842D01*
X103506881Y-81738237D01*
X103619564Y-81724962D01*
X103619564Y-81724961D01*
X103629878Y-81723747D01*
X103629878Y-81723749D01*
X103652582Y-81720500D01*
X104799555Y-81720500D01*
X104820151Y-81723878D01*
X104820248Y-81723132D01*
X104832356Y-81724701D01*
X104832359Y-81724702D01*
X104967964Y-81742275D01*
X104983463Y-81745297D01*
X105107908Y-81777913D01*
X105121971Y-81782512D01*
X105251374Y-81833573D01*
X105263667Y-81839217D01*
X105382034Y-81901605D01*
X105411894Y-81923617D01*
X105418424Y-81930147D01*
X105513738Y-81990036D01*
X105566394Y-82023122D01*
X105580324Y-82027996D01*
X105595849Y-82034772D01*
X105595104Y-82034401D01*
X105596541Y-82035075D01*
X105597360Y-82035432D01*
X105600458Y-82037071D01*
X105604610Y-82038778D01*
X105641344Y-82049880D01*
X105649933Y-82052476D01*
X105655008Y-82054130D01*
X105731343Y-82080841D01*
X105861448Y-82095500D01*
X105864933Y-82095500D01*
X106995067Y-82095500D01*
X106998552Y-82095500D01*
X107128657Y-82080841D01*
X107293606Y-82023122D01*
X107441576Y-81930147D01*
X107565147Y-81806576D01*
X107658122Y-81658606D01*
X107715841Y-81493657D01*
X107735407Y-81320000D01*
X107715841Y-81146343D01*
X107689049Y-81069775D01*
X107658122Y-80981393D01*
X107565147Y-80833423D01*
X107441576Y-80709852D01*
X107374685Y-80667822D01*
X109349499Y-80667822D01*
X109349500Y-80667823D01*
X109349500Y-84962497D01*
X109349511Y-84962589D01*
X109349517Y-84962796D01*
X109349517Y-84997375D01*
X109349517Y-85029733D01*
X109350045Y-85033749D01*
X109350046Y-85033754D01*
X109365111Y-85148205D01*
X109377752Y-85244241D01*
X109378798Y-85248145D01*
X109378800Y-85248155D01*
X109432693Y-85449305D01*
X109432696Y-85449314D01*
X109433745Y-85453229D01*
X109435300Y-85456984D01*
X109435301Y-85456986D01*
X109513633Y-85646110D01*
X109516537Y-85653120D01*
X109518564Y-85656632D01*
X109518568Y-85656639D01*
X109590284Y-85780861D01*
X109624712Y-85840495D01*
X109627179Y-85843711D01*
X109627183Y-85843716D01*
X109751926Y-86006291D01*
X109756419Y-86012146D01*
X109759281Y-86015009D01*
X109759295Y-86015024D01*
X109764018Y-86019747D01*
X109764031Y-86019763D01*
X109832911Y-86088643D01*
X109895523Y-86151258D01*
X109895536Y-86151268D01*
X112010507Y-88266239D01*
X112010509Y-88266243D01*
X112120450Y-88376186D01*
X112120458Y-88376193D01*
X112123321Y-88379056D01*
X112294972Y-88510768D01*
X112482346Y-88618949D01*
X112682237Y-88701746D01*
X112891226Y-88757743D01*
X113105736Y-88785983D01*
X113213917Y-88785982D01*
X117551407Y-88785982D01*
X117626639Y-88776477D01*
X117642179Y-88775500D01*
X118080782Y-88775500D01*
X118147821Y-88795185D01*
X118193576Y-88847989D01*
X118203520Y-88917147D01*
X118174495Y-88980703D01*
X118115717Y-89018477D01*
X118112876Y-89019275D01*
X118017001Y-89044965D01*
X118016997Y-89044966D01*
X118013087Y-89046014D01*
X118009347Y-89047562D01*
X118009341Y-89047565D01*
X117847246Y-89114700D01*
X117847241Y-89114702D01*
X117843490Y-89116256D01*
X117839981Y-89118281D01*
X117839968Y-89118288D01*
X117688027Y-89205998D01*
X117688018Y-89206003D01*
X117684510Y-89208029D01*
X117681302Y-89210489D01*
X117681290Y-89210498D01*
X117542083Y-89317290D01*
X117542075Y-89317296D01*
X117538863Y-89319761D01*
X117536001Y-89322621D01*
X117535992Y-89322630D01*
X117496229Y-89362382D01*
X117496211Y-89362398D01*
X117496198Y-89362409D01*
X117496161Y-89362445D01*
X117496145Y-89362461D01*
X117470821Y-89387785D01*
X117421700Y-89436892D01*
X117421657Y-89436948D01*
X115496018Y-91362588D01*
X115495989Y-91362603D01*
X115397642Y-91460953D01*
X115397635Y-91460960D01*
X115394780Y-91463816D01*
X115392319Y-91467022D01*
X115392313Y-91467030D01*
X115285488Y-91606249D01*
X115285479Y-91606261D01*
X115283020Y-91609467D01*
X115281001Y-91612963D01*
X115280993Y-91612976D01*
X115193254Y-91764948D01*
X115193250Y-91764955D01*
X115191227Y-91768460D01*
X115189677Y-91772200D01*
X115189675Y-91772206D01*
X115122526Y-91934323D01*
X115122522Y-91934331D01*
X115120973Y-91938074D01*
X115119923Y-91941989D01*
X115119921Y-91941998D01*
X115074510Y-92111482D01*
X115074507Y-92111495D01*
X115073459Y-92115408D01*
X115072929Y-92119430D01*
X115072928Y-92119438D01*
X115050028Y-92293402D01*
X115050027Y-92293412D01*
X115049499Y-92297426D01*
X115049499Y-92301478D01*
X115049499Y-92301480D01*
X115049500Y-92357695D01*
X115049500Y-96141372D01*
X115046275Y-96169466D01*
X115044268Y-96178090D01*
X115041329Y-96269285D01*
X115040036Y-96283587D01*
X115034739Y-96319092D01*
X115030153Y-96338722D01*
X115021532Y-96365557D01*
X115017229Y-96376987D01*
X114988546Y-96443093D01*
X114943126Y-96547717D01*
X114941727Y-96551001D01*
X114939162Y-96563702D01*
X114932180Y-96586601D01*
X114913670Y-96631291D01*
X114894749Y-96774999D01*
X114913670Y-96918709D01*
X114969137Y-97052622D01*
X114969138Y-97052624D01*
X114969139Y-97052625D01*
X115057379Y-97167621D01*
X115172375Y-97255861D01*
X115306291Y-97311330D01*
X115450000Y-97330250D01*
X115593709Y-97311330D01*
X115727625Y-97255861D01*
X115842621Y-97167621D01*
X115930861Y-97052625D01*
X115986330Y-96918709D01*
X116001959Y-96800000D01*
X134819750Y-96800000D01*
X134838670Y-96943709D01*
X134894137Y-97077622D01*
X134894138Y-97077624D01*
X134894139Y-97077625D01*
X134982379Y-97192621D01*
X135097375Y-97280861D01*
X135231291Y-97336330D01*
X135375000Y-97355250D01*
X135518709Y-97336330D01*
X135652625Y-97280861D01*
X135767621Y-97192621D01*
X135855861Y-97077625D01*
X135911330Y-96943709D01*
X135930250Y-96800000D01*
X135911330Y-96656291D01*
X135889495Y-96603577D01*
X135883434Y-96584868D01*
X135879320Y-96567607D01*
X135877086Y-96562740D01*
X135831648Y-96463742D01*
X135829070Y-96458296D01*
X135829054Y-96458264D01*
X135829008Y-96458166D01*
X135828598Y-96457326D01*
X135826074Y-96452319D01*
X135790069Y-96382711D01*
X135786328Y-96374803D01*
X135774610Y-96347594D01*
X135767453Y-96325459D01*
X135762828Y-96304652D01*
X135760049Y-96284304D01*
X135755729Y-96202567D01*
X135755540Y-96201779D01*
X135753936Y-96195107D01*
X135751988Y-96178674D01*
X138095500Y-96178674D01*
X138110033Y-96251738D01*
X138110033Y-96251739D01*
X138110034Y-96251740D01*
X138165399Y-96334601D01*
X138248260Y-96389966D01*
X138280540Y-96396387D01*
X138321325Y-96404500D01*
X138321326Y-96404500D01*
X139678675Y-96404500D01*
X139703029Y-96399655D01*
X139751740Y-96389966D01*
X139834601Y-96334601D01*
X139889966Y-96251740D01*
X139904500Y-96178674D01*
X139904500Y-95838325D01*
X139924185Y-95771287D01*
X139976989Y-95725532D01*
X140046147Y-95715588D01*
X140109703Y-95744613D01*
X140146431Y-95800008D01*
X140169146Y-95869920D01*
X140264213Y-96034579D01*
X140264214Y-96034580D01*
X140391438Y-96175877D01*
X140520003Y-96269285D01*
X140545259Y-96287635D01*
X140718957Y-96364970D01*
X140904931Y-96404500D01*
X140904933Y-96404500D01*
X141095069Y-96404500D01*
X141281042Y-96364970D01*
X141281043Y-96364969D01*
X141281045Y-96364969D01*
X141454741Y-96287635D01*
X141608562Y-96175877D01*
X141735786Y-96034580D01*
X141830853Y-95869920D01*
X141889608Y-95689092D01*
X141909482Y-95500000D01*
X141889608Y-95310908D01*
X141830853Y-95130080D01*
X141830853Y-95130079D01*
X141735786Y-94965420D01*
X141735785Y-94965419D01*
X141608562Y-94824123D01*
X141454741Y-94712365D01*
X141454740Y-94712364D01*
X141281042Y-94635029D01*
X141095069Y-94595500D01*
X141095067Y-94595500D01*
X140904933Y-94595500D01*
X140904931Y-94595500D01*
X140718957Y-94635029D01*
X140545259Y-94712364D01*
X140391437Y-94824124D01*
X140264213Y-94965420D01*
X140169146Y-95130079D01*
X140146431Y-95199991D01*
X140106993Y-95257667D01*
X140042635Y-95284865D01*
X139973788Y-95272950D01*
X139922313Y-95225706D01*
X139904500Y-95161673D01*
X139904500Y-94821325D01*
X139889966Y-94748261D01*
X139889966Y-94748260D01*
X139834601Y-94665399D01*
X139751740Y-94610034D01*
X139751739Y-94610033D01*
X139751738Y-94610033D01*
X139678675Y-94595500D01*
X139678674Y-94595500D01*
X138321326Y-94595500D01*
X138321325Y-94595500D01*
X138248261Y-94610033D01*
X138165399Y-94665399D01*
X138110033Y-94748261D01*
X138095500Y-94821325D01*
X138095500Y-96178674D01*
X135751988Y-96178674D01*
X135750500Y-96166121D01*
X135750500Y-93470298D01*
X135751097Y-93458145D01*
X135753603Y-93432695D01*
X135760821Y-93359400D01*
X135765563Y-93335563D01*
X135792585Y-93246477D01*
X135801887Y-93224019D01*
X135821950Y-93186482D01*
X135845776Y-93141904D01*
X135859269Y-93121709D01*
X135922171Y-93045061D01*
X135930316Y-93036075D01*
X138485973Y-90480418D01*
X138494971Y-90472263D01*
X138571703Y-90409300D01*
X138591891Y-90395812D01*
X138674023Y-90351917D01*
X138696466Y-90342623D01*
X138785564Y-90315599D01*
X138809401Y-90310859D01*
X138843604Y-90307491D01*
X138908545Y-90301097D01*
X138920696Y-90300500D01*
X138971792Y-90300500D01*
X148291378Y-90300500D01*
X148319464Y-90303723D01*
X148328096Y-90305731D01*
X148419289Y-90308668D01*
X148433580Y-90309960D01*
X148469086Y-90315257D01*
X148488715Y-90319842D01*
X148498728Y-90323058D01*
X148515574Y-90328471D01*
X148526998Y-90332773D01*
X148593095Y-90361453D01*
X148645405Y-90384161D01*
X148697718Y-90406871D01*
X148700974Y-90408258D01*
X148713679Y-90410824D01*
X148736569Y-90417805D01*
X148781291Y-90436330D01*
X148908280Y-90453048D01*
X148924999Y-90455250D01*
X148924999Y-90455249D01*
X148925000Y-90455250D01*
X149068709Y-90436330D01*
X149202625Y-90380861D01*
X149317621Y-90292621D01*
X149405861Y-90177625D01*
X149461330Y-90043709D01*
X149480250Y-89900000D01*
X149478592Y-89887410D01*
X149473870Y-89851539D01*
X149461330Y-89756291D01*
X149405861Y-89622375D01*
X149317621Y-89507379D01*
X149202625Y-89419139D01*
X149202624Y-89419138D01*
X149202622Y-89419137D01*
X149068709Y-89363670D01*
X148925000Y-89344749D01*
X148781289Y-89363670D01*
X148733961Y-89383273D01*
X148712754Y-89389902D01*
X148697572Y-89393189D01*
X148638473Y-89418845D01*
X148593134Y-89438528D01*
X148561018Y-89452463D01*
X148526991Y-89467227D01*
X148515564Y-89471530D01*
X148488724Y-89480153D01*
X148469092Y-89484739D01*
X148433587Y-89490036D01*
X148419285Y-89491329D01*
X148328095Y-89494268D01*
X148318149Y-89496497D01*
X148291030Y-89499500D01*
X138873263Y-89499500D01*
X138872778Y-89499537D01*
X138826490Y-89499537D01*
X138826488Y-89499537D01*
X138822430Y-89499537D01*
X138818413Y-89500065D01*
X138818409Y-89500066D01*
X138644434Y-89522966D01*
X138644424Y-89522967D01*
X138640420Y-89523495D01*
X138636505Y-89524543D01*
X138636504Y-89524544D01*
X138467013Y-89569951D01*
X138466998Y-89569956D01*
X138463094Y-89571002D01*
X138459354Y-89572550D01*
X138459342Y-89572555D01*
X138297244Y-89639690D01*
X138293485Y-89641247D01*
X138289971Y-89643275D01*
X138289966Y-89643278D01*
X138138005Y-89731001D01*
X138137996Y-89731006D01*
X138134495Y-89733028D01*
X138131286Y-89735489D01*
X138131277Y-89735496D01*
X137992067Y-89842301D01*
X137988844Y-89844774D01*
X137985978Y-89847638D01*
X137985967Y-89847649D01*
X137947787Y-89885823D01*
X137946210Y-89887400D01*
X137946198Y-89887410D01*
X137946183Y-89887424D01*
X137946170Y-89887437D01*
X137923934Y-89909674D01*
X137872435Y-89961163D01*
X137872407Y-89961199D01*
X135396018Y-92437588D01*
X135395989Y-92437603D01*
X135297642Y-92535953D01*
X135297635Y-92535960D01*
X135294780Y-92538816D01*
X135292319Y-92542022D01*
X135292313Y-92542030D01*
X135185488Y-92681249D01*
X135185479Y-92681261D01*
X135183020Y-92684467D01*
X135181001Y-92687963D01*
X135180993Y-92687976D01*
X135093254Y-92839948D01*
X135093250Y-92839955D01*
X135091227Y-92843460D01*
X135089677Y-92847200D01*
X135089675Y-92847206D01*
X135022526Y-93009323D01*
X135022522Y-93009331D01*
X135020973Y-93013074D01*
X135019923Y-93016989D01*
X135019921Y-93016998D01*
X134974510Y-93186482D01*
X134974507Y-93186495D01*
X134973459Y-93190408D01*
X134972929Y-93194430D01*
X134972928Y-93194438D01*
X134950028Y-93368402D01*
X134950027Y-93368412D01*
X134949499Y-93372426D01*
X134949499Y-93376478D01*
X134949499Y-93376480D01*
X134949500Y-93432695D01*
X134949500Y-96175997D01*
X134946790Y-96201779D01*
X134944369Y-96213165D01*
X134943089Y-96310716D01*
X134942669Y-96319416D01*
X134938670Y-96367260D01*
X134936065Y-96384201D01*
X134930319Y-96409690D01*
X134926015Y-96424449D01*
X134907024Y-96477164D01*
X134905033Y-96482328D01*
X134865991Y-96577192D01*
X134863397Y-96590304D01*
X134856319Y-96613680D01*
X134838670Y-96656292D01*
X134819750Y-96800000D01*
X116001959Y-96800000D01*
X116005250Y-96775000D01*
X115986330Y-96631291D01*
X115966720Y-96583948D01*
X115960093Y-96562747D01*
X115956807Y-96547569D01*
X115956806Y-96547568D01*
X115956806Y-96547565D01*
X115918052Y-96458296D01*
X115911471Y-96443136D01*
X115882768Y-96376985D01*
X115878474Y-96365584D01*
X115869842Y-96338716D01*
X115865258Y-96319092D01*
X115864659Y-96315076D01*
X115859960Y-96283579D01*
X115858668Y-96269282D01*
X115858103Y-96251738D01*
X115855750Y-96178674D01*
X118095500Y-96178674D01*
X118110033Y-96251738D01*
X118110033Y-96251739D01*
X118110034Y-96251740D01*
X118165399Y-96334601D01*
X118248260Y-96389966D01*
X118280540Y-96396387D01*
X118321325Y-96404500D01*
X118321326Y-96404500D01*
X119678675Y-96404500D01*
X119703029Y-96399655D01*
X119751740Y-96389966D01*
X119834601Y-96334601D01*
X119889966Y-96251740D01*
X119904500Y-96178674D01*
X119904500Y-95838322D01*
X119924183Y-95771287D01*
X119976987Y-95725532D01*
X120046146Y-95715588D01*
X120109701Y-95744613D01*
X120146430Y-95800007D01*
X120158881Y-95838326D01*
X120169147Y-95869920D01*
X120264214Y-96034580D01*
X120391438Y-96175877D01*
X120520003Y-96269285D01*
X120545259Y-96287635D01*
X120718957Y-96364970D01*
X120904931Y-96404500D01*
X120904933Y-96404500D01*
X121095069Y-96404500D01*
X121281042Y-96364970D01*
X121281043Y-96364969D01*
X121281045Y-96364969D01*
X121454741Y-96287635D01*
X121608562Y-96175877D01*
X121735786Y-96034580D01*
X121830853Y-95869920D01*
X121889608Y-95689092D01*
X121909482Y-95500000D01*
X121889608Y-95310908D01*
X121830853Y-95130080D01*
X121830853Y-95130079D01*
X121735786Y-94965420D01*
X121735785Y-94965419D01*
X121608562Y-94824123D01*
X121454741Y-94712365D01*
X121454740Y-94712364D01*
X121281042Y-94635029D01*
X121095069Y-94595500D01*
X121095067Y-94595500D01*
X120904933Y-94595500D01*
X120904931Y-94595500D01*
X120718957Y-94635029D01*
X120545259Y-94712364D01*
X120391437Y-94824124D01*
X120264213Y-94965420D01*
X120169147Y-95130077D01*
X120146430Y-95199993D01*
X120106991Y-95257668D01*
X120042632Y-95284865D01*
X119973786Y-95272950D01*
X119922311Y-95225705D01*
X119904500Y-95161676D01*
X119904500Y-94821326D01*
X119889966Y-94748260D01*
X119834601Y-94665399D01*
X119751740Y-94610034D01*
X119751739Y-94610033D01*
X119751738Y-94610033D01*
X119678675Y-94595500D01*
X119678674Y-94595500D01*
X118321326Y-94595500D01*
X118321325Y-94595500D01*
X118248261Y-94610033D01*
X118165399Y-94665399D01*
X118110033Y-94748261D01*
X118095500Y-94821325D01*
X118095500Y-96178674D01*
X115855750Y-96178674D01*
X115855731Y-96178095D01*
X115853501Y-96168148D01*
X115850500Y-96141030D01*
X115850500Y-92395297D01*
X115851097Y-92383144D01*
X115851294Y-92381141D01*
X115860821Y-92284400D01*
X115865563Y-92260563D01*
X115892585Y-92171477D01*
X115901887Y-92149019D01*
X115933460Y-92089948D01*
X115945776Y-92066904D01*
X115959269Y-92046709D01*
X116022171Y-91970061D01*
X116030316Y-91961075D01*
X118035955Y-89955437D01*
X118044962Y-89947274D01*
X118121694Y-89884317D01*
X118141895Y-89870822D01*
X118224031Y-89826927D01*
X118246470Y-89817633D01*
X118335598Y-89790596D01*
X118359422Y-89785857D01*
X118440314Y-89777885D01*
X118458455Y-89776098D01*
X118470616Y-89775500D01*
X128166378Y-89775500D01*
X128194464Y-89778723D01*
X128203096Y-89780731D01*
X128294289Y-89783668D01*
X128308580Y-89784960D01*
X128344086Y-89790257D01*
X128363715Y-89794842D01*
X128367759Y-89796141D01*
X128390574Y-89803471D01*
X128401998Y-89807773D01*
X128468095Y-89836453D01*
X128515127Y-89856870D01*
X128572718Y-89881871D01*
X128575974Y-89883258D01*
X128588679Y-89885824D01*
X128611569Y-89892805D01*
X128656291Y-89911330D01*
X128783280Y-89928048D01*
X128799999Y-89930250D01*
X128799999Y-89930249D01*
X128800000Y-89930250D01*
X128943709Y-89911330D01*
X129077625Y-89855861D01*
X129192621Y-89767621D01*
X129280861Y-89652625D01*
X129336330Y-89518709D01*
X129355250Y-89375000D01*
X129336330Y-89231291D01*
X129280861Y-89097375D01*
X129276150Y-89091236D01*
X129186949Y-88974986D01*
X129161755Y-88909817D01*
X129175793Y-88841372D01*
X129224607Y-88791383D01*
X129285325Y-88775500D01*
X158412361Y-88775500D01*
X158479400Y-88795185D01*
X158525155Y-88847989D01*
X158535099Y-88917147D01*
X158506074Y-88980703D01*
X158447296Y-89018477D01*
X158444495Y-89019263D01*
X158443126Y-89019630D01*
X158441995Y-89019933D01*
X158441988Y-89019935D01*
X158438078Y-89020983D01*
X158434335Y-89022533D01*
X158434327Y-89022536D01*
X158272211Y-89089684D01*
X158272205Y-89089686D01*
X158268465Y-89091236D01*
X158264960Y-89093259D01*
X158264953Y-89093263D01*
X158112978Y-89181004D01*
X158112973Y-89181007D01*
X158109473Y-89183028D01*
X158106266Y-89185488D01*
X158106261Y-89185492D01*
X157967050Y-89292309D01*
X157967039Y-89292318D01*
X157963822Y-89294787D01*
X157960949Y-89297659D01*
X157960942Y-89297666D01*
X157921202Y-89337405D01*
X157921198Y-89337409D01*
X155571018Y-91687588D01*
X155570989Y-91687603D01*
X155472642Y-91785953D01*
X155472635Y-91785960D01*
X155469780Y-91788816D01*
X155467319Y-91792022D01*
X155467313Y-91792030D01*
X155360488Y-91931249D01*
X155360479Y-91931261D01*
X155358020Y-91934467D01*
X155356001Y-91937963D01*
X155355993Y-91937976D01*
X155268254Y-92089948D01*
X155268250Y-92089955D01*
X155266227Y-92093460D01*
X155264677Y-92097200D01*
X155264675Y-92097206D01*
X155197526Y-92259323D01*
X155197522Y-92259331D01*
X155195973Y-92263074D01*
X155194923Y-92266989D01*
X155194921Y-92266998D01*
X155149510Y-92436482D01*
X155149507Y-92436495D01*
X155148459Y-92440408D01*
X155147929Y-92444430D01*
X155147928Y-92444438D01*
X155125028Y-92618402D01*
X155125027Y-92618412D01*
X155124499Y-92622426D01*
X155124499Y-92626478D01*
X155124499Y-92626480D01*
X155124500Y-92682695D01*
X155124500Y-96166372D01*
X155121275Y-96194466D01*
X155119268Y-96203090D01*
X155116329Y-96294285D01*
X155115036Y-96308587D01*
X155109739Y-96344092D01*
X155105153Y-96363722D01*
X155096532Y-96390557D01*
X155092229Y-96401987D01*
X155063546Y-96468093D01*
X155018126Y-96572717D01*
X155016727Y-96576001D01*
X155014162Y-96588702D01*
X155007180Y-96611601D01*
X154988670Y-96656291D01*
X154969749Y-96799999D01*
X154988670Y-96943709D01*
X155044137Y-97077622D01*
X155044138Y-97077624D01*
X155044139Y-97077625D01*
X155132379Y-97192621D01*
X155247375Y-97280861D01*
X155381291Y-97336330D01*
X155525000Y-97355250D01*
X155668709Y-97336330D01*
X155802625Y-97280861D01*
X155917621Y-97192621D01*
X156005861Y-97077625D01*
X156061330Y-96943709D01*
X156080250Y-96800000D01*
X156061330Y-96656291D01*
X156041720Y-96608948D01*
X156035093Y-96587747D01*
X156031807Y-96572569D01*
X156031806Y-96572568D01*
X156031806Y-96572565D01*
X155986471Y-96468137D01*
X155981987Y-96457802D01*
X155957768Y-96401985D01*
X155953474Y-96390584D01*
X155944842Y-96363716D01*
X155940258Y-96344092D01*
X155938020Y-96329092D01*
X155934960Y-96308579D01*
X155933668Y-96294282D01*
X155933454Y-96287635D01*
X155930731Y-96203095D01*
X155928501Y-96193148D01*
X155926899Y-96178674D01*
X158095500Y-96178674D01*
X158110033Y-96251738D01*
X158110033Y-96251739D01*
X158110034Y-96251740D01*
X158165399Y-96334601D01*
X158248260Y-96389966D01*
X158280540Y-96396387D01*
X158321325Y-96404500D01*
X158321326Y-96404500D01*
X159678675Y-96404500D01*
X159703029Y-96399655D01*
X159751740Y-96389966D01*
X159834601Y-96334601D01*
X159889966Y-96251740D01*
X159904500Y-96178674D01*
X159904500Y-95838326D01*
X159924185Y-95771287D01*
X159976989Y-95725532D01*
X160046147Y-95715588D01*
X160109703Y-95744613D01*
X160146431Y-95800008D01*
X160169146Y-95869920D01*
X160264213Y-96034579D01*
X160264214Y-96034580D01*
X160391438Y-96175877D01*
X160520003Y-96269285D01*
X160545259Y-96287635D01*
X160718957Y-96364970D01*
X160904931Y-96404500D01*
X160904933Y-96404500D01*
X161095069Y-96404500D01*
X161281042Y-96364970D01*
X161281043Y-96364969D01*
X161281045Y-96364969D01*
X161454741Y-96287635D01*
X161608562Y-96175877D01*
X161735786Y-96034580D01*
X161830853Y-95869920D01*
X161889608Y-95689092D01*
X161909482Y-95500000D01*
X161889608Y-95310908D01*
X161830853Y-95130080D01*
X161830853Y-95130079D01*
X161735786Y-94965420D01*
X161735786Y-94965419D01*
X161608562Y-94824123D01*
X161454741Y-94712365D01*
X161454740Y-94712364D01*
X161281042Y-94635029D01*
X161095069Y-94595500D01*
X161095067Y-94595500D01*
X160904933Y-94595500D01*
X160904931Y-94595500D01*
X160718957Y-94635029D01*
X160545259Y-94712364D01*
X160391437Y-94824124D01*
X160264213Y-94965420D01*
X160169146Y-95130079D01*
X160146431Y-95199991D01*
X160106993Y-95257667D01*
X160042635Y-95284865D01*
X159973788Y-95272950D01*
X159922313Y-95225706D01*
X159904500Y-95161673D01*
X159904500Y-94821325D01*
X159889966Y-94748261D01*
X159889966Y-94748260D01*
X159834601Y-94665399D01*
X159751740Y-94610034D01*
X159751739Y-94610033D01*
X159751738Y-94610033D01*
X159678675Y-94595500D01*
X159678674Y-94595500D01*
X158321326Y-94595500D01*
X158321325Y-94595500D01*
X158248261Y-94610033D01*
X158165399Y-94665399D01*
X158110033Y-94748261D01*
X158095500Y-94821325D01*
X158095500Y-96178674D01*
X155926899Y-96178674D01*
X155925500Y-96166030D01*
X155925500Y-92720298D01*
X155926097Y-92708145D01*
X155928746Y-92681249D01*
X155935821Y-92609400D01*
X155940563Y-92585563D01*
X155967585Y-92496477D01*
X155976887Y-92474019D01*
X155996950Y-92436482D01*
X156020776Y-92391904D01*
X156034269Y-92371709D01*
X156097171Y-92295061D01*
X156105316Y-92286075D01*
X158460998Y-89930394D01*
X158470006Y-89922231D01*
X158546707Y-89859286D01*
X158566911Y-89845785D01*
X158649029Y-89801893D01*
X158671474Y-89792597D01*
X158760566Y-89765572D01*
X158784404Y-89760831D01*
X158883248Y-89751096D01*
X158895400Y-89750500D01*
X158946792Y-89750500D01*
X166866378Y-89750500D01*
X166894464Y-89753723D01*
X166903096Y-89755731D01*
X166994289Y-89758668D01*
X167008580Y-89759960D01*
X167044086Y-89765257D01*
X167063715Y-89769842D01*
X167073728Y-89773058D01*
X167090574Y-89778471D01*
X167101995Y-89782771D01*
X167111866Y-89787055D01*
X167168095Y-89811453D01*
X167220405Y-89834161D01*
X167272718Y-89856871D01*
X167275974Y-89858258D01*
X167288679Y-89860824D01*
X167311569Y-89867805D01*
X167356291Y-89886330D01*
X167483280Y-89903048D01*
X167499999Y-89905250D01*
X167499999Y-89905249D01*
X167500000Y-89905250D01*
X167643709Y-89886330D01*
X167777625Y-89830861D01*
X167892621Y-89742621D01*
X167980861Y-89627625D01*
X168036330Y-89493709D01*
X168055250Y-89350000D01*
X168036330Y-89206291D01*
X167980861Y-89072375D01*
X167961824Y-89047565D01*
X167906132Y-88974986D01*
X167880938Y-88909817D01*
X167894976Y-88841372D01*
X167943790Y-88791383D01*
X168004508Y-88775500D01*
X177562030Y-88775500D01*
X177565925Y-88775500D01*
X177688058Y-88760071D01*
X177697984Y-88756140D01*
X177767560Y-88749762D01*
X177829541Y-88782013D01*
X177864247Y-88842653D01*
X177860659Y-88912431D01*
X177819916Y-88969191D01*
X177819119Y-88969808D01*
X177692037Y-89067319D01*
X177692026Y-89067327D01*
X177688822Y-89069787D01*
X177685966Y-89072642D01*
X177685959Y-89072649D01*
X177623914Y-89134694D01*
X177583194Y-89175413D01*
X175621018Y-91137588D01*
X175620989Y-91137603D01*
X175522642Y-91235953D01*
X175522635Y-91235960D01*
X175519780Y-91238816D01*
X175517319Y-91242022D01*
X175517313Y-91242030D01*
X175410488Y-91381249D01*
X175410479Y-91381261D01*
X175408020Y-91384467D01*
X175406001Y-91387963D01*
X175405993Y-91387976D01*
X175318254Y-91539948D01*
X175318250Y-91539955D01*
X175316227Y-91543460D01*
X175314677Y-91547200D01*
X175314675Y-91547206D01*
X175247526Y-91709323D01*
X175247522Y-91709331D01*
X175245973Y-91713074D01*
X175244923Y-91716989D01*
X175244921Y-91716998D01*
X175199510Y-91886482D01*
X175199507Y-91886495D01*
X175198459Y-91890408D01*
X175197929Y-91894430D01*
X175197928Y-91894438D01*
X175175028Y-92068402D01*
X175175027Y-92068412D01*
X175174499Y-92072426D01*
X175174499Y-92076478D01*
X175174499Y-92076480D01*
X175174500Y-92132695D01*
X175174500Y-96166372D01*
X175171275Y-96194466D01*
X175169268Y-96203090D01*
X175166329Y-96294285D01*
X175165036Y-96308587D01*
X175159739Y-96344092D01*
X175155153Y-96363722D01*
X175146532Y-96390557D01*
X175142229Y-96401987D01*
X175113546Y-96468093D01*
X175068126Y-96572717D01*
X175066727Y-96576001D01*
X175064162Y-96588702D01*
X175057180Y-96611601D01*
X175038670Y-96656291D01*
X175019749Y-96800000D01*
X175038670Y-96943709D01*
X175094137Y-97077622D01*
X175094138Y-97077624D01*
X175094139Y-97077625D01*
X175182379Y-97192621D01*
X175297375Y-97280861D01*
X175431291Y-97336330D01*
X175575000Y-97355250D01*
X175718709Y-97336330D01*
X175852625Y-97280861D01*
X175967621Y-97192621D01*
X176055861Y-97077625D01*
X176111330Y-96943709D01*
X176130250Y-96800000D01*
X176111330Y-96656291D01*
X176091720Y-96608948D01*
X176085093Y-96587747D01*
X176081807Y-96572569D01*
X176081806Y-96572568D01*
X176081806Y-96572565D01*
X176036471Y-96468137D01*
X176031987Y-96457802D01*
X176007768Y-96401985D01*
X176003474Y-96390584D01*
X175994842Y-96363716D01*
X175990258Y-96344092D01*
X175988020Y-96329092D01*
X175984960Y-96308579D01*
X175983668Y-96294282D01*
X175983454Y-96287635D01*
X175980731Y-96203095D01*
X175978501Y-96193148D01*
X175976899Y-96178674D01*
X178095500Y-96178674D01*
X178110033Y-96251738D01*
X178110033Y-96251739D01*
X178110034Y-96251740D01*
X178165399Y-96334601D01*
X178248260Y-96389966D01*
X178280540Y-96396387D01*
X178321325Y-96404500D01*
X178321326Y-96404500D01*
X179678675Y-96404500D01*
X179703029Y-96399655D01*
X179751740Y-96389966D01*
X179834601Y-96334601D01*
X179889966Y-96251740D01*
X179904500Y-96178674D01*
X179904499Y-95838326D01*
X179924185Y-95771287D01*
X179976989Y-95725532D01*
X180046147Y-95715588D01*
X180109703Y-95744613D01*
X180146431Y-95800008D01*
X180169146Y-95869920D01*
X180264213Y-96034579D01*
X180264214Y-96034580D01*
X180391438Y-96175877D01*
X180520003Y-96269285D01*
X180545259Y-96287635D01*
X180718957Y-96364970D01*
X180904931Y-96404500D01*
X180904933Y-96404500D01*
X181095069Y-96404500D01*
X181281042Y-96364970D01*
X181281043Y-96364969D01*
X181281045Y-96364969D01*
X181454741Y-96287635D01*
X181608562Y-96175877D01*
X181735786Y-96034580D01*
X181830853Y-95869920D01*
X181889608Y-95689092D01*
X181909482Y-95500000D01*
X181889608Y-95310908D01*
X181830853Y-95130080D01*
X181830853Y-95130079D01*
X181735786Y-94965420D01*
X181735786Y-94965419D01*
X181608562Y-94824123D01*
X181454741Y-94712365D01*
X181454740Y-94712364D01*
X181281042Y-94635029D01*
X181095069Y-94595500D01*
X181095067Y-94595500D01*
X180904933Y-94595500D01*
X180904931Y-94595500D01*
X180718957Y-94635029D01*
X180545259Y-94712364D01*
X180391437Y-94824124D01*
X180264213Y-94965420D01*
X180169146Y-95130079D01*
X180146431Y-95199991D01*
X180106993Y-95257667D01*
X180042635Y-95284865D01*
X179973788Y-95272950D01*
X179922313Y-95225706D01*
X179904500Y-95161673D01*
X179904500Y-94821325D01*
X179889966Y-94748261D01*
X179889966Y-94748260D01*
X179834601Y-94665399D01*
X179751740Y-94610034D01*
X179751739Y-94610033D01*
X179751738Y-94610033D01*
X179678675Y-94595500D01*
X179678674Y-94595500D01*
X178321326Y-94595500D01*
X178321325Y-94595500D01*
X178248261Y-94610033D01*
X178165399Y-94665399D01*
X178110033Y-94748261D01*
X178095500Y-94821325D01*
X178095500Y-96178674D01*
X175976899Y-96178674D01*
X175975500Y-96166030D01*
X175975500Y-92170298D01*
X175976097Y-92158145D01*
X175982813Y-92089948D01*
X175985821Y-92059400D01*
X175990563Y-92035563D01*
X176017585Y-91946477D01*
X176026887Y-91924019D01*
X176046950Y-91886482D01*
X176070776Y-91841904D01*
X176084269Y-91821709D01*
X176147171Y-91745061D01*
X176155316Y-91736075D01*
X178185993Y-89705398D01*
X178194990Y-89697243D01*
X178271713Y-89634280D01*
X178291911Y-89620785D01*
X178374029Y-89576893D01*
X178396474Y-89567597D01*
X178485566Y-89540572D01*
X178509404Y-89535831D01*
X178608248Y-89526096D01*
X178620400Y-89525500D01*
X186427511Y-89525500D01*
X186427626Y-89525490D01*
X186477574Y-89525491D01*
X186659590Y-89501531D01*
X186836922Y-89454017D01*
X187006535Y-89383764D01*
X187165527Y-89291972D01*
X187311178Y-89180213D01*
X187343008Y-89148382D01*
X187343012Y-89148380D01*
X187353799Y-89137592D01*
X187353802Y-89137591D01*
X187653980Y-88837411D01*
X187654013Y-88837393D01*
X187690312Y-88801092D01*
X187690313Y-88801093D01*
X187755220Y-88736184D01*
X187866980Y-88590533D01*
X187958773Y-88431540D01*
X188029027Y-88261926D01*
X188076541Y-88084592D01*
X188100501Y-87902574D01*
X188100500Y-87810780D01*
X188100500Y-87784156D01*
X188100500Y-85982695D01*
X188100500Y-85972656D01*
X188100490Y-85972536D01*
X188100491Y-85922426D01*
X188076531Y-85740410D01*
X188029017Y-85563078D01*
X187958764Y-85393465D01*
X187866972Y-85234473D01*
X187755213Y-85088822D01*
X187736054Y-85069663D01*
X187718828Y-85052436D01*
X187718823Y-85052430D01*
X187655249Y-84988856D01*
X187564396Y-84898003D01*
X187564379Y-84897972D01*
X187464054Y-84797649D01*
X187464046Y-84797642D01*
X187461184Y-84794780D01*
X187441489Y-84779668D01*
X187318750Y-84685488D01*
X187318745Y-84685484D01*
X187315533Y-84683020D01*
X187312028Y-84680996D01*
X187312023Y-84680993D01*
X187160051Y-84593254D01*
X187160050Y-84593253D01*
X187156540Y-84591227D01*
X187111026Y-84572375D01*
X186990676Y-84522526D01*
X186990672Y-84522524D01*
X186986926Y-84520973D01*
X186983005Y-84519922D01*
X186983001Y-84519921D01*
X186813517Y-84474510D01*
X186813507Y-84474508D01*
X186809592Y-84473459D01*
X186805566Y-84472929D01*
X186805561Y-84472928D01*
X186631597Y-84450028D01*
X186631588Y-84450027D01*
X186627574Y-84449499D01*
X186623519Y-84449499D01*
X186535780Y-84449500D01*
X185108626Y-84449500D01*
X185080533Y-84446275D01*
X185073585Y-84444659D01*
X185071905Y-84444268D01*
X184980712Y-84441329D01*
X184966410Y-84440036D01*
X184930905Y-84434739D01*
X184911272Y-84430152D01*
X184884433Y-84421529D01*
X184873006Y-84417227D01*
X184864525Y-84413547D01*
X184806906Y-84388546D01*
X184702281Y-84343126D01*
X184698995Y-84341726D01*
X184686297Y-84339162D01*
X184663397Y-84332179D01*
X184618710Y-84313670D01*
X184475000Y-84294749D01*
X184331290Y-84313670D01*
X184197377Y-84369137D01*
X184082379Y-84457379D01*
X183994137Y-84572377D01*
X183938670Y-84706290D01*
X183919749Y-84850000D01*
X183938031Y-84988856D01*
X183938670Y-84993709D01*
X183971916Y-85073974D01*
X183973604Y-85078048D01*
X183981073Y-85147517D01*
X183949798Y-85209996D01*
X183889708Y-85245648D01*
X183859043Y-85249500D01*
X169590957Y-85249500D01*
X169523918Y-85229815D01*
X169478163Y-85177011D01*
X169468219Y-85107853D01*
X169476396Y-85078048D01*
X169476601Y-85077554D01*
X169511330Y-84993709D01*
X169530250Y-84850000D01*
X169530024Y-84848287D01*
X169526959Y-84825000D01*
X169511330Y-84706291D01*
X169455861Y-84572375D01*
X169367621Y-84457379D01*
X169252625Y-84369139D01*
X169252624Y-84369138D01*
X169252622Y-84369137D01*
X169118709Y-84313670D01*
X168975000Y-84294749D01*
X168831289Y-84313670D01*
X168788598Y-84331352D01*
X168765073Y-84338459D01*
X168752197Y-84340990D01*
X168657326Y-84380034D01*
X168652162Y-84382026D01*
X168599448Y-84401016D01*
X168584690Y-84405319D01*
X168559201Y-84411065D01*
X168542260Y-84413670D01*
X168494416Y-84417669D01*
X168485715Y-84418089D01*
X168388168Y-84419369D01*
X168376207Y-84421872D01*
X168350812Y-84424500D01*
X167483568Y-84424500D01*
X167416529Y-84404815D01*
X167370774Y-84352011D01*
X167360830Y-84282853D01*
X167385191Y-84225015D01*
X167387623Y-84221844D01*
X167390861Y-84217625D01*
X167446330Y-84083709D01*
X167465250Y-83940000D01*
X167452979Y-83846796D01*
X167463744Y-83777764D01*
X167510124Y-83725508D01*
X167559731Y-83707674D01*
X167630709Y-83698330D01*
X167764625Y-83642861D01*
X167879621Y-83554621D01*
X167967861Y-83439625D01*
X168023330Y-83305709D01*
X168042250Y-83162000D01*
X168032861Y-83090685D01*
X168043626Y-83021650D01*
X168090006Y-82969394D01*
X168155800Y-82950500D01*
X181816378Y-82950500D01*
X181844464Y-82953723D01*
X181853096Y-82955731D01*
X181944289Y-82958668D01*
X181958580Y-82959960D01*
X181994086Y-82965257D01*
X182013715Y-82969842D01*
X182023728Y-82973058D01*
X182040574Y-82978471D01*
X182051998Y-82982773D01*
X182118095Y-83011453D01*
X182163794Y-83031291D01*
X182222718Y-83056871D01*
X182225974Y-83058258D01*
X182238679Y-83060824D01*
X182261569Y-83067805D01*
X182306291Y-83086330D01*
X182433280Y-83103048D01*
X182449999Y-83105250D01*
X182449999Y-83105249D01*
X182450000Y-83105250D01*
X182593709Y-83086330D01*
X182727625Y-83030861D01*
X182842621Y-82942621D01*
X182930861Y-82827625D01*
X182986330Y-82693709D01*
X183005250Y-82550000D01*
X182986330Y-82406291D01*
X182930861Y-82272375D01*
X182842621Y-82157379D01*
X182727625Y-82069139D01*
X182727624Y-82069138D01*
X182727622Y-82069137D01*
X182593709Y-82013670D01*
X182450000Y-81994749D01*
X182306289Y-82013670D01*
X182258961Y-82033273D01*
X182237754Y-82039902D01*
X182222572Y-82043189D01*
X182188239Y-82058094D01*
X182118134Y-82088528D01*
X182102967Y-82095109D01*
X182051991Y-82117227D01*
X182040566Y-82121529D01*
X182033211Y-82123892D01*
X182013724Y-82130153D01*
X181994092Y-82134739D01*
X181958587Y-82140036D01*
X181944285Y-82141329D01*
X181853094Y-82144268D01*
X181853095Y-82144268D01*
X181843149Y-82146497D01*
X181816030Y-82149500D01*
X162270299Y-82149500D01*
X162258146Y-82148903D01*
X162246166Y-82147723D01*
X162159402Y-82139178D01*
X162135563Y-82134436D01*
X162046477Y-82107414D01*
X162024019Y-82098112D01*
X161941912Y-82054227D01*
X161921701Y-82040723D01*
X161865095Y-81994268D01*
X161845071Y-81977835D01*
X161836055Y-81969663D01*
X156540012Y-76673619D01*
X156506527Y-76612296D01*
X156511511Y-76542604D01*
X156553383Y-76486671D01*
X156618847Y-76462254D01*
X156663676Y-76467273D01*
X156670651Y-76469389D01*
X156693114Y-76478693D01*
X156783868Y-76527202D01*
X156804079Y-76540706D01*
X156885423Y-76607462D01*
X156888281Y-76609807D01*
X156897298Y-76617980D01*
X157868455Y-77589137D01*
X158834216Y-78554897D01*
X158834227Y-78554911D01*
X158847940Y-78568623D01*
X158847954Y-78568649D01*
X158884262Y-78604957D01*
X158946853Y-78667548D01*
X159087305Y-78775318D01*
X159240621Y-78863833D01*
X159404180Y-78931579D01*
X159575182Y-78977396D01*
X159750702Y-79000501D01*
X159839219Y-79000500D01*
X168557484Y-79000500D01*
X168590164Y-79004884D01*
X168590915Y-79005089D01*
X168592906Y-79005633D01*
X168669000Y-79010998D01*
X168694504Y-79015509D01*
X168705081Y-79018547D01*
X168728922Y-79028168D01*
X168758123Y-79043649D01*
X168763191Y-79046492D01*
X168837264Y-79090363D01*
X168838437Y-79091033D01*
X168846890Y-79095786D01*
X168848084Y-79096434D01*
X168847783Y-79096264D01*
X168848976Y-79096878D01*
X168857672Y-79101285D01*
X168858874Y-79101871D01*
X168963395Y-79152102D01*
X168969269Y-79154834D01*
X168969285Y-79154841D01*
X168969405Y-79154897D01*
X168970348Y-79155321D01*
X168976124Y-79157822D01*
X168976152Y-79157827D01*
X168976153Y-79157828D01*
X168979507Y-79158505D01*
X168986481Y-79159915D01*
X169009378Y-79166898D01*
X169056291Y-79186330D01*
X169200000Y-79205250D01*
X169343709Y-79186330D01*
X169477625Y-79130861D01*
X169592621Y-79042621D01*
X169680861Y-78927625D01*
X169736330Y-78793709D01*
X169737106Y-78787812D01*
X169765372Y-78723916D01*
X169823696Y-78685444D01*
X169843860Y-78681058D01*
X169849998Y-78680249D01*
X169850000Y-78680250D01*
X169993709Y-78661330D01*
X170127625Y-78605861D01*
X170242621Y-78517621D01*
X170330861Y-78402625D01*
X170386330Y-78268709D01*
X170405250Y-78125000D01*
X170386330Y-77981291D01*
X170330861Y-77847375D01*
X170242621Y-77732379D01*
X170127625Y-77644139D01*
X170127624Y-77644138D01*
X170127622Y-77644137D01*
X169993709Y-77588670D01*
X169850000Y-77569749D01*
X169706291Y-77588670D01*
X169653577Y-77610503D01*
X169634880Y-77616561D01*
X169628514Y-77618078D01*
X169617611Y-77620677D01*
X169513682Y-77668378D01*
X169507894Y-77671122D01*
X169507877Y-77671130D01*
X169507768Y-77671182D01*
X169506961Y-77671578D01*
X169502889Y-77673636D01*
X169502492Y-77673837D01*
X169502420Y-77673873D01*
X169502373Y-77673898D01*
X169432707Y-77709931D01*
X169424791Y-77713676D01*
X169397589Y-77725389D01*
X169375457Y-77732544D01*
X169354659Y-77737167D01*
X169334299Y-77739949D01*
X169252569Y-77744269D01*
X169246896Y-77745633D01*
X169245115Y-77746062D01*
X169216119Y-77749500D01*
X160289847Y-77749500D01*
X160289841Y-77749499D01*
X160220297Y-77749499D01*
X160208145Y-77748902D01*
X160099652Y-77738218D01*
X160075811Y-77733476D01*
X159977345Y-77703609D01*
X159954885Y-77694306D01*
X159864131Y-77645797D01*
X159843920Y-77632293D01*
X159759717Y-77563191D01*
X159750700Y-77555018D01*
X157694216Y-75498534D01*
X157694210Y-75498526D01*
X157679044Y-75483360D01*
X157679030Y-75483335D01*
X157632297Y-75436602D01*
X157578147Y-75382452D01*
X157573971Y-75379248D01*
X157504744Y-75326129D01*
X157437695Y-75274682D01*
X157284379Y-75186167D01*
X157257419Y-75175000D01*
X157124570Y-75119974D01*
X157124566Y-75119972D01*
X157120820Y-75118421D01*
X157116900Y-75117370D01*
X157116895Y-75117369D01*
X156953743Y-75073655D01*
X156953733Y-75073653D01*
X156949818Y-75072604D01*
X156945792Y-75072074D01*
X156945787Y-75072073D01*
X156778321Y-75050028D01*
X156778312Y-75050027D01*
X156774298Y-75049499D01*
X156770243Y-75049499D01*
X156685781Y-75049500D01*
X154701313Y-75049500D01*
X154634274Y-75029815D01*
X154588519Y-74977011D01*
X154578575Y-74907853D01*
X154586751Y-74878049D01*
X154592401Y-74864408D01*
X154611330Y-74818709D01*
X154630250Y-74675000D01*
X154611330Y-74531291D01*
X154591720Y-74483948D01*
X154585093Y-74462747D01*
X154581807Y-74447569D01*
X154581806Y-74447568D01*
X154581806Y-74447565D01*
X154545450Y-74363819D01*
X154536471Y-74343136D01*
X154507768Y-74276985D01*
X154503474Y-74265584D01*
X154494842Y-74238716D01*
X154490258Y-74219092D01*
X154484960Y-74183579D01*
X154483668Y-74169282D01*
X154483381Y-74160373D01*
X154480731Y-74078095D01*
X154478501Y-74068148D01*
X154475500Y-74041030D01*
X154475500Y-70523500D01*
X154495185Y-70456461D01*
X154547989Y-70410706D01*
X154599500Y-70399500D01*
X156920918Y-70399500D01*
X156985167Y-70417461D01*
X157026207Y-70442337D01*
X157032944Y-70446731D01*
X157056033Y-70462886D01*
X157062055Y-70467099D01*
X157073957Y-70476566D01*
X157108493Y-70507676D01*
X157145128Y-70567171D01*
X157149500Y-70599807D01*
X157149500Y-72166372D01*
X157146275Y-72194466D01*
X157144268Y-72203090D01*
X157141329Y-72294285D01*
X157140036Y-72308587D01*
X157134739Y-72344092D01*
X157130153Y-72363722D01*
X157121532Y-72390557D01*
X157117229Y-72401987D01*
X157088546Y-72468093D01*
X157043126Y-72572717D01*
X157041727Y-72576001D01*
X157039162Y-72588702D01*
X157032180Y-72611601D01*
X157013670Y-72656291D01*
X156994749Y-72800000D01*
X157013670Y-72943709D01*
X157069137Y-73077622D01*
X157069138Y-73077624D01*
X157069139Y-73077625D01*
X157157379Y-73192621D01*
X157272375Y-73280861D01*
X157272376Y-73280861D01*
X157272377Y-73280862D01*
X157278430Y-73283369D01*
X157406291Y-73336330D01*
X157550000Y-73355250D01*
X157693709Y-73336330D01*
X157827625Y-73280861D01*
X157942621Y-73192621D01*
X158030861Y-73077625D01*
X158086330Y-72943709D01*
X158105250Y-72800000D01*
X158086330Y-72656291D01*
X158066720Y-72608948D01*
X158060093Y-72587747D01*
X158056807Y-72572569D01*
X158056806Y-72572568D01*
X158056806Y-72572565D01*
X158013311Y-72472375D01*
X158011471Y-72468136D01*
X157982768Y-72401985D01*
X157978474Y-72390584D01*
X157969842Y-72363716D01*
X157965258Y-72344092D01*
X157959960Y-72308579D01*
X157958668Y-72294282D01*
X157955731Y-72203095D01*
X157953501Y-72193148D01*
X157950500Y-72166030D01*
X157950500Y-70523500D01*
X157970185Y-70456461D01*
X158022989Y-70410706D01*
X158074500Y-70399500D01*
X163025483Y-70399500D01*
X163078704Y-70399500D01*
X163090854Y-70400096D01*
X163162858Y-70407187D01*
X163179849Y-70408860D01*
X163203688Y-70413601D01*
X163283414Y-70437782D01*
X163305870Y-70447082D01*
X163334229Y-70462239D01*
X163379342Y-70486349D01*
X163399552Y-70499851D01*
X163462368Y-70551395D01*
X163468367Y-70556317D01*
X163477391Y-70564495D01*
X167777304Y-74864408D01*
X167797241Y-74890491D01*
X167798750Y-74893127D01*
X167869983Y-74974974D01*
X167881928Y-74991193D01*
X167913815Y-75042802D01*
X167919010Y-75052076D01*
X167954161Y-75121674D01*
X167954196Y-75121741D01*
X167954803Y-75122896D01*
X167959408Y-75131523D01*
X167960054Y-75132689D01*
X167959899Y-75132398D01*
X167960552Y-75133519D01*
X167965361Y-75141668D01*
X167966039Y-75142778D01*
X168020638Y-75231129D01*
X168021303Y-75232205D01*
X168032878Y-75249346D01*
X168034004Y-75250876D01*
X168047054Y-75267169D01*
X168056154Y-75277625D01*
X168136942Y-75370451D01*
X168142458Y-75376584D01*
X168142474Y-75376601D01*
X168142540Y-75376674D01*
X168143055Y-75377228D01*
X168148930Y-75383342D01*
X168148966Y-75383366D01*
X168150773Y-75385249D01*
X168156573Y-75392002D01*
X168157378Y-75392619D01*
X168157379Y-75392621D01*
X168272375Y-75480861D01*
X168272376Y-75480861D01*
X168272377Y-75480862D01*
X168302715Y-75493428D01*
X168406291Y-75536330D01*
X168550000Y-75555250D01*
X168693709Y-75536330D01*
X168827625Y-75480861D01*
X168942621Y-75392621D01*
X169030861Y-75277625D01*
X169086330Y-75143709D01*
X169105250Y-75000000D01*
X169086330Y-74856291D01*
X169030861Y-74722375D01*
X169026961Y-74717292D01*
X168942621Y-74607378D01*
X168939717Y-74605150D01*
X168928275Y-74593751D01*
X168831942Y-74509911D01*
X168817170Y-74497055D01*
X168805985Y-74488096D01*
X168801859Y-74484791D01*
X168801848Y-74484782D01*
X168800876Y-74484004D01*
X168799346Y-74482878D01*
X168782205Y-74471303D01*
X168691668Y-74415361D01*
X168690535Y-74414685D01*
X168682446Y-74409926D01*
X168681326Y-74409290D01*
X168681575Y-74409437D01*
X168680375Y-74408789D01*
X168671678Y-74404163D01*
X168670489Y-74403555D01*
X168602085Y-74369015D01*
X168592807Y-74363819D01*
X168565771Y-74347114D01*
X168541186Y-74331923D01*
X168524973Y-74319982D01*
X168443128Y-74248751D01*
X168438432Y-74245954D01*
X168414202Y-74227099D01*
X164164110Y-69977007D01*
X164164085Y-69976974D01*
X164146302Y-69959193D01*
X164146237Y-69959074D01*
X164046091Y-69858941D01*
X164046086Y-69858936D01*
X164043218Y-69856069D01*
X163892362Y-69740330D01*
X163888845Y-69738300D01*
X163888841Y-69738297D01*
X163731210Y-69647301D01*
X163731211Y-69647301D01*
X163727692Y-69645270D01*
X163723933Y-69643713D01*
X163555775Y-69574069D01*
X163555762Y-69574064D01*
X163552023Y-69572516D01*
X163548109Y-69571467D01*
X163548102Y-69571465D01*
X163372286Y-69524362D01*
X163372281Y-69524361D01*
X163368362Y-69523311D01*
X163364337Y-69522781D01*
X163364336Y-69522781D01*
X163183870Y-69499027D01*
X163183866Y-69499026D01*
X163179849Y-69498498D01*
X163175790Y-69498498D01*
X163175789Y-69498498D01*
X163084780Y-69498500D01*
X130992257Y-69498500D01*
X130959713Y-69494153D01*
X130956783Y-69493356D01*
X130848548Y-69485851D01*
X130828625Y-69482828D01*
X130769588Y-69468885D01*
X130759351Y-69465999D01*
X130685301Y-69441647D01*
X130684058Y-69441261D01*
X130674767Y-69438433D01*
X130673445Y-69438052D01*
X130673798Y-69438160D01*
X130672518Y-69437821D01*
X130663242Y-69435428D01*
X130661958Y-69435117D01*
X130560844Y-69411242D01*
X130560805Y-69411233D01*
X130559638Y-69410958D01*
X130558429Y-69410724D01*
X130558415Y-69410721D01*
X130540450Y-69407244D01*
X130540429Y-69407240D01*
X130539187Y-69407000D01*
X130537326Y-69406718D01*
X130536098Y-69406582D01*
X130536063Y-69406578D01*
X130517950Y-69404581D01*
X130517919Y-69404578D01*
X130516720Y-69404446D01*
X130515503Y-69404361D01*
X130515485Y-69404360D01*
X130380126Y-69394975D01*
X130371686Y-69394531D01*
X130371655Y-69394530D01*
X130371572Y-69394526D01*
X130370816Y-69394499D01*
X130362561Y-69394337D01*
X130362523Y-69394344D01*
X130359912Y-69394291D01*
X130351008Y-69393616D01*
X130346365Y-69394228D01*
X130330208Y-69394258D01*
X130184558Y-69404357D01*
X130184552Y-69404357D01*
X130183276Y-69404446D01*
X130182011Y-69404585D01*
X130181996Y-69404587D01*
X130163854Y-69406590D01*
X130163837Y-69406592D01*
X130162589Y-69406730D01*
X130160732Y-69407012D01*
X130159494Y-69407251D01*
X130159458Y-69407258D01*
X130141615Y-69410714D01*
X130141573Y-69410722D01*
X130140365Y-69410957D01*
X130139161Y-69411241D01*
X130139130Y-69411248D01*
X130036755Y-69435427D01*
X130035436Y-69435761D01*
X130026002Y-69438214D01*
X130024714Y-69438570D01*
X130025043Y-69438485D01*
X130023770Y-69438866D01*
X130014703Y-69441645D01*
X130013455Y-69442048D01*
X129940648Y-69465998D01*
X129930414Y-69468884D01*
X129871371Y-69482829D01*
X129851445Y-69485852D01*
X129743218Y-69493355D01*
X129737933Y-69494696D01*
X129707454Y-69498500D01*
X128931452Y-69498500D01*
X128931409Y-69498505D01*
X128931323Y-69498509D01*
X128870150Y-69498509D01*
X128866135Y-69499037D01*
X128866127Y-69499038D01*
X128685666Y-69522794D01*
X128685660Y-69522795D01*
X128681635Y-69523325D01*
X128677713Y-69524375D01*
X128677707Y-69524377D01*
X128501896Y-69571483D01*
X128501887Y-69571485D01*
X128497972Y-69572535D01*
X128494229Y-69574084D01*
X128494221Y-69574088D01*
X128326127Y-69643713D01*
X128322303Y-69645297D01*
X128318785Y-69647327D01*
X128318781Y-69647330D01*
X128161217Y-69738297D01*
X128157635Y-69740365D01*
X128154419Y-69742832D01*
X128154411Y-69742838D01*
X128009998Y-69853648D01*
X128009992Y-69853653D01*
X128006785Y-69856114D01*
X128003928Y-69858970D01*
X128003913Y-69858984D01*
X127939559Y-69923338D01*
X127897620Y-69965276D01*
X122885663Y-74977233D01*
X122885632Y-74977249D01*
X122784976Y-75077908D01*
X122784969Y-75077915D01*
X122782107Y-75080778D01*
X122779645Y-75083985D01*
X122779634Y-75083999D01*
X122668821Y-75228418D01*
X122668816Y-75228424D01*
X122666357Y-75231630D01*
X122664340Y-75235122D01*
X122664333Y-75235134D01*
X122573319Y-75392779D01*
X122573311Y-75392793D01*
X122571288Y-75396299D01*
X122569733Y-75400051D01*
X122569731Y-75400057D01*
X122500077Y-75568220D01*
X122500073Y-75568231D01*
X122498525Y-75571969D01*
X122497477Y-75575879D01*
X122497475Y-75575886D01*
X122452808Y-75742595D01*
X122449315Y-75755633D01*
X122448785Y-75759658D01*
X122448784Y-75759664D01*
X122425028Y-75940126D01*
X122425027Y-75940134D01*
X122424499Y-75944149D01*
X122424499Y-75948200D01*
X122424499Y-75948202D01*
X122424500Y-75996480D01*
X122424500Y-77157744D01*
X122420154Y-77190286D01*
X122419356Y-77193219D01*
X122411852Y-77301445D01*
X122408829Y-77321370D01*
X122394881Y-77380426D01*
X122391995Y-77390660D01*
X122367647Y-77464701D01*
X122367263Y-77465932D01*
X122364565Y-77474768D01*
X122364208Y-77475999D01*
X122364292Y-77475730D01*
X122363941Y-77477052D01*
X122361427Y-77486755D01*
X122361102Y-77488096D01*
X122337249Y-77589125D01*
X122337240Y-77589165D01*
X122336957Y-77590365D01*
X122336722Y-77591573D01*
X122336714Y-77591615D01*
X122333258Y-77609458D01*
X122333251Y-77609494D01*
X122333012Y-77610732D01*
X122332730Y-77612589D01*
X122330446Y-77633276D01*
X122320976Y-77769859D01*
X122320533Y-77778247D01*
X122320505Y-77779017D01*
X122320337Y-77787449D01*
X122320344Y-77787487D01*
X122320290Y-77790124D01*
X122319617Y-77798994D01*
X122338670Y-77943709D01*
X122394137Y-78077622D01*
X122394138Y-78077624D01*
X122394139Y-78077625D01*
X122482379Y-78192621D01*
X122597375Y-78280861D01*
X122731291Y-78336330D01*
X122875000Y-78355250D01*
X123018709Y-78336330D01*
X123152625Y-78280861D01*
X123267621Y-78192621D01*
X123355861Y-78077625D01*
X123411330Y-77943709D01*
X123430250Y-77800000D01*
X123429772Y-77796377D01*
X123429743Y-77780255D01*
X123429022Y-77769863D01*
X123429023Y-77769860D01*
X123419554Y-77633289D01*
X123417989Y-77619099D01*
X123417420Y-77613935D01*
X123417419Y-77613931D01*
X123417280Y-77612666D01*
X123416995Y-77610786D01*
X123413039Y-77590351D01*
X123388571Y-77486756D01*
X123388571Y-77486755D01*
X123388239Y-77485443D01*
X123385783Y-77476001D01*
X123385432Y-77474734D01*
X123385510Y-77475035D01*
X123385123Y-77473743D01*
X123382353Y-77464705D01*
X123381959Y-77463485D01*
X123358002Y-77390656D01*
X123355117Y-77380424D01*
X123341167Y-77321362D01*
X123338146Y-77301451D01*
X123330643Y-77193219D01*
X123329300Y-77187924D01*
X123325499Y-77157466D01*
X123325499Y-76045298D01*
X123326096Y-76033147D01*
X123326777Y-76026227D01*
X123334861Y-75944149D01*
X123339598Y-75920330D01*
X123363783Y-75840598D01*
X123373081Y-75818154D01*
X123412349Y-75744684D01*
X123425843Y-75724487D01*
X123482527Y-75655415D01*
X123490672Y-75646430D01*
X127176529Y-71960573D01*
X134833286Y-71960573D01*
X134843170Y-72117664D01*
X134855478Y-72155544D01*
X134891812Y-72267369D01*
X134976155Y-72400272D01*
X135090899Y-72508024D01*
X135214549Y-72576001D01*
X135228837Y-72583856D01*
X135381295Y-72623000D01*
X135381297Y-72623000D01*
X135495305Y-72623000D01*
X135499200Y-72623000D01*
X135616165Y-72608224D01*
X135762518Y-72550279D01*
X135889863Y-72457757D01*
X135990197Y-72336474D01*
X136057218Y-72194048D01*
X136086713Y-72039429D01*
X136086636Y-72038213D01*
X136076829Y-71882335D01*
X136047818Y-71793048D01*
X136028188Y-71732631D01*
X135943845Y-71599728D01*
X135829101Y-71491976D01*
X135691162Y-71416143D01*
X135538705Y-71377000D01*
X135538703Y-71377000D01*
X135420800Y-71377000D01*
X135416941Y-71377487D01*
X135416933Y-71377488D01*
X135303834Y-71391775D01*
X135157484Y-71449719D01*
X135030135Y-71542244D01*
X134929804Y-71663523D01*
X134862782Y-71805952D01*
X134833286Y-71960573D01*
X127176529Y-71960573D01*
X128572351Y-70564751D01*
X128581343Y-70556601D01*
X128650487Y-70499856D01*
X128670691Y-70486357D01*
X128744162Y-70447087D01*
X128766607Y-70437791D01*
X128846320Y-70413611D01*
X128870160Y-70408870D01*
X128959247Y-70400096D01*
X128971399Y-70399500D01*
X129024517Y-70399500D01*
X129707749Y-70399500D01*
X129740285Y-70403845D01*
X129743219Y-70404643D01*
X129851451Y-70412146D01*
X129871362Y-70415167D01*
X129930430Y-70429118D01*
X129940656Y-70432002D01*
X130014705Y-70456353D01*
X130015980Y-70456751D01*
X130025035Y-70459510D01*
X130026262Y-70459863D01*
X130026001Y-70459783D01*
X130027341Y-70460139D01*
X130036756Y-70462571D01*
X130038056Y-70462886D01*
X130137455Y-70486355D01*
X130140351Y-70487039D01*
X130160786Y-70490995D01*
X130162666Y-70491280D01*
X130163931Y-70491419D01*
X130163935Y-70491420D01*
X130169099Y-70491989D01*
X130183289Y-70493554D01*
X130319860Y-70503023D01*
X130328247Y-70503466D01*
X130329017Y-70503494D01*
X130337449Y-70503662D01*
X130337497Y-70503652D01*
X130340100Y-70503706D01*
X130348995Y-70504381D01*
X130349995Y-70504249D01*
X130350000Y-70504250D01*
X130353622Y-70503772D01*
X130369753Y-70503743D01*
X130380139Y-70503022D01*
X130380140Y-70503023D01*
X130516710Y-70493554D01*
X130537332Y-70491280D01*
X130539212Y-70490995D01*
X130559647Y-70487039D01*
X130663242Y-70462571D01*
X130664555Y-70462239D01*
X130673997Y-70459783D01*
X130675264Y-70459432D01*
X130674963Y-70459510D01*
X130676234Y-70459129D01*
X130685293Y-70456354D01*
X130686519Y-70455957D01*
X130746680Y-70436167D01*
X130759384Y-70431989D01*
X130769565Y-70429118D01*
X130828630Y-70415167D01*
X130848543Y-70412146D01*
X130956781Y-70404643D01*
X130962071Y-70403301D01*
X130992540Y-70399500D01*
X133711335Y-70399500D01*
X133778374Y-70419185D01*
X133824129Y-70471989D01*
X133834273Y-70539683D01*
X133822060Y-70632452D01*
X133819750Y-70650000D01*
X133838670Y-70793709D01*
X133894137Y-70927622D01*
X133894138Y-70927624D01*
X133894139Y-70927625D01*
X133982379Y-71042621D01*
X134097375Y-71130861D01*
X134231291Y-71186330D01*
X134375000Y-71205250D01*
X134518709Y-71186330D01*
X134576455Y-71162410D01*
X134593022Y-71156879D01*
X134611605Y-71152101D01*
X134611604Y-71152100D01*
X134717327Y-71101284D01*
X134718503Y-71100694D01*
X134727214Y-71096264D01*
X134728423Y-71095626D01*
X134728107Y-71095786D01*
X134729276Y-71095136D01*
X134737730Y-71090364D01*
X134738866Y-71089699D01*
X134797517Y-71054954D01*
X134811837Y-71046472D01*
X134816835Y-71043670D01*
X134846076Y-71028167D01*
X134869922Y-71018544D01*
X134880496Y-71015507D01*
X134905997Y-71010998D01*
X134982094Y-71005633D01*
X134987224Y-71004327D01*
X135017795Y-71000500D01*
X136805274Y-71000500D01*
X136805277Y-71000501D01*
X136854702Y-71000500D01*
X136866852Y-71001096D01*
X136899664Y-71004328D01*
X136975347Y-71011781D01*
X136999188Y-71016523D01*
X137054585Y-71033326D01*
X137097657Y-71046391D01*
X137120114Y-71055693D01*
X137210868Y-71104202D01*
X137231079Y-71117706D01*
X137314698Y-71186329D01*
X137315281Y-71186807D01*
X137324298Y-71194980D01*
X137805151Y-71675833D01*
X137805175Y-71675865D01*
X137820936Y-71691624D01*
X137820998Y-71691738D01*
X137857259Y-71727994D01*
X137857259Y-71727995D01*
X137919853Y-71790581D01*
X138060309Y-71898341D01*
X138213627Y-71986847D01*
X138257021Y-72004819D01*
X138311425Y-72048654D01*
X138333495Y-72114947D01*
X138316220Y-72182647D01*
X138297255Y-72207062D01*
X138081374Y-72422943D01*
X138081347Y-72422957D01*
X137985331Y-72518973D01*
X137985323Y-72518981D01*
X137982452Y-72521853D01*
X137979982Y-72525071D01*
X137979975Y-72525080D01*
X137877146Y-72659093D01*
X137877141Y-72659098D01*
X137874682Y-72662305D01*
X137872661Y-72665805D01*
X137872658Y-72665810D01*
X137788194Y-72812109D01*
X137788190Y-72812116D01*
X137786167Y-72815621D01*
X137784617Y-72819361D01*
X137784615Y-72819367D01*
X137719974Y-72975429D01*
X137719970Y-72975437D01*
X137718421Y-72979180D01*
X137717372Y-72983095D01*
X137717369Y-72983104D01*
X137673655Y-73146256D01*
X137673652Y-73146269D01*
X137672604Y-73150182D01*
X137672074Y-73154204D01*
X137672073Y-73154212D01*
X137650028Y-73321678D01*
X137650027Y-73321688D01*
X137649499Y-73325702D01*
X137649499Y-73329754D01*
X137649499Y-73329756D01*
X137649500Y-73372194D01*
X137649500Y-73457473D01*
X137645114Y-73490160D01*
X137644364Y-73492901D01*
X137638997Y-73569003D01*
X137634485Y-73594510D01*
X137631451Y-73605073D01*
X137621827Y-73628921D01*
X137607473Y-73655997D01*
X137558681Y-73706008D01*
X137555998Y-73707473D01*
X137528929Y-73721824D01*
X137505081Y-73731449D01*
X137494508Y-73734486D01*
X137468999Y-73738998D01*
X137392897Y-73744366D01*
X137387774Y-73745670D01*
X137357193Y-73749500D01*
X130650329Y-73749500D01*
X130650218Y-73749508D01*
X130604758Y-73749508D01*
X130604756Y-73749508D01*
X130600703Y-73749508D01*
X130596688Y-73750036D01*
X130596681Y-73750037D01*
X130429215Y-73772083D01*
X130429209Y-73772084D01*
X130425184Y-73772614D01*
X130421262Y-73773664D01*
X130421256Y-73773666D01*
X130258107Y-73817379D01*
X130258098Y-73817381D01*
X130254183Y-73818431D01*
X130250440Y-73819981D01*
X130250432Y-73819984D01*
X130094372Y-73884624D01*
X130094366Y-73884626D01*
X130090626Y-73886176D01*
X130087121Y-73888199D01*
X130087114Y-73888203D01*
X129945700Y-73969847D01*
X129937310Y-73974691D01*
X129934097Y-73977156D01*
X129934093Y-73977159D01*
X129800070Y-74079996D01*
X129800061Y-74080003D01*
X129796860Y-74082460D01*
X129784302Y-74095016D01*
X129784290Y-74095027D01*
X129723799Y-74155519D01*
X129695018Y-74184297D01*
X129695012Y-74184305D01*
X129406491Y-74472825D01*
X129380286Y-74492832D01*
X129377814Y-74494242D01*
X129320206Y-74544260D01*
X129298978Y-74559107D01*
X129289363Y-74564431D01*
X129265694Y-74574489D01*
X129234097Y-74584191D01*
X129228460Y-74585777D01*
X129197321Y-74593751D01*
X129145108Y-74607121D01*
X129145058Y-74607134D01*
X129143832Y-74607470D01*
X129134670Y-74610031D01*
X129133401Y-74610406D01*
X129133719Y-74610318D01*
X129132407Y-74610738D01*
X129122968Y-74613824D01*
X129121706Y-74614259D01*
X129012228Y-74652668D01*
X129005323Y-74655199D01*
X129004341Y-74655575D01*
X128999254Y-74657595D01*
X128990417Y-74663459D01*
X128969313Y-74674695D01*
X128922379Y-74694136D01*
X128922375Y-74694138D01*
X128922375Y-74694139D01*
X128839342Y-74757853D01*
X128807379Y-74782379D01*
X128719137Y-74897377D01*
X128663670Y-75031290D01*
X128644749Y-75175000D01*
X128663670Y-75318709D01*
X128719137Y-75452622D01*
X128719138Y-75452624D01*
X128719139Y-75452625D01*
X128807379Y-75567621D01*
X128922375Y-75655861D01*
X129056291Y-75711330D01*
X129181079Y-75727758D01*
X129199999Y-75730250D01*
X129199999Y-75730249D01*
X129200000Y-75730250D01*
X129343709Y-75711330D01*
X129477625Y-75655861D01*
X129592621Y-75567621D01*
X129680861Y-75452625D01*
X129704782Y-75394871D01*
X129712579Y-75379258D01*
X129722344Y-75362734D01*
X129761170Y-75252036D01*
X129761217Y-75251891D01*
X129761607Y-75250722D01*
X129764634Y-75241423D01*
X129765039Y-75240111D01*
X129764927Y-75240454D01*
X129765284Y-75239198D01*
X129767876Y-75229887D01*
X129768212Y-75228604D01*
X129787889Y-75151729D01*
X129789227Y-75146504D01*
X129790801Y-75140910D01*
X129800506Y-75109300D01*
X129810565Y-75085628D01*
X129815889Y-75076016D01*
X129830731Y-75054799D01*
X129841148Y-75042802D01*
X129880751Y-74997191D01*
X129883455Y-74992640D01*
X129902366Y-74968314D01*
X130225633Y-74645047D01*
X130234630Y-74636892D01*
X130318931Y-74567709D01*
X130339135Y-74554210D01*
X130429895Y-74505699D01*
X130452333Y-74496405D01*
X130550824Y-74466529D01*
X130574643Y-74461792D01*
X130683251Y-74451096D01*
X130695396Y-74450500D01*
X130744723Y-74450501D01*
X130744726Y-74450500D01*
X136333863Y-74450500D01*
X136400902Y-74470185D01*
X136446657Y-74522989D01*
X136456601Y-74592147D01*
X136427576Y-74655703D01*
X136409349Y-74672876D01*
X136400079Y-74679988D01*
X136400060Y-74680004D01*
X136396860Y-74682460D01*
X136384302Y-74695016D01*
X136384290Y-74695027D01*
X136323809Y-74755509D01*
X136295018Y-74784297D01*
X136295012Y-74784305D01*
X125474364Y-85604952D01*
X125465347Y-85613125D01*
X125381072Y-85682286D01*
X125360860Y-85695791D01*
X125270112Y-85744296D01*
X125247655Y-85753598D01*
X125225759Y-85760240D01*
X125157776Y-85780862D01*
X125149188Y-85783467D01*
X125125345Y-85788209D01*
X125016754Y-85798902D01*
X125004602Y-85799499D01*
X124935159Y-85799499D01*
X124935153Y-85799500D01*
X124717527Y-85799500D01*
X124684842Y-85795115D01*
X124682096Y-85794364D01*
X124605995Y-85788998D01*
X124580483Y-85784485D01*
X124569921Y-85781451D01*
X124546074Y-85771827D01*
X124516883Y-85756351D01*
X124511776Y-85753487D01*
X124437718Y-85709626D01*
X124436549Y-85708959D01*
X124428104Y-85704209D01*
X124426952Y-85703585D01*
X124427241Y-85703747D01*
X124426051Y-85703135D01*
X124417339Y-85698720D01*
X124416119Y-85698126D01*
X124311600Y-85647896D01*
X124305542Y-85645078D01*
X124304672Y-85644690D01*
X124298869Y-85642176D01*
X124298847Y-85642171D01*
X124298846Y-85642171D01*
X124288505Y-85640081D01*
X124265622Y-85633101D01*
X124218709Y-85613670D01*
X124185235Y-85609263D01*
X124075000Y-85594749D01*
X123931290Y-85613670D01*
X123797377Y-85669137D01*
X123682379Y-85757379D01*
X123594137Y-85872377D01*
X123538670Y-86006290D01*
X123519749Y-86150000D01*
X123538670Y-86293709D01*
X123594137Y-86427622D01*
X123594138Y-86427624D01*
X123594139Y-86427625D01*
X123682379Y-86542621D01*
X123797375Y-86630861D01*
X123797376Y-86630861D01*
X123797377Y-86630862D01*
X123798413Y-86631291D01*
X123931291Y-86686330D01*
X124075000Y-86705250D01*
X124218709Y-86686330D01*
X124276455Y-86662410D01*
X124293022Y-86656879D01*
X124311605Y-86652101D01*
X124354901Y-86631290D01*
X124417327Y-86601284D01*
X124418503Y-86600694D01*
X124427214Y-86596264D01*
X124428423Y-86595626D01*
X124428107Y-86595786D01*
X124429276Y-86595136D01*
X124437730Y-86590364D01*
X124438866Y-86589699D01*
X124496325Y-86555660D01*
X124511837Y-86546472D01*
X124516835Y-86543670D01*
X124546076Y-86528167D01*
X124569922Y-86518544D01*
X124580496Y-86515507D01*
X124605997Y-86510998D01*
X124682094Y-86505633D01*
X124687224Y-86504327D01*
X124717795Y-86500500D01*
X125050959Y-86500500D01*
X125051060Y-86500490D01*
X125099297Y-86500492D01*
X125274816Y-86477386D01*
X125445817Y-86431569D01*
X125609374Y-86363824D01*
X125762690Y-86275309D01*
X125903140Y-86167540D01*
X125912454Y-86158225D01*
X125912461Y-86158220D01*
X125924375Y-86146305D01*
X125924377Y-86146305D01*
X125992286Y-86078396D01*
X126004986Y-86065697D01*
X126004986Y-86065696D01*
X126015186Y-86055497D01*
X126015193Y-86055487D01*
X126857159Y-85213521D01*
X126918480Y-85180038D01*
X126988172Y-85185022D01*
X127044105Y-85226894D01*
X127067777Y-85285018D01*
X127088670Y-85443709D01*
X127144137Y-85577622D01*
X127144138Y-85577624D01*
X127144139Y-85577625D01*
X127232379Y-85692621D01*
X127347375Y-85780861D01*
X127347376Y-85780861D01*
X127347377Y-85780862D01*
X127356124Y-85784485D01*
X127481291Y-85836330D01*
X127606079Y-85852758D01*
X127624999Y-85855250D01*
X127624999Y-85855249D01*
X127625000Y-85855250D01*
X127768709Y-85836330D01*
X127902625Y-85780861D01*
X128017621Y-85692621D01*
X128105861Y-85577625D01*
X128161330Y-85443709D01*
X128180250Y-85300000D01*
X128178099Y-85283668D01*
X128176081Y-85268336D01*
X128175960Y-85267426D01*
X128174980Y-85246785D01*
X128175022Y-85245624D01*
X128164980Y-85183613D01*
X128164456Y-85180038D01*
X128161330Y-85156291D01*
X128161328Y-85156287D01*
X128160753Y-85151914D01*
X128158440Y-85144635D01*
X128152678Y-85119177D01*
X128152674Y-85119165D01*
X128152248Y-85117279D01*
X128151435Y-85114501D01*
X128140697Y-85084773D01*
X128139915Y-85082967D01*
X128139730Y-85082500D01*
X128133301Y-85012926D01*
X128165506Y-84950922D01*
X128167258Y-84949133D01*
X137235993Y-75880398D01*
X137244990Y-75872243D01*
X137321713Y-75809280D01*
X137341911Y-75795785D01*
X137424029Y-75751893D01*
X137446474Y-75742597D01*
X137535566Y-75715572D01*
X137559404Y-75710831D01*
X137658248Y-75701096D01*
X137670400Y-75700500D01*
X137721792Y-75700500D01*
X147794115Y-75700500D01*
X147861154Y-75720185D01*
X147906909Y-75772989D01*
X147916853Y-75842147D01*
X147909762Y-75869238D01*
X147902349Y-75888400D01*
X147880193Y-75948202D01*
X147876594Y-75957917D01*
X147872265Y-75968162D01*
X147859972Y-75993959D01*
X147849280Y-76012204D01*
X147831207Y-76037765D01*
X147820961Y-76050407D01*
X147760969Y-76115221D01*
X147755949Y-76123227D01*
X147738580Y-76145025D01*
X146896018Y-76987588D01*
X146895989Y-76987603D01*
X146797642Y-77085953D01*
X146797635Y-77085960D01*
X146794780Y-77088816D01*
X146792319Y-77092022D01*
X146792313Y-77092030D01*
X146685488Y-77231249D01*
X146685479Y-77231261D01*
X146683020Y-77234467D01*
X146681001Y-77237963D01*
X146680993Y-77237976D01*
X146593254Y-77389948D01*
X146593250Y-77389955D01*
X146591227Y-77393460D01*
X146589677Y-77397200D01*
X146589675Y-77397206D01*
X146522526Y-77559323D01*
X146522524Y-77559329D01*
X146520973Y-77563074D01*
X146519923Y-77566989D01*
X146519921Y-77566998D01*
X146474510Y-77736482D01*
X146474507Y-77736495D01*
X146473459Y-77740408D01*
X146472929Y-77744430D01*
X146472928Y-77744438D01*
X146450028Y-77918402D01*
X146450027Y-77918412D01*
X146449499Y-77922426D01*
X146449499Y-77926478D01*
X146449499Y-77926480D01*
X146449500Y-77982695D01*
X146449499Y-84486228D01*
X146449500Y-84486233D01*
X146449500Y-84588434D01*
X146456346Y-84609507D01*
X146460886Y-84628418D01*
X146464353Y-84650302D01*
X146474412Y-84670044D01*
X146481858Y-84688020D01*
X146488704Y-84709090D01*
X146501726Y-84727014D01*
X146511889Y-84743599D01*
X146521947Y-84763339D01*
X146521949Y-84763341D01*
X146521950Y-84763342D01*
X146538283Y-84779675D01*
X146538296Y-84779690D01*
X146868758Y-85110151D01*
X146886341Y-85132293D01*
X146891027Y-85139819D01*
X146951078Y-85203869D01*
X146953432Y-85206379D01*
X146962628Y-85217402D01*
X146983524Y-85245624D01*
X146983988Y-85246250D01*
X146994628Y-85263376D01*
X147005171Y-85283900D01*
X147007511Y-85288456D01*
X147012547Y-85299576D01*
X147039010Y-85366604D01*
X147080875Y-85472701D01*
X147082182Y-85475950D01*
X147089368Y-85486779D01*
X147100608Y-85507888D01*
X147119139Y-85552625D01*
X147207379Y-85667621D01*
X147322375Y-85755861D01*
X147322376Y-85755861D01*
X147322377Y-85755862D01*
X147332947Y-85760240D01*
X147456291Y-85811330D01*
X147600000Y-85830250D01*
X147743709Y-85811330D01*
X147877625Y-85755861D01*
X147992621Y-85667621D01*
X148080861Y-85552625D01*
X148136330Y-85418709D01*
X148155250Y-85275000D01*
X148154154Y-85266679D01*
X148151386Y-85245648D01*
X148136330Y-85131291D01*
X148093428Y-85027715D01*
X148080862Y-84997377D01*
X148080861Y-84997376D01*
X148080861Y-84997375D01*
X147992621Y-84882379D01*
X147904380Y-84814668D01*
X147877624Y-84794138D01*
X147830295Y-84774534D01*
X147810610Y-84764224D01*
X147797553Y-84755815D01*
X147691645Y-84714025D01*
X147624577Y-84687547D01*
X147613456Y-84682511D01*
X147610501Y-84680993D01*
X147588376Y-84669628D01*
X147571250Y-84658988D01*
X147559521Y-84650304D01*
X147542402Y-84637628D01*
X147531379Y-84628432D01*
X147464818Y-84566026D01*
X147456205Y-84560567D01*
X147434907Y-84543514D01*
X147286819Y-84395426D01*
X147253334Y-84334103D01*
X147250500Y-84307745D01*
X147250500Y-78020298D01*
X147251097Y-78008145D01*
X147257443Y-77943709D01*
X147260821Y-77909400D01*
X147265563Y-77885563D01*
X147277146Y-77847377D01*
X147292586Y-77796473D01*
X147301887Y-77774019D01*
X147304110Y-77769860D01*
X147345776Y-77691904D01*
X147359269Y-77671709D01*
X147422171Y-77595061D01*
X147430316Y-77586075D01*
X147699111Y-77317280D01*
X147760432Y-77283797D01*
X147830124Y-77288781D01*
X147886057Y-77330653D01*
X147909729Y-77388776D01*
X147913670Y-77418709D01*
X147933273Y-77466036D01*
X147939904Y-77487248D01*
X147943190Y-77502427D01*
X147988528Y-77606865D01*
X148017226Y-77673005D01*
X148021529Y-77684433D01*
X148030152Y-77711272D01*
X148034739Y-77730905D01*
X148040036Y-77766410D01*
X148041329Y-77780713D01*
X148044267Y-77871905D01*
X148046496Y-77881844D01*
X148049500Y-77908971D01*
X148049500Y-83676493D01*
X148049509Y-83676612D01*
X148049509Y-83727574D01*
X148050037Y-83731588D01*
X148050038Y-83731597D01*
X148072938Y-83905559D01*
X148073469Y-83909590D01*
X148074518Y-83913508D01*
X148074520Y-83913514D01*
X148112428Y-84054993D01*
X148120983Y-84086922D01*
X148191236Y-84256535D01*
X148283028Y-84415527D01*
X148301834Y-84440036D01*
X148388681Y-84553221D01*
X148394787Y-84561178D01*
X148437405Y-84603797D01*
X148437409Y-84603802D01*
X148437414Y-84603807D01*
X148437415Y-84603808D01*
X149424510Y-85590902D01*
X149424514Y-85590907D01*
X149433194Y-85599586D01*
X149433196Y-85599589D01*
X149437586Y-85603978D01*
X149437603Y-85604010D01*
X149473907Y-85640312D01*
X149473907Y-85640313D01*
X149538816Y-85705220D01*
X149542030Y-85707686D01*
X149677103Y-85811330D01*
X149684467Y-85816980D01*
X149687974Y-85819005D01*
X149687976Y-85819006D01*
X149706721Y-85829828D01*
X149843460Y-85908773D01*
X150013074Y-85979027D01*
X150190408Y-86026541D01*
X150372426Y-86050501D01*
X150464220Y-86050500D01*
X186066378Y-86050500D01*
X186094464Y-86053723D01*
X186103096Y-86055731D01*
X186194289Y-86058668D01*
X186208580Y-86059960D01*
X186244086Y-86065257D01*
X186263715Y-86069842D01*
X186273728Y-86073058D01*
X186290574Y-86078471D01*
X186301998Y-86082773D01*
X186368095Y-86111453D01*
X186412803Y-86130861D01*
X186472718Y-86156871D01*
X186475974Y-86158258D01*
X186488679Y-86160824D01*
X186511569Y-86167805D01*
X186556291Y-86186330D01*
X186669223Y-86201198D01*
X186699999Y-86205250D01*
X186699999Y-86205249D01*
X186700000Y-86205250D01*
X186843709Y-86186330D01*
X186977625Y-86130861D01*
X187092621Y-86042621D01*
X187092620Y-86042621D01*
X187100013Y-86036949D01*
X187165182Y-86011754D01*
X187233627Y-86025792D01*
X187283617Y-86074606D01*
X187299500Y-86135324D01*
X187299500Y-87804701D01*
X187298903Y-87816855D01*
X187289178Y-87915597D01*
X187284436Y-87939436D01*
X187257414Y-88028522D01*
X187248112Y-88050981D01*
X187204226Y-88133088D01*
X187190721Y-88153300D01*
X187127842Y-88229919D01*
X187119669Y-88238936D01*
X186814010Y-88544596D01*
X186804992Y-88552770D01*
X186728292Y-88615714D01*
X186708081Y-88629218D01*
X186625978Y-88673102D01*
X186603519Y-88682404D01*
X186514433Y-88709426D01*
X186490594Y-88714168D01*
X186406630Y-88722437D01*
X186391750Y-88723903D01*
X186379600Y-88724500D01*
X178573659Y-88724500D01*
X178573536Y-88724509D01*
X178522426Y-88724509D01*
X178518412Y-88725037D01*
X178518402Y-88725038D01*
X178344440Y-88747938D01*
X178344432Y-88747939D01*
X178340410Y-88748469D01*
X178336494Y-88749518D01*
X178336485Y-88749520D01*
X178167002Y-88794931D01*
X178166993Y-88794933D01*
X178163078Y-88795983D01*
X178159335Y-88797533D01*
X178159327Y-88797536D01*
X178072787Y-88833381D01*
X178003317Y-88840848D01*
X177940839Y-88809573D01*
X177905187Y-88749483D01*
X177907682Y-88679658D01*
X177947531Y-88622266D01*
X177952431Y-88618515D01*
X177973837Y-88602963D01*
X178078600Y-88476326D01*
X178148579Y-88327613D01*
X178179376Y-88166170D01*
X178178566Y-88153300D01*
X178169056Y-88002141D01*
X178144885Y-87927749D01*
X178118268Y-87845829D01*
X178059488Y-87753207D01*
X178030202Y-87707059D01*
X177910393Y-87594552D01*
X177766365Y-87515371D01*
X177607179Y-87474500D01*
X177607177Y-87474500D01*
X149282982Y-87474500D01*
X149215943Y-87454815D01*
X149170188Y-87402011D01*
X149160244Y-87332853D01*
X149189269Y-87269297D01*
X149207495Y-87252124D01*
X149228388Y-87236092D01*
X149317621Y-87167621D01*
X149405861Y-87052625D01*
X149461330Y-86918709D01*
X149480250Y-86775000D01*
X149461330Y-86631291D01*
X149408741Y-86504328D01*
X149405862Y-86497377D01*
X149405861Y-86497376D01*
X149405861Y-86497375D01*
X149317621Y-86382379D01*
X149202625Y-86294139D01*
X149202624Y-86294138D01*
X149202622Y-86294137D01*
X149068709Y-86238670D01*
X148925000Y-86219749D01*
X148781287Y-86238670D01*
X148734310Y-86258128D01*
X148712935Y-86264794D01*
X148697903Y-86268026D01*
X148595080Y-86312496D01*
X148594372Y-86312802D01*
X148544402Y-86334209D01*
X148528638Y-86340962D01*
X148516965Y-86345283D01*
X148490215Y-86353684D01*
X148470774Y-86358109D01*
X148434392Y-86363360D01*
X148420498Y-86364573D01*
X148328843Y-86367397D01*
X148321617Y-86369009D01*
X148318736Y-86369652D01*
X148291738Y-86372627D01*
X146334844Y-86372627D01*
X146310865Y-86370286D01*
X146242727Y-86356855D01*
X146222778Y-86351154D01*
X146144359Y-86321445D01*
X146125637Y-86312496D01*
X146053283Y-86270134D01*
X146036317Y-86258189D01*
X145968271Y-86201198D01*
X145960208Y-86193816D01*
X145651173Y-85884780D01*
X145651162Y-85884765D01*
X145627238Y-85860843D01*
X145600517Y-85834123D01*
X145592358Y-85825122D01*
X145587338Y-85819006D01*
X145529407Y-85748424D01*
X145515902Y-85728213D01*
X145472012Y-85646110D01*
X145462708Y-85623652D01*
X145435679Y-85534563D01*
X145430936Y-85510722D01*
X145423671Y-85436991D01*
X145425650Y-85405404D01*
X145426134Y-85387452D01*
X145427830Y-85324505D01*
X145429741Y-85305913D01*
X145432822Y-85288776D01*
X145438948Y-85266684D01*
X145446196Y-85247609D01*
X145450418Y-85237799D01*
X145453572Y-85231261D01*
X145462127Y-85213523D01*
X145481354Y-85173660D01*
X145483106Y-85169835D01*
X145526804Y-85072543D01*
X145527185Y-85071667D01*
X145528259Y-85069137D01*
X145528262Y-85069118D01*
X145528265Y-85069113D01*
X145530673Y-85057189D01*
X145537654Y-85034300D01*
X145556478Y-84988857D01*
X145575398Y-84845148D01*
X145556478Y-84701439D01*
X145510185Y-84589675D01*
X145501010Y-84567525D01*
X145501009Y-84567524D01*
X145501009Y-84567523D01*
X145412769Y-84452527D01*
X145297773Y-84364287D01*
X145297772Y-84364286D01*
X145297770Y-84364285D01*
X145163857Y-84308818D01*
X145020148Y-84289897D01*
X144876438Y-84308818D01*
X144742525Y-84364285D01*
X144627527Y-84452527D01*
X144539285Y-84567525D01*
X144483818Y-84701438D01*
X144464897Y-84845147D01*
X144483818Y-84988858D01*
X144503921Y-85037394D01*
X144510423Y-85058019D01*
X144513903Y-85073726D01*
X144557501Y-85172802D01*
X144585298Y-85233900D01*
X144585663Y-85234701D01*
X144589680Y-85244656D01*
X144598063Y-85268336D01*
X144603207Y-85287730D01*
X144608209Y-85315493D01*
X144609986Y-85330662D01*
X144614440Y-85411555D01*
X144615989Y-85417821D01*
X144619610Y-85447561D01*
X144619612Y-85493679D01*
X144619612Y-85493691D01*
X144619613Y-85497743D01*
X144620142Y-85501760D01*
X144620143Y-85501774D01*
X144639152Y-85646110D01*
X144643584Y-85679763D01*
X144644631Y-85683672D01*
X144644634Y-85683684D01*
X144690058Y-85853181D01*
X144690060Y-85853188D01*
X144691108Y-85857097D01*
X144692660Y-85860843D01*
X144756531Y-86015024D01*
X144761373Y-86026710D01*
X144763405Y-86030230D01*
X144763406Y-86030231D01*
X144851148Y-86182188D01*
X144851151Y-86182193D01*
X144853177Y-86185701D01*
X144855639Y-86188910D01*
X144855643Y-86188915D01*
X144913874Y-86264794D01*
X144964948Y-86331348D01*
X144967806Y-86334206D01*
X144967809Y-86334209D01*
X144984756Y-86351154D01*
X145021088Y-86387481D01*
X145346429Y-86712821D01*
X145347808Y-86714655D01*
X145359269Y-86726015D01*
X145399589Y-86765981D01*
X145421198Y-86787590D01*
X145421200Y-86787592D01*
X145426921Y-86793312D01*
X145428673Y-86794801D01*
X145468172Y-86833939D01*
X145471483Y-86836440D01*
X145471484Y-86836441D01*
X145617639Y-86946848D01*
X145617643Y-86946850D01*
X145620957Y-86949354D01*
X145787794Y-87043317D01*
X145965691Y-87114143D01*
X146151456Y-87160563D01*
X146234524Y-87169821D01*
X146240175Y-87170583D01*
X146259388Y-87173627D01*
X146261816Y-87173627D01*
X146275531Y-87174388D01*
X146303835Y-87177538D01*
X146303835Y-87177537D01*
X146303836Y-87177538D01*
X146315288Y-87175515D01*
X146336849Y-87173627D01*
X148291377Y-87173627D01*
X148319656Y-87176894D01*
X148328054Y-87178862D01*
X148418530Y-87181917D01*
X148433284Y-87183300D01*
X148467658Y-87188614D01*
X148487497Y-87193380D01*
X148514352Y-87202223D01*
X148525510Y-87206504D01*
X148592753Y-87236092D01*
X148593806Y-87236550D01*
X148594462Y-87236836D01*
X148648045Y-87281674D01*
X148668881Y-87348365D01*
X148650353Y-87415733D01*
X148598345Y-87462391D01*
X148544899Y-87474500D01*
X117509075Y-87474500D01*
X117505213Y-87474987D01*
X117505211Y-87474988D01*
X117473495Y-87478994D01*
X117433842Y-87484004D01*
X117418303Y-87484982D01*
X113302465Y-87484982D01*
X113302457Y-87484981D01*
X113222027Y-87484981D01*
X113205843Y-87483920D01*
X113139635Y-87475204D01*
X113108366Y-87466826D01*
X113054242Y-87444407D01*
X113026209Y-87428222D01*
X112973229Y-87387569D01*
X112961034Y-87376874D01*
X110758623Y-85174463D01*
X110747926Y-85162265D01*
X110707276Y-85109285D01*
X110691092Y-85081253D01*
X110686064Y-85069113D01*
X110668672Y-85027125D01*
X110660296Y-84995861D01*
X110651559Y-84929488D01*
X110650500Y-84913309D01*
X110650501Y-84875000D01*
X115344749Y-84875000D01*
X115363670Y-85018709D01*
X115419137Y-85152622D01*
X115419138Y-85152624D01*
X115419139Y-85152625D01*
X115507379Y-85267621D01*
X115622375Y-85355861D01*
X115756291Y-85411330D01*
X115900000Y-85430250D01*
X116043709Y-85411330D01*
X116091050Y-85391719D01*
X116112255Y-85385091D01*
X116127430Y-85381807D01*
X116231863Y-85336471D01*
X116297997Y-85307774D01*
X116309423Y-85303472D01*
X116336277Y-85294844D01*
X116355907Y-85290258D01*
X116391417Y-85284960D01*
X116405709Y-85283668D01*
X116496904Y-85280731D01*
X116506844Y-85278502D01*
X116533967Y-85275500D01*
X119402511Y-85275500D01*
X119402626Y-85275490D01*
X119452574Y-85275491D01*
X119634590Y-85251531D01*
X119811922Y-85204017D01*
X119981535Y-85133764D01*
X120140527Y-85041972D01*
X120286178Y-84930213D01*
X120318009Y-84898381D01*
X120318014Y-84898378D01*
X120328799Y-84887592D01*
X120328802Y-84887591D01*
X122235998Y-82980394D01*
X122245006Y-82972231D01*
X122321707Y-82909286D01*
X122341911Y-82895785D01*
X122424029Y-82851893D01*
X122446474Y-82842597D01*
X122535566Y-82815572D01*
X122559404Y-82810831D01*
X122658248Y-82801096D01*
X122670400Y-82800500D01*
X122721792Y-82800500D01*
X126216378Y-82800500D01*
X126244464Y-82803723D01*
X126253096Y-82805731D01*
X126344289Y-82808668D01*
X126358580Y-82809960D01*
X126394086Y-82815257D01*
X126413715Y-82819842D01*
X126423728Y-82823058D01*
X126440574Y-82828471D01*
X126451998Y-82832773D01*
X126518095Y-82861453D01*
X126570406Y-82884161D01*
X126622718Y-82906871D01*
X126625974Y-82908258D01*
X126638679Y-82910824D01*
X126661569Y-82917805D01*
X126706291Y-82936330D01*
X126833280Y-82953048D01*
X126849999Y-82955250D01*
X126849999Y-82955249D01*
X126850000Y-82955250D01*
X126993709Y-82936330D01*
X127127625Y-82880861D01*
X127242621Y-82792621D01*
X127330861Y-82677625D01*
X127386330Y-82543709D01*
X127405250Y-82400000D01*
X127386330Y-82256291D01*
X127330861Y-82122375D01*
X127242621Y-82007379D01*
X127127625Y-81919139D01*
X127127624Y-81919138D01*
X127127622Y-81919137D01*
X126993709Y-81863670D01*
X126850000Y-81844749D01*
X126706289Y-81863670D01*
X126658961Y-81883273D01*
X126637754Y-81889902D01*
X126622572Y-81893189D01*
X126583038Y-81910352D01*
X126518134Y-81938528D01*
X126484767Y-81953005D01*
X126451991Y-81967227D01*
X126440564Y-81971530D01*
X126413724Y-81980153D01*
X126394092Y-81984739D01*
X126358587Y-81990036D01*
X126344285Y-81991329D01*
X126253094Y-81994268D01*
X126253095Y-81994268D01*
X126243149Y-81996497D01*
X126216030Y-81999500D01*
X122623659Y-81999500D01*
X122623536Y-81999509D01*
X122572426Y-81999509D01*
X122568412Y-82000037D01*
X122568402Y-82000038D01*
X122394440Y-82022938D01*
X122394432Y-82022939D01*
X122390410Y-82023469D01*
X122386494Y-82024518D01*
X122386485Y-82024520D01*
X122217002Y-82069931D01*
X122216993Y-82069933D01*
X122213078Y-82070983D01*
X122209335Y-82072533D01*
X122209327Y-82072536D01*
X122047211Y-82139684D01*
X122047205Y-82139686D01*
X122043465Y-82141236D01*
X122039960Y-82143259D01*
X122039953Y-82143263D01*
X121887978Y-82231004D01*
X121887973Y-82231007D01*
X121884473Y-82233028D01*
X121881266Y-82235488D01*
X121881261Y-82235492D01*
X121742050Y-82342309D01*
X121742039Y-82342318D01*
X121738822Y-82344787D01*
X121735949Y-82347659D01*
X121735942Y-82347666D01*
X121696202Y-82387405D01*
X121696198Y-82387409D01*
X119789011Y-84294595D01*
X119779993Y-84302768D01*
X119703292Y-84365713D01*
X119683081Y-84379218D01*
X119600978Y-84423102D01*
X119578519Y-84432404D01*
X119489433Y-84459426D01*
X119465594Y-84464168D01*
X119381630Y-84472437D01*
X119366750Y-84473903D01*
X119354600Y-84474500D01*
X116533626Y-84474500D01*
X116505533Y-84471275D01*
X116499826Y-84469947D01*
X116496905Y-84469268D01*
X116405712Y-84466329D01*
X116391410Y-84465036D01*
X116355905Y-84459739D01*
X116336272Y-84455152D01*
X116309433Y-84446529D01*
X116298006Y-84442227D01*
X116295404Y-84441098D01*
X116231906Y-84413546D01*
X116127281Y-84368126D01*
X116123995Y-84366726D01*
X116111297Y-84364162D01*
X116088397Y-84357179D01*
X116043710Y-84338670D01*
X115899999Y-84319749D01*
X115756290Y-84338670D01*
X115622377Y-84394137D01*
X115507379Y-84482379D01*
X115419137Y-84597377D01*
X115363670Y-84731290D01*
X115344749Y-84875000D01*
X110650501Y-84875000D01*
X110650502Y-84848296D01*
X110650500Y-84848290D01*
X110650501Y-84834696D01*
X110650500Y-84834676D01*
X110650500Y-80712969D01*
X110650500Y-80712968D01*
X110650500Y-80709075D01*
X110635071Y-80586942D01*
X110635071Y-80586940D01*
X110574568Y-80434129D01*
X110477965Y-80301165D01*
X110477963Y-80301163D01*
X110351326Y-80196400D01*
X110202613Y-80126421D01*
X110077732Y-80102598D01*
X110041166Y-80095623D01*
X109877141Y-80105943D01*
X109720829Y-80156732D01*
X109582059Y-80244797D01*
X109469552Y-80364606D01*
X109390371Y-80508634D01*
X109349500Y-80667820D01*
X109349499Y-80667822D01*
X107374685Y-80667822D01*
X107293606Y-80616877D01*
X107128656Y-80559158D01*
X107002018Y-80544890D01*
X107002008Y-80544889D01*
X106998552Y-80544500D01*
X106157102Y-80544500D01*
X106090063Y-80524815D01*
X106044308Y-80472011D01*
X106034364Y-80402853D01*
X106063389Y-80339297D01*
X106103301Y-80308780D01*
X106187780Y-80268097D01*
X106194508Y-80261853D01*
X106287775Y-80175316D01*
X106355978Y-80057184D01*
X106386331Y-79924197D01*
X106376138Y-79788172D01*
X106326303Y-79661195D01*
X106326302Y-79661194D01*
X106326302Y-79661193D01*
X106241256Y-79554548D01*
X106128550Y-79477707D01*
X105998203Y-79437500D01*
X105896090Y-79437500D01*
X105795116Y-79452719D01*
X105672218Y-79511903D01*
X105572224Y-79604684D01*
X105504022Y-79722815D01*
X105473668Y-79855803D01*
X105483861Y-79991827D01*
X105533697Y-80118806D01*
X105595575Y-80196399D01*
X105618745Y-80225453D01*
X105731450Y-80302293D01*
X105773471Y-80315255D01*
X105831729Y-80353823D01*
X105859887Y-80417768D01*
X105849005Y-80486785D01*
X105802536Y-80538962D01*
X105750808Y-80556965D01*
X105731343Y-80559158D01*
X105566396Y-80616876D01*
X105418424Y-80709852D01*
X105411899Y-80716378D01*
X105382038Y-80738389D01*
X105263676Y-80800775D01*
X105251372Y-80806425D01*
X105121978Y-80857482D01*
X105107900Y-80862086D01*
X104983462Y-80894699D01*
X104967964Y-80897721D01*
X104822241Y-80916608D01*
X104822193Y-80916243D01*
X104800129Y-80919500D01*
X103652931Y-80919500D01*
X103631731Y-80916148D01*
X103631694Y-80916466D01*
X103607112Y-80913569D01*
X103506906Y-80901763D01*
X103492313Y-80899151D01*
X103451373Y-80889265D01*
X103389752Y-80874385D01*
X103376329Y-80870328D01*
X103269615Y-80831363D01*
X103257691Y-80826289D01*
X103146148Y-80771767D01*
X103135850Y-80766113D01*
X103092944Y-80739835D01*
X103087285Y-80736152D01*
X103027930Y-80695182D01*
X103008220Y-80687707D01*
X102996986Y-80682798D01*
X102971764Y-80670257D01*
X102967947Y-80668762D01*
X102965346Y-80667999D01*
X102965325Y-80667992D01*
X102929829Y-80657583D01*
X102920751Y-80654535D01*
X102870444Y-80635455D01*
X102814742Y-80593276D01*
X102806022Y-80579734D01*
X102779126Y-80531322D01*
X102775567Y-80524414D01*
X102734728Y-80438653D01*
X102732233Y-80433061D01*
X102710036Y-80379787D01*
X102700500Y-80332105D01*
X102700500Y-73667893D01*
X102710037Y-73620209D01*
X102732223Y-73566960D01*
X102734728Y-73561346D01*
X102737619Y-73555275D01*
X102775568Y-73475581D01*
X102779109Y-73468706D01*
X102806024Y-73420261D01*
X102855788Y-73371220D01*
X102870432Y-73364548D01*
X102959306Y-73330842D01*
X102970245Y-73327267D01*
X102993018Y-73320982D01*
X103007168Y-73313870D01*
X103011004Y-73311943D01*
X103022722Y-73306793D01*
X103023862Y-73306360D01*
X103027930Y-73304818D01*
X103028201Y-73304630D01*
X103042963Y-73295880D01*
X103117990Y-73258177D01*
X103127637Y-73253835D01*
X103241914Y-73208183D01*
X103252653Y-73204456D01*
X103363823Y-73171500D01*
X103375507Y-73168646D01*
X103484137Y-73147639D01*
X103496501Y-73145889D01*
X103612341Y-73135425D01*
X103613470Y-73135119D01*
X103614673Y-73134795D01*
X103647026Y-73130500D01*
X104804619Y-73130500D01*
X104828226Y-73134092D01*
X104838522Y-73135183D01*
X104838523Y-73135184D01*
X104976784Y-73149845D01*
X104990422Y-73152067D01*
X105119787Y-73180639D01*
X105132489Y-73184163D01*
X105265249Y-73228731D01*
X105276718Y-73233227D01*
X105314620Y-73250303D01*
X105413519Y-73294859D01*
X105423598Y-73299964D01*
X105525395Y-73357516D01*
X105530275Y-73360427D01*
X105566394Y-73383122D01*
X105576752Y-73386746D01*
X105588077Y-73391347D01*
X105608811Y-73400987D01*
X105612279Y-73402276D01*
X105651304Y-73413346D01*
X105655453Y-73414523D01*
X105662569Y-73416775D01*
X105731339Y-73440840D01*
X105731340Y-73440840D01*
X105731343Y-73440841D01*
X105745521Y-73442438D01*
X105809933Y-73469502D01*
X105849490Y-73527095D01*
X105851630Y-73596932D01*
X105815674Y-73656840D01*
X105785441Y-73677378D01*
X105672219Y-73731903D01*
X105572224Y-73824684D01*
X105504022Y-73942815D01*
X105473668Y-74075803D01*
X105483861Y-74211827D01*
X105533697Y-74338806D01*
X105618743Y-74445451D01*
X105618745Y-74445453D01*
X105731450Y-74522293D01*
X105861797Y-74562500D01*
X105963910Y-74562500D01*
X106064883Y-74547281D01*
X106187781Y-74488096D01*
X106287775Y-74395316D01*
X106355978Y-74277184D01*
X106386331Y-74144197D01*
X106382646Y-74095027D01*
X106376138Y-74008172D01*
X106366511Y-73983644D01*
X106326303Y-73881195D01*
X106326302Y-73881194D01*
X106326302Y-73881193D01*
X106241256Y-73774548D01*
X106239962Y-73773666D01*
X106128550Y-73697707D01*
X106128549Y-73697706D01*
X106113108Y-73687179D01*
X106113117Y-73687164D01*
X106071211Y-73659421D01*
X106043053Y-73595476D01*
X106053937Y-73526459D01*
X106100405Y-73474282D01*
X106166020Y-73455500D01*
X106995067Y-73455500D01*
X106998552Y-73455500D01*
X107128657Y-73440841D01*
X107293606Y-73383122D01*
X107441576Y-73290147D01*
X107565147Y-73166576D01*
X107658122Y-73018606D01*
X107715841Y-72853657D01*
X107735407Y-72680000D01*
X107728165Y-72615728D01*
X107715841Y-72506342D01*
X107658122Y-72341393D01*
X107565147Y-72193423D01*
X107441576Y-72069852D01*
X107293606Y-71976877D01*
X107128656Y-71919158D01*
X107002018Y-71904890D01*
X107002008Y-71904889D01*
X106998552Y-71904500D01*
X105861448Y-71904500D01*
X105857992Y-71904889D01*
X105857981Y-71904890D01*
X105731343Y-71919158D01*
X105566393Y-71976878D01*
X105530315Y-71999546D01*
X105525374Y-72002493D01*
X105423607Y-72060028D01*
X105413514Y-72065141D01*
X105276720Y-72126769D01*
X105265249Y-72131266D01*
X105132498Y-72175831D01*
X105119777Y-72179360D01*
X104990436Y-72207926D01*
X104976772Y-72210152D01*
X104838524Y-72224814D01*
X104838509Y-72224819D01*
X104804761Y-72229500D01*
X103646947Y-72229500D01*
X103613549Y-72224683D01*
X103496510Y-72214109D01*
X103484124Y-72212356D01*
X103375514Y-72191352D01*
X103363815Y-72188494D01*
X103252663Y-72155544D01*
X103241905Y-72151810D01*
X103127648Y-72106166D01*
X103117969Y-72101810D01*
X103042966Y-72064118D01*
X103028204Y-72055371D01*
X103027929Y-72055181D01*
X103022723Y-72053207D01*
X103011017Y-72048062D01*
X103001339Y-72043198D01*
X102993018Y-72039017D01*
X102991118Y-72038217D01*
X102991109Y-72038213D01*
X102963288Y-72026501D01*
X102963264Y-72026491D01*
X102961383Y-72025700D01*
X102958420Y-72024681D01*
X102956420Y-72024140D01*
X102956388Y-72024130D01*
X102926219Y-72015967D01*
X102914640Y-72012216D01*
X102881228Y-71999546D01*
X102868872Y-71994860D01*
X102850572Y-71992637D01*
X102746092Y-71979951D01*
X102746080Y-71979950D01*
X102742372Y-71979500D01*
X101757628Y-71979500D01*
X101753920Y-71979950D01*
X101753907Y-71979951D01*
X101631127Y-71994860D01*
X101472069Y-72055182D01*
X101332072Y-72151815D01*
X101219265Y-72279149D01*
X101140209Y-72429775D01*
X101099500Y-72594944D01*
X101099500Y-72765055D01*
X101140209Y-72930224D01*
X101205921Y-73055426D01*
X101219266Y-73080852D01*
X101332071Y-73208183D01*
X101332072Y-73208184D01*
X101457642Y-73294859D01*
X101472070Y-73304818D01*
X101619075Y-73360569D01*
X101629549Y-73364541D01*
X101685252Y-73406718D01*
X101693973Y-73420261D01*
X101718875Y-73465083D01*
X101720879Y-73468690D01*
X101724439Y-73475599D01*
X101765277Y-73561359D01*
X101767777Y-73566964D01*
X101789961Y-73620205D01*
X101799500Y-73667897D01*
X101799499Y-80332100D01*
X101789961Y-80379791D01*
X101767784Y-80433017D01*
X101765276Y-80438639D01*
X101724427Y-80524420D01*
X101720869Y-80531325D01*
X101693976Y-80579734D01*
X101644212Y-80628778D01*
X101629551Y-80635458D01*
X101472069Y-80695182D01*
X101332072Y-80791815D01*
X101219265Y-80919149D01*
X101140209Y-81069775D01*
X101099500Y-81234944D01*
X101099500Y-81405055D01*
X100400500Y-81405055D01*
X100400500Y-67004427D01*
X100400816Y-66995581D01*
X100416148Y-66781212D01*
X100418666Y-66763700D01*
X100463407Y-66558026D01*
X100468384Y-66541075D01*
X100541948Y-66343844D01*
X100549296Y-66327757D01*
X100572895Y-66284538D01*
X100650166Y-66143025D01*
X100659720Y-66128157D01*
X100785873Y-65959637D01*
X100797445Y-65946283D01*
X100946283Y-65797445D01*
X100959637Y-65785873D01*
X101128157Y-65659720D01*
X101143025Y-65650166D01*
X101327757Y-65549295D01*
X101343844Y-65541948D01*
X101541075Y-65468384D01*
X101558026Y-65463407D01*
X101763705Y-65418665D01*
X101781206Y-65416148D01*
X101995581Y-65400816D01*
X102004428Y-65400500D01*
X102057583Y-65400500D01*
X187942417Y-65400500D01*
X187995572Y-65400500D01*
X188004418Y-65400816D01*
G37*
%TD.AperFunction*%
%TD*%
%TA.AperFunction,Conductor*%
%TO.N,+3.3V*%
G36*
X130362453Y-69649863D02*
G01*
X130499047Y-69659334D01*
X130500908Y-69659616D01*
X130594460Y-69681711D01*
X130604512Y-69684086D01*
X130605481Y-69684359D01*
X130695004Y-69713800D01*
X130800008Y-69738600D01*
X130939110Y-69748244D01*
X130947126Y-69752235D01*
X130950000Y-69759916D01*
X130950000Y-70138083D01*
X130946573Y-70146356D01*
X130939109Y-70149755D01*
X130800009Y-70159399D01*
X130695247Y-70184142D01*
X130695233Y-70184145D01*
X130695004Y-70184200D01*
X130694771Y-70184276D01*
X130694759Y-70184280D01*
X130605478Y-70213640D01*
X130604512Y-70213913D01*
X130500917Y-70238381D01*
X130499037Y-70238666D01*
X130362467Y-70248135D01*
X130353977Y-70245289D01*
X130349986Y-70237272D01*
X130349958Y-70236502D01*
X130349882Y-70213800D01*
X130349000Y-69949000D01*
X130349958Y-69661496D01*
X130353412Y-69653235D01*
X130361697Y-69649836D01*
X130362453Y-69649863D01*
G37*
%TD.AperFunction*%
%TD*%
%TA.AperFunction,Conductor*%
%TO.N,+3.3V*%
G36*
X130346022Y-69652710D02*
G01*
X130350013Y-69660727D01*
X130350041Y-69661497D01*
X130351000Y-69949000D01*
X130350041Y-70236502D01*
X130346586Y-70244764D01*
X130338302Y-70248163D01*
X130337532Y-70248135D01*
X130200961Y-70238666D01*
X130199081Y-70238381D01*
X130095486Y-70213913D01*
X130094520Y-70213640D01*
X130005239Y-70184280D01*
X130005233Y-70184278D01*
X130004995Y-70184200D01*
X130004758Y-70184144D01*
X130004751Y-70184142D01*
X129899989Y-70159399D01*
X129760891Y-70149755D01*
X129752874Y-70145764D01*
X129750000Y-70138083D01*
X129750000Y-69759916D01*
X129753427Y-69751643D01*
X129760888Y-69748244D01*
X129899991Y-69738600D01*
X130004995Y-69713800D01*
X130094523Y-69684357D01*
X130095482Y-69684086D01*
X130199092Y-69659616D01*
X130200949Y-69659334D01*
X130337533Y-69649864D01*
X130346022Y-69652710D01*
G37*
%TD.AperFunction*%
%TD*%
%TA.AperFunction,Conductor*%
%TO.N,+3.3V*%
G36*
X157696944Y-72203427D02*
G01*
X157700364Y-72211322D01*
X157704011Y-72324520D01*
X157704057Y-72324833D01*
X157704059Y-72324847D01*
X157717121Y-72412399D01*
X157717121Y-72412400D01*
X157740941Y-72486539D01*
X157741053Y-72486797D01*
X157741056Y-72486805D01*
X157777084Y-72569837D01*
X157822439Y-72674313D01*
X157822590Y-72683266D01*
X157816366Y-72689704D01*
X157816218Y-72689768D01*
X157554511Y-72799115D01*
X157545556Y-72799142D01*
X157545489Y-72799115D01*
X157450279Y-72759334D01*
X157283779Y-72689767D01*
X157277468Y-72683416D01*
X157277494Y-72674462D01*
X157322914Y-72569837D01*
X157359058Y-72486539D01*
X157382878Y-72412400D01*
X157395988Y-72324520D01*
X157399635Y-72211322D01*
X157403327Y-72203165D01*
X157411329Y-72200000D01*
X157688671Y-72200000D01*
X157696944Y-72203427D01*
G37*
%TD.AperFunction*%
%TD*%
%TA.AperFunction,Conductor*%
%TO.N,+3.3V*%
G36*
X148701208Y-74152680D02*
G01*
X148897318Y-74348790D01*
X148900745Y-74357063D01*
X148897580Y-74365065D01*
X148820356Y-74447430D01*
X148820340Y-74447448D01*
X148820116Y-74447688D01*
X148819923Y-74447948D01*
X148819911Y-74447963D01*
X148767245Y-74519097D01*
X148731797Y-74588107D01*
X148731793Y-74588115D01*
X148731665Y-74588365D01*
X148731562Y-74588623D01*
X148731560Y-74588630D01*
X148698322Y-74672823D01*
X148656517Y-74778770D01*
X148650293Y-74785208D01*
X148641340Y-74785359D01*
X148641190Y-74785299D01*
X148640968Y-74785208D01*
X148614957Y-74774527D01*
X148378815Y-74677563D01*
X148372463Y-74671251D01*
X148372436Y-74671184D01*
X148309987Y-74519098D01*
X148264700Y-74408807D01*
X148264727Y-74399854D01*
X148271079Y-74393542D01*
X148271229Y-74393482D01*
X148377176Y-74351676D01*
X148400775Y-74342358D01*
X148461633Y-74318333D01*
X148530900Y-74282753D01*
X148602311Y-74229882D01*
X148684934Y-74152417D01*
X148693312Y-74149259D01*
X148701208Y-74152680D01*
G37*
%TD.AperFunction*%
%TD*%
%TA.AperFunction,Conductor*%
%TO.N,+3.3V*%
G36*
X123072356Y-77203427D02*
G01*
X123075755Y-77210891D01*
X123085399Y-77349989D01*
X123110142Y-77454751D01*
X123110200Y-77454995D01*
X123110278Y-77455233D01*
X123110280Y-77455239D01*
X123139640Y-77544520D01*
X123139913Y-77545486D01*
X123164381Y-77649081D01*
X123164666Y-77650961D01*
X123174135Y-77787532D01*
X123171289Y-77796022D01*
X123163272Y-77800013D01*
X123162502Y-77800041D01*
X122875000Y-77801000D01*
X122587497Y-77800041D01*
X122579235Y-77796586D01*
X122575836Y-77788302D01*
X122575864Y-77787532D01*
X122585334Y-77650949D01*
X122585616Y-77649092D01*
X122610086Y-77545482D01*
X122610359Y-77544520D01*
X122639800Y-77454995D01*
X122664600Y-77349991D01*
X122674244Y-77210891D01*
X122678236Y-77202874D01*
X122685917Y-77200000D01*
X123064083Y-77200000D01*
X123072356Y-77203427D01*
G37*
%TD.AperFunction*%
%TD*%
%TA.AperFunction,Conductor*%
%TO.N,+3.3V*%
G36*
X144072369Y-70191427D02*
G01*
X144075767Y-70198877D01*
X144083935Y-70314728D01*
X144108896Y-70401639D01*
X144147028Y-70473565D01*
X144147039Y-70473586D01*
X144147105Y-70473709D01*
X144147177Y-70473831D01*
X144147184Y-70473843D01*
X144195527Y-70555466D01*
X144196005Y-70556359D01*
X144246822Y-70662082D01*
X144247318Y-70671023D01*
X144241346Y-70677696D01*
X144240788Y-70677947D01*
X143979510Y-70787115D01*
X143970555Y-70787142D01*
X143970502Y-70787120D01*
X143862793Y-70742117D01*
X143709210Y-70677947D01*
X143702898Y-70671595D01*
X143702925Y-70662640D01*
X143703155Y-70662128D01*
X143753998Y-70556346D01*
X143754468Y-70555470D01*
X143802893Y-70473709D01*
X143841102Y-70401640D01*
X143866062Y-70314727D01*
X143874232Y-70198877D01*
X143878233Y-70190865D01*
X143885904Y-70188000D01*
X144064096Y-70188000D01*
X144072369Y-70191427D01*
G37*
%TD.AperFunction*%
%TD*%
%TA.AperFunction,Conductor*%
%TO.N,+3.3V*%
G36*
X154221944Y-74078427D02*
G01*
X154225364Y-74086322D01*
X154229011Y-74199520D01*
X154229057Y-74199833D01*
X154229059Y-74199847D01*
X154242120Y-74287399D01*
X154242121Y-74287400D01*
X154265941Y-74361539D01*
X154266053Y-74361797D01*
X154266056Y-74361805D01*
X154302084Y-74444837D01*
X154347439Y-74549313D01*
X154347590Y-74558266D01*
X154341366Y-74564704D01*
X154341218Y-74564768D01*
X154079510Y-74674115D01*
X154070555Y-74674142D01*
X154070502Y-74674120D01*
X153808779Y-74564767D01*
X153802468Y-74558416D01*
X153802494Y-74549462D01*
X153847914Y-74444837D01*
X153884058Y-74361539D01*
X153907878Y-74287400D01*
X153920988Y-74199520D01*
X153924635Y-74086322D01*
X153928327Y-74078165D01*
X153936329Y-74075000D01*
X154213671Y-74075000D01*
X154221944Y-74078427D01*
G37*
%TD.AperFunction*%
%TD*%
%TA.AperFunction,Conductor*%
%TO.N,+3.3V*%
G36*
X168275392Y-74441481D02*
G01*
X168380572Y-74533021D01*
X168425918Y-74561039D01*
X168472356Y-74589733D01*
X168556495Y-74632227D01*
X168557366Y-74632716D01*
X168647903Y-74688658D01*
X168649433Y-74689784D01*
X168752704Y-74779663D01*
X168756695Y-74787679D01*
X168753849Y-74796169D01*
X168753324Y-74796734D01*
X168550707Y-75000707D01*
X168346734Y-75203324D01*
X168338449Y-75206723D01*
X168330187Y-75203269D01*
X168329672Y-75202715D01*
X168239784Y-75099433D01*
X168238658Y-75097903D01*
X168182716Y-75007366D01*
X168182225Y-75006491D01*
X168179304Y-75000707D01*
X168139733Y-74922356D01*
X168083020Y-74830571D01*
X167991480Y-74725391D01*
X167988635Y-74716902D01*
X167992033Y-74709439D01*
X168259439Y-74442033D01*
X168267711Y-74438607D01*
X168275392Y-74441481D01*
G37*
%TD.AperFunction*%
%TD*%
%TA.AperFunction,Conductor*%
%TO.N,/NRST*%
G36*
X139375359Y-73702926D02*
G01*
X139375915Y-73703176D01*
X139481654Y-73754000D01*
X139482517Y-73754462D01*
X139564290Y-73802893D01*
X139636359Y-73841102D01*
X139723270Y-73866062D01*
X139739660Y-73867217D01*
X139839124Y-73874232D01*
X139847135Y-73878232D01*
X139850000Y-73885903D01*
X139850000Y-74064095D01*
X139846573Y-74072368D01*
X139839123Y-74075766D01*
X139723270Y-74083935D01*
X139636359Y-74108896D01*
X139564433Y-74147028D01*
X139564394Y-74147049D01*
X139564290Y-74147105D01*
X139564185Y-74147166D01*
X139564155Y-74147184D01*
X139482531Y-74195527D01*
X139481638Y-74196005D01*
X139375917Y-74246822D01*
X139366976Y-74247318D01*
X139360303Y-74241346D01*
X139360052Y-74240788D01*
X139304945Y-74108897D01*
X139250883Y-73979509D01*
X139250857Y-73970556D01*
X139250862Y-73970542D01*
X139360052Y-73709210D01*
X139366404Y-73702899D01*
X139375359Y-73702926D01*
G37*
%TD.AperFunction*%
%TD*%
%TA.AperFunction,Conductor*%
%TO.N,/NRST*%
G36*
X145814705Y-73758633D02*
G01*
X145814762Y-73758766D01*
X145861554Y-73870756D01*
X145924115Y-74020489D01*
X145924142Y-74029444D01*
X145924115Y-74029511D01*
X145815139Y-74290330D01*
X145808787Y-74296642D01*
X145799832Y-74296615D01*
X145798863Y-74296156D01*
X145693507Y-74240308D01*
X145691822Y-74239221D01*
X145613641Y-74178660D01*
X145545934Y-74125934D01*
X145497630Y-74104611D01*
X145462148Y-74088949D01*
X145462147Y-74088948D01*
X145462145Y-74088948D01*
X145345371Y-74076143D01*
X145337520Y-74071835D01*
X145334946Y-74064513D01*
X145334946Y-73886305D01*
X145338373Y-73878032D01*
X145346244Y-73874612D01*
X145457012Y-73870811D01*
X145543047Y-73857348D01*
X145615574Y-73833263D01*
X145697115Y-73797208D01*
X145799302Y-73752591D01*
X145808254Y-73752423D01*
X145814705Y-73758633D01*
G37*
%TD.AperFunction*%
%TD*%
%TA.AperFunction,Conductor*%
%TO.N,/BAT_1_CHRG*%
G36*
X115596944Y-96178427D02*
G01*
X115600364Y-96186322D01*
X115604011Y-96299520D01*
X115604057Y-96299833D01*
X115604059Y-96299847D01*
X115617121Y-96387399D01*
X115617121Y-96387400D01*
X115640941Y-96461539D01*
X115641053Y-96461797D01*
X115641056Y-96461805D01*
X115677084Y-96544837D01*
X115722439Y-96649313D01*
X115722590Y-96658266D01*
X115716366Y-96664704D01*
X115716218Y-96664768D01*
X115454510Y-96774115D01*
X115445555Y-96774142D01*
X115445502Y-96774120D01*
X115183779Y-96664767D01*
X115177468Y-96658416D01*
X115177494Y-96649462D01*
X115222914Y-96544837D01*
X115259058Y-96461539D01*
X115282878Y-96387400D01*
X115295988Y-96299520D01*
X115299635Y-96186322D01*
X115303327Y-96178165D01*
X115311329Y-96175000D01*
X115588671Y-96175000D01*
X115596944Y-96178427D01*
G37*
%TD.AperFunction*%
%TD*%
%TA.AperFunction,Conductor*%
%TO.N,/BAT_1_CHRG*%
G36*
X128689704Y-89108632D02*
G01*
X128689757Y-89108755D01*
X128731173Y-89207878D01*
X128799115Y-89370489D01*
X128799142Y-89379444D01*
X128799115Y-89379511D01*
X128689768Y-89641218D01*
X128683416Y-89647530D01*
X128674461Y-89647503D01*
X128674313Y-89647439D01*
X128569837Y-89602084D01*
X128486805Y-89566056D01*
X128486797Y-89566053D01*
X128486539Y-89565941D01*
X128486268Y-89565854D01*
X128486263Y-89565852D01*
X128412400Y-89542121D01*
X128324847Y-89529059D01*
X128324833Y-89529057D01*
X128324520Y-89529011D01*
X128324194Y-89529000D01*
X128324189Y-89529000D01*
X128211323Y-89525364D01*
X128203165Y-89521672D01*
X128200000Y-89513670D01*
X128200000Y-89236329D01*
X128203427Y-89228056D01*
X128211322Y-89224635D01*
X128324520Y-89220988D01*
X128412400Y-89207878D01*
X128486539Y-89184058D01*
X128569837Y-89147914D01*
X128674315Y-89102558D01*
X128683266Y-89102408D01*
X128689704Y-89108632D01*
G37*
%TD.AperFunction*%
%TD*%
%TA.AperFunction,Conductor*%
%TO.N,/BAT_2_CHRG*%
G36*
X148814704Y-86508633D02*
G01*
X148814761Y-86508766D01*
X148924115Y-86770489D01*
X148924142Y-86779444D01*
X148924115Y-86779511D01*
X148814775Y-87041201D01*
X148808423Y-87047513D01*
X148799468Y-87047486D01*
X148799303Y-87047415D01*
X148694860Y-87001881D01*
X148611931Y-86965389D01*
X148611914Y-86965382D01*
X148611663Y-86965272D01*
X148611393Y-86965183D01*
X148611385Y-86965180D01*
X148537653Y-86940900D01*
X148450210Y-86927383D01*
X148450205Y-86927382D01*
X148449872Y-86927331D01*
X148449528Y-86927319D01*
X148449524Y-86927319D01*
X148336678Y-86923508D01*
X148328525Y-86919804D01*
X148325373Y-86911815D01*
X148325373Y-86634471D01*
X148328800Y-86626198D01*
X148336711Y-86622777D01*
X148449731Y-86619294D01*
X148537572Y-86606619D01*
X148611716Y-86583330D01*
X148694984Y-86547658D01*
X148799321Y-86502537D01*
X148808275Y-86502400D01*
X148814704Y-86508633D01*
G37*
%TD.AperFunction*%
%TD*%
%TA.AperFunction,Conductor*%
%TO.N,/BAT_2_CHRG*%
G36*
X145024639Y-84846033D02*
G01*
X145090852Y-84873696D01*
X145286224Y-84955320D01*
X145292537Y-84961672D01*
X145292510Y-84970626D01*
X145292386Y-84970912D01*
X145249856Y-85065542D01*
X145249721Y-85065832D01*
X145213278Y-85141334D01*
X145213269Y-85141354D01*
X145213170Y-85141560D01*
X145213082Y-85141789D01*
X145213080Y-85141796D01*
X145187592Y-85208874D01*
X145173197Y-85288938D01*
X145170421Y-85391914D01*
X145166772Y-85400092D01*
X145158947Y-85403297D01*
X144881459Y-85408568D01*
X144873122Y-85405299D01*
X144869555Y-85397514D01*
X144863815Y-85293239D01*
X144849196Y-85212110D01*
X144825039Y-85143870D01*
X144790062Y-85066993D01*
X144747782Y-84970862D01*
X144747588Y-84961910D01*
X144753782Y-84955442D01*
X144753877Y-84955401D01*
X145015618Y-84846033D01*
X145024573Y-84846006D01*
X145024639Y-84846033D01*
G37*
%TD.AperFunction*%
%TD*%
%TA.AperFunction,Conductor*%
%TO.N,/BAT_2_CHRG*%
G36*
X135497175Y-96208400D02*
G01*
X135500585Y-96216054D01*
X135504883Y-96297360D01*
X135506571Y-96329298D01*
X135525800Y-96415802D01*
X135554289Y-96481961D01*
X135556962Y-96488169D01*
X135557048Y-96488335D01*
X135557054Y-96488348D01*
X135599198Y-96569828D01*
X135599439Y-96570322D01*
X135647111Y-96674186D01*
X135647448Y-96683135D01*
X135641359Y-96689700D01*
X135640989Y-96689863D01*
X135379511Y-96799115D01*
X135370556Y-96799142D01*
X135370489Y-96799115D01*
X135108574Y-96689681D01*
X135102262Y-96683329D01*
X135102264Y-96674433D01*
X135144534Y-96571727D01*
X135174380Y-96488879D01*
X135191093Y-96414742D01*
X135198393Y-96327409D01*
X135199848Y-96216517D01*
X135203383Y-96208292D01*
X135211547Y-96204973D01*
X135488902Y-96204973D01*
X135497175Y-96208400D01*
G37*
%TD.AperFunction*%
%TD*%
%TA.AperFunction,Conductor*%
%TO.N,/BAT_2_CHRG*%
G36*
X148814704Y-89633632D02*
G01*
X148814757Y-89633755D01*
X148856173Y-89732878D01*
X148924115Y-89895489D01*
X148924142Y-89904444D01*
X148924115Y-89904511D01*
X148814768Y-90166218D01*
X148808416Y-90172530D01*
X148799461Y-90172503D01*
X148799313Y-90172439D01*
X148694837Y-90127084D01*
X148611805Y-90091056D01*
X148611797Y-90091053D01*
X148611539Y-90090941D01*
X148611268Y-90090854D01*
X148611263Y-90090852D01*
X148537400Y-90067121D01*
X148449847Y-90054059D01*
X148449833Y-90054057D01*
X148449520Y-90054011D01*
X148449194Y-90054000D01*
X148449189Y-90054000D01*
X148336323Y-90050364D01*
X148328165Y-90046672D01*
X148325000Y-90038670D01*
X148325000Y-89761329D01*
X148328427Y-89753056D01*
X148336322Y-89749635D01*
X148449520Y-89745988D01*
X148537400Y-89732878D01*
X148611539Y-89709058D01*
X148694837Y-89672914D01*
X148799315Y-89627558D01*
X148808266Y-89627408D01*
X148814704Y-89633632D01*
G37*
%TD.AperFunction*%
%TD*%
%TA.AperFunction,Conductor*%
%TO.N,/BAT_4_CHRG*%
G36*
X175721944Y-96203427D02*
G01*
X175725364Y-96211322D01*
X175729011Y-96324520D01*
X175729057Y-96324833D01*
X175729059Y-96324847D01*
X175742121Y-96412399D01*
X175742121Y-96412400D01*
X175765941Y-96486539D01*
X175766053Y-96486797D01*
X175766056Y-96486805D01*
X175802084Y-96569837D01*
X175847439Y-96674313D01*
X175847590Y-96683266D01*
X175841366Y-96689704D01*
X175841218Y-96689768D01*
X175579511Y-96799115D01*
X175570556Y-96799142D01*
X175570489Y-96799115D01*
X175475279Y-96759334D01*
X175308779Y-96689767D01*
X175302468Y-96683416D01*
X175302494Y-96674462D01*
X175347914Y-96569837D01*
X175384058Y-96486539D01*
X175407878Y-96412400D01*
X175420988Y-96324520D01*
X175424635Y-96211322D01*
X175428327Y-96203165D01*
X175436329Y-96200000D01*
X175713671Y-96200000D01*
X175721944Y-96203427D01*
G37*
%TD.AperFunction*%
%TD*%
%TA.AperFunction,Conductor*%
%TO.N,/BAT_4_CHRG*%
G36*
X184600537Y-84577494D02*
G01*
X184705162Y-84622914D01*
X184788460Y-84659058D01*
X184862599Y-84682878D01*
X184950479Y-84695988D01*
X185063677Y-84699635D01*
X185071835Y-84703327D01*
X185075000Y-84711329D01*
X185075000Y-84988670D01*
X185071573Y-84996943D01*
X185063677Y-85000364D01*
X184950809Y-85004000D01*
X184950802Y-85004000D01*
X184950479Y-85004011D01*
X184950166Y-85004057D01*
X184950151Y-85004059D01*
X184862598Y-85017121D01*
X184788735Y-85040852D01*
X184788723Y-85040856D01*
X184788460Y-85040941D01*
X184788207Y-85041050D01*
X184788193Y-85041056D01*
X184705162Y-85077084D01*
X184600686Y-85122439D01*
X184591733Y-85122590D01*
X184585295Y-85116366D01*
X184585246Y-85116254D01*
X184475883Y-84854509D01*
X184475857Y-84845555D01*
X184585233Y-84583777D01*
X184591583Y-84577468D01*
X184600537Y-84577494D01*
G37*
%TD.AperFunction*%
%TD*%
%TA.AperFunction,Conductor*%
%TO.N,/BAT_3_CHRG*%
G36*
X155671944Y-96203427D02*
G01*
X155675364Y-96211322D01*
X155679011Y-96324520D01*
X155679057Y-96324833D01*
X155679059Y-96324847D01*
X155692121Y-96412400D01*
X155715941Y-96486539D01*
X155716053Y-96486797D01*
X155716056Y-96486805D01*
X155752084Y-96569837D01*
X155797439Y-96674313D01*
X155797590Y-96683266D01*
X155791366Y-96689704D01*
X155791218Y-96689768D01*
X155529510Y-96799115D01*
X155520555Y-96799142D01*
X155520502Y-96799120D01*
X155258779Y-96689767D01*
X155252468Y-96683416D01*
X155252494Y-96674462D01*
X155297914Y-96569837D01*
X155334058Y-96486539D01*
X155357878Y-96412400D01*
X155370988Y-96324520D01*
X155374635Y-96211322D01*
X155378327Y-96203165D01*
X155386329Y-96200000D01*
X155663671Y-96200000D01*
X155671944Y-96203427D01*
G37*
%TD.AperFunction*%
%TD*%
%TA.AperFunction,Conductor*%
%TO.N,/BAT_3_CHRG*%
G36*
X167389704Y-89083632D02*
G01*
X167389757Y-89083755D01*
X167431173Y-89182878D01*
X167499115Y-89345489D01*
X167499142Y-89354444D01*
X167499115Y-89354511D01*
X167389768Y-89616218D01*
X167383416Y-89622530D01*
X167374461Y-89622503D01*
X167374313Y-89622439D01*
X167269837Y-89577084D01*
X167186805Y-89541056D01*
X167186797Y-89541053D01*
X167186539Y-89540941D01*
X167186268Y-89540854D01*
X167186263Y-89540852D01*
X167112400Y-89517121D01*
X167024847Y-89504059D01*
X167024833Y-89504057D01*
X167024520Y-89504011D01*
X167024194Y-89504000D01*
X167024189Y-89504000D01*
X166911323Y-89500364D01*
X166903165Y-89496672D01*
X166900000Y-89488670D01*
X166900000Y-89211329D01*
X166903427Y-89203056D01*
X166911322Y-89199635D01*
X167024520Y-89195988D01*
X167112400Y-89182878D01*
X167186539Y-89159058D01*
X167269837Y-89122914D01*
X167374315Y-89077558D01*
X167383266Y-89077408D01*
X167389704Y-89083632D01*
G37*
%TD.AperFunction*%
%TD*%
%TA.AperFunction,Conductor*%
%TO.N,/BAT_3_CHRG*%
G36*
X167376704Y-82895632D02*
G01*
X167376757Y-82895755D01*
X167486115Y-83157488D01*
X167486142Y-83166443D01*
X167486115Y-83166510D01*
X167376768Y-83428218D01*
X167370416Y-83434530D01*
X167361461Y-83434503D01*
X167361313Y-83434439D01*
X167256837Y-83389084D01*
X167173805Y-83353056D01*
X167173797Y-83353053D01*
X167173539Y-83352941D01*
X167173268Y-83352854D01*
X167173263Y-83352852D01*
X167099400Y-83329121D01*
X167011847Y-83316059D01*
X167011833Y-83316057D01*
X167011520Y-83316011D01*
X167011194Y-83316000D01*
X167011189Y-83316000D01*
X166898323Y-83312364D01*
X166890165Y-83308672D01*
X166887000Y-83300670D01*
X166887000Y-83023329D01*
X166890427Y-83015056D01*
X166898322Y-83011635D01*
X167011520Y-83007988D01*
X167099400Y-82994878D01*
X167173539Y-82971058D01*
X167256837Y-82934914D01*
X167361315Y-82889558D01*
X167370266Y-82889408D01*
X167376704Y-82895632D01*
G37*
%TD.AperFunction*%
%TD*%
%TA.AperFunction,Conductor*%
%TO.N,/BAT_3_CHRG*%
G36*
X164650582Y-82902388D02*
G01*
X164754161Y-82946147D01*
X164837235Y-82979014D01*
X164911392Y-82999142D01*
X164991146Y-83008331D01*
X164998735Y-83009206D01*
X164998736Y-83009206D01*
X164998996Y-83009236D01*
X165110978Y-83011743D01*
X165119170Y-83015354D01*
X165122414Y-83023440D01*
X165122414Y-83300792D01*
X165118987Y-83309065D01*
X165111216Y-83312481D01*
X164998022Y-83317344D01*
X164910839Y-83333643D01*
X164837828Y-83361199D01*
X164837806Y-83361208D01*
X164837603Y-83361285D01*
X164837398Y-83361382D01*
X164837388Y-83361387D01*
X164755144Y-83400600D01*
X164754884Y-83400720D01*
X164650753Y-83447269D01*
X164641801Y-83447517D01*
X164635297Y-83441363D01*
X164635182Y-83441099D01*
X164590284Y-83333643D01*
X164525883Y-83179509D01*
X164525857Y-83170556D01*
X164525862Y-83170542D01*
X164635277Y-82908672D01*
X164641628Y-82902362D01*
X164650582Y-82902388D01*
G37*
%TD.AperFunction*%
%TD*%
%TA.AperFunction,Conductor*%
%TO.N,/SCL_TX*%
G36*
X129561263Y-74687736D02*
G01*
X129687263Y-74813736D01*
X129690690Y-74822009D01*
X129687825Y-74829680D01*
X129611680Y-74917378D01*
X129567876Y-74996478D01*
X129543966Y-75074352D01*
X129543957Y-75074382D01*
X129543934Y-75074459D01*
X129543910Y-75074552D01*
X129543906Y-75074567D01*
X129520363Y-75166504D01*
X129520070Y-75167473D01*
X129481244Y-75278171D01*
X129475272Y-75284844D01*
X129466331Y-75285340D01*
X129465759Y-75285122D01*
X129203815Y-75177563D01*
X129197463Y-75171251D01*
X129197436Y-75171184D01*
X129157675Y-75074352D01*
X129089877Y-74909238D01*
X129089904Y-74900285D01*
X129096256Y-74893973D01*
X129096797Y-74893766D01*
X129207537Y-74854922D01*
X129208488Y-74854635D01*
X129300539Y-74831064D01*
X129378517Y-74807122D01*
X129378517Y-74807121D01*
X129378520Y-74807121D01*
X129457619Y-74763317D01*
X129457618Y-74763317D01*
X129457623Y-74763315D01*
X129545320Y-74687173D01*
X129553813Y-74684338D01*
X129561263Y-74687736D01*
G37*
%TD.AperFunction*%
%TD*%
%TA.AperFunction,Conductor*%
%TO.N,/SCL_TX*%
G36*
X138097369Y-73503427D02*
G01*
X138100767Y-73510877D01*
X138108935Y-73626728D01*
X138133896Y-73713639D01*
X138172028Y-73785565D01*
X138172039Y-73785586D01*
X138172105Y-73785709D01*
X138172177Y-73785831D01*
X138172184Y-73785843D01*
X138220527Y-73867466D01*
X138221005Y-73868359D01*
X138271822Y-73974082D01*
X138272318Y-73983023D01*
X138266346Y-73989696D01*
X138265788Y-73989947D01*
X138004511Y-74099115D01*
X137995556Y-74099142D01*
X137995489Y-74099115D01*
X137734210Y-73989947D01*
X137727898Y-73983595D01*
X137727925Y-73974640D01*
X137728155Y-73974128D01*
X137778998Y-73868346D01*
X137779468Y-73867470D01*
X137827893Y-73785709D01*
X137866102Y-73713640D01*
X137891062Y-73626727D01*
X137899232Y-73510877D01*
X137903233Y-73502865D01*
X137910904Y-73500000D01*
X138089096Y-73500000D01*
X138097369Y-73503427D01*
G37*
%TD.AperFunction*%
%TD*%
%TA.AperFunction,Conductor*%
%TO.N,/SCL_TX*%
G36*
X169089696Y-78383652D02*
G01*
X169089947Y-78384210D01*
X169199115Y-78645488D01*
X169199142Y-78654443D01*
X169199115Y-78654510D01*
X169089947Y-78915788D01*
X169083595Y-78922100D01*
X169074640Y-78922073D01*
X169074082Y-78921822D01*
X168968359Y-78871005D01*
X168967466Y-78870527D01*
X168885843Y-78822184D01*
X168885831Y-78822177D01*
X168885709Y-78822105D01*
X168885586Y-78822039D01*
X168885565Y-78822028D01*
X168813639Y-78783896D01*
X168726728Y-78758935D01*
X168610877Y-78750766D01*
X168602865Y-78746766D01*
X168600000Y-78739095D01*
X168600000Y-78560903D01*
X168603427Y-78552630D01*
X168610874Y-78549233D01*
X168717851Y-78541688D01*
X168726728Y-78541062D01*
X168770183Y-78528582D01*
X168813640Y-78516102D01*
X168885709Y-78477893D01*
X168967477Y-78429463D01*
X168968346Y-78428998D01*
X169074085Y-78378175D01*
X169083024Y-78377680D01*
X169089696Y-78383652D01*
G37*
%TD.AperFunction*%
%TD*%
%TA.AperFunction,Conductor*%
%TO.N,/SCL_TX*%
G36*
X137889696Y-73833652D02*
G01*
X137889947Y-73834210D01*
X137999115Y-74095489D01*
X137999142Y-74104444D01*
X137999115Y-74104511D01*
X137889947Y-74365788D01*
X137883595Y-74372100D01*
X137874640Y-74372073D01*
X137874082Y-74371822D01*
X137768359Y-74321005D01*
X137767466Y-74320527D01*
X137685843Y-74272184D01*
X137685831Y-74272177D01*
X137685709Y-74272105D01*
X137685586Y-74272039D01*
X137685565Y-74272028D01*
X137613639Y-74233896D01*
X137526728Y-74208935D01*
X137410877Y-74200766D01*
X137402865Y-74196766D01*
X137400000Y-74189095D01*
X137400000Y-74010903D01*
X137403427Y-74002630D01*
X137410874Y-73999233D01*
X137517851Y-73991688D01*
X137526728Y-73991062D01*
X137570183Y-73978582D01*
X137613640Y-73966102D01*
X137685709Y-73927893D01*
X137767477Y-73879463D01*
X137768346Y-73878998D01*
X137874085Y-73828175D01*
X137883024Y-73827680D01*
X137889696Y-73833652D01*
G37*
%TD.AperFunction*%
%TD*%
%TA.AperFunction,Conductor*%
%TO.N,/SCL_TX*%
G36*
X148738157Y-71733771D02*
G01*
X148738829Y-71735124D01*
X148848588Y-71997817D01*
X148849492Y-72002367D01*
X148848541Y-72287473D01*
X148845087Y-72295735D01*
X148836802Y-72299134D01*
X148836005Y-72299104D01*
X148704387Y-72289670D01*
X148702446Y-72289366D01*
X148602420Y-72264923D01*
X148601426Y-72264633D01*
X148514973Y-72235200D01*
X148514735Y-72235141D01*
X148514722Y-72235138D01*
X148413486Y-72210399D01*
X148279255Y-72200778D01*
X148271248Y-72196769D01*
X148268391Y-72189108D01*
X148268391Y-72010104D01*
X148271818Y-72001831D01*
X148278384Y-71998530D01*
X148396751Y-71981123D01*
X148477109Y-71932283D01*
X148539649Y-71865344D01*
X148539981Y-71865004D01*
X148614187Y-71792471D01*
X148616488Y-71790723D01*
X148722171Y-71729510D01*
X148731045Y-71728329D01*
X148738157Y-71733771D01*
G37*
%TD.AperFunction*%
%TD*%
%TA.AperFunction,Conductor*%
%TO.N,/SCL_TX*%
G36*
X151049714Y-73939904D02*
G01*
X151056026Y-73946256D01*
X151056244Y-73946828D01*
X151095070Y-74057524D01*
X151095363Y-74058494D01*
X151118903Y-74150419D01*
X151118934Y-74150539D01*
X151118960Y-74150625D01*
X151118966Y-74150645D01*
X151142876Y-74228520D01*
X151186680Y-74307619D01*
X151186682Y-74307621D01*
X151186683Y-74307623D01*
X151261622Y-74393934D01*
X151262825Y-74395319D01*
X151265661Y-74403813D01*
X151262263Y-74411263D01*
X151136263Y-74537263D01*
X151127990Y-74540690D01*
X151120319Y-74537825D01*
X151119672Y-74537263D01*
X151032623Y-74461683D01*
X151032621Y-74461682D01*
X151032619Y-74461680D01*
X150953520Y-74417876D01*
X150875645Y-74393966D01*
X150875625Y-74393960D01*
X150875539Y-74393934D01*
X150875430Y-74393906D01*
X150875419Y-74393903D01*
X150783494Y-74370363D01*
X150782524Y-74370070D01*
X150671828Y-74331244D01*
X150665155Y-74325272D01*
X150664659Y-74316331D01*
X150664863Y-74315795D01*
X150772436Y-74053814D01*
X150778746Y-74047464D01*
X151040761Y-73939877D01*
X151049714Y-73939904D01*
G37*
%TD.AperFunction*%
%TD*%
%TA.AperFunction,Conductor*%
%TO.N,/SDA_RX*%
G36*
X134500359Y-70377926D02*
G01*
X134500915Y-70378176D01*
X134606654Y-70429000D01*
X134607517Y-70429462D01*
X134689290Y-70477893D01*
X134761359Y-70516102D01*
X134848270Y-70541062D01*
X134864660Y-70542217D01*
X134964124Y-70549232D01*
X134972135Y-70553232D01*
X134975000Y-70560903D01*
X134975000Y-70739095D01*
X134971573Y-70747368D01*
X134964123Y-70750766D01*
X134848270Y-70758935D01*
X134761359Y-70783896D01*
X134689433Y-70822028D01*
X134689394Y-70822049D01*
X134689290Y-70822105D01*
X134689185Y-70822166D01*
X134689155Y-70822184D01*
X134607531Y-70870527D01*
X134606638Y-70871005D01*
X134500917Y-70921822D01*
X134491976Y-70922318D01*
X134485303Y-70916346D01*
X134485052Y-70915788D01*
X134429945Y-70783897D01*
X134375883Y-70654509D01*
X134375857Y-70645555D01*
X134485052Y-70384210D01*
X134491404Y-70377899D01*
X134500359Y-70377926D01*
G37*
%TD.AperFunction*%
%TD*%
%TA.AperFunction,Conductor*%
%TO.N,/SDA_RX*%
G36*
X151749714Y-73264904D02*
G01*
X151756026Y-73271256D01*
X151756244Y-73271828D01*
X151795070Y-73382524D01*
X151795363Y-73383494D01*
X151818903Y-73475419D01*
X151818934Y-73475539D01*
X151818960Y-73475625D01*
X151818966Y-73475645D01*
X151842876Y-73553520D01*
X151886680Y-73632619D01*
X151886682Y-73632621D01*
X151886683Y-73632623D01*
X151961622Y-73718934D01*
X151962825Y-73720319D01*
X151965661Y-73728813D01*
X151962263Y-73736263D01*
X151836263Y-73862263D01*
X151827990Y-73865690D01*
X151820319Y-73862825D01*
X151819672Y-73862263D01*
X151732623Y-73786683D01*
X151732621Y-73786682D01*
X151732619Y-73786680D01*
X151653520Y-73742876D01*
X151575645Y-73718966D01*
X151575625Y-73718960D01*
X151575539Y-73718934D01*
X151575430Y-73718906D01*
X151575419Y-73718903D01*
X151483494Y-73695363D01*
X151482524Y-73695070D01*
X151371828Y-73656244D01*
X151365155Y-73650272D01*
X151364659Y-73641331D01*
X151364863Y-73640795D01*
X151472436Y-73378814D01*
X151478746Y-73372464D01*
X151740761Y-73264877D01*
X151749714Y-73264904D01*
G37*
%TD.AperFunction*%
%TD*%
%TA.AperFunction,Conductor*%
%TO.N,/SDA_RX*%
G36*
X169739701Y-77858641D02*
G01*
X169739863Y-77859010D01*
X169849115Y-78120489D01*
X169849142Y-78129444D01*
X169849115Y-78129511D01*
X169740043Y-78390560D01*
X169733691Y-78396872D01*
X169724736Y-78396845D01*
X169723970Y-78396491D01*
X169618520Y-78343200D01*
X169617210Y-78342428D01*
X169537208Y-78287933D01*
X169537095Y-78287858D01*
X169493850Y-78259748D01*
X169467237Y-78242448D01*
X169381849Y-78211454D01*
X169381848Y-78211453D01*
X169265621Y-78200961D01*
X169257689Y-78196804D01*
X169254973Y-78189308D01*
X169254973Y-78011098D01*
X169258400Y-78002825D01*
X169266054Y-77999414D01*
X169379296Y-77993428D01*
X169465802Y-77974198D01*
X169538169Y-77943037D01*
X169619873Y-77900777D01*
X169620261Y-77900587D01*
X169724190Y-77852886D01*
X169733135Y-77852551D01*
X169739701Y-77858641D01*
G37*
%TD.AperFunction*%
%TD*%
%TA.AperFunction,Conductor*%
%TO.N,/SDA_RX*%
G36*
X148484666Y-71015053D02*
G01*
X148746199Y-71122451D01*
X148752550Y-71128763D01*
X148752577Y-71128829D01*
X148859988Y-71390433D01*
X148859960Y-71399388D01*
X148853609Y-71405700D01*
X148852725Y-71406022D01*
X148762901Y-71434712D01*
X148761193Y-71435119D01*
X148682835Y-71447681D01*
X148614921Y-71458979D01*
X148546099Y-71487592D01*
X148472487Y-71545663D01*
X148463870Y-71548096D01*
X148456802Y-71544581D01*
X148332906Y-71415552D01*
X148329648Y-71407213D01*
X148332381Y-71399932D01*
X148391889Y-71329012D01*
X148420156Y-71260930D01*
X148430015Y-71192552D01*
X148440916Y-71113641D01*
X148441328Y-71111793D01*
X148469048Y-71022408D01*
X148474771Y-71015524D01*
X148483688Y-71014701D01*
X148484666Y-71015053D01*
G37*
%TD.AperFunction*%
%TD*%
%TA.AperFunction,Conductor*%
%TO.N,/BAT_1_STDBY*%
G36*
X124200359Y-85877926D02*
G01*
X124200915Y-85878176D01*
X124306654Y-85929000D01*
X124307517Y-85929462D01*
X124389290Y-85977893D01*
X124461359Y-86016102D01*
X124548270Y-86041062D01*
X124564660Y-86042217D01*
X124664124Y-86049232D01*
X124672135Y-86053232D01*
X124675000Y-86060903D01*
X124675000Y-86239095D01*
X124671573Y-86247368D01*
X124664123Y-86250766D01*
X124548270Y-86258935D01*
X124461359Y-86283896D01*
X124389433Y-86322028D01*
X124389394Y-86322049D01*
X124389290Y-86322105D01*
X124389185Y-86322166D01*
X124389155Y-86322184D01*
X124307531Y-86370527D01*
X124306638Y-86371005D01*
X124200917Y-86421822D01*
X124191976Y-86422318D01*
X124185303Y-86416346D01*
X124185052Y-86415788D01*
X124129945Y-86283897D01*
X124075883Y-86154509D01*
X124075857Y-86145556D01*
X124075862Y-86145542D01*
X124185052Y-85884210D01*
X124191404Y-85877899D01*
X124200359Y-85877926D01*
G37*
%TD.AperFunction*%
%TD*%
%TA.AperFunction,Conductor*%
%TO.N,/BAT_1_STDBY*%
G36*
X148159217Y-72639868D02*
G01*
X148357100Y-72721122D01*
X148421184Y-72747436D01*
X148427536Y-72753748D01*
X148427563Y-72753815D01*
X148535122Y-73015759D01*
X148535095Y-73024714D01*
X148528743Y-73031026D01*
X148528171Y-73031244D01*
X148417473Y-73070070D01*
X148416504Y-73070363D01*
X148324567Y-73093906D01*
X148324552Y-73093910D01*
X148324459Y-73093934D01*
X148324382Y-73093957D01*
X148324352Y-73093966D01*
X148246478Y-73117876D01*
X148167378Y-73161680D01*
X148079680Y-73237825D01*
X148071186Y-73240661D01*
X148063736Y-73237263D01*
X147937736Y-73111263D01*
X147934309Y-73102990D01*
X147937173Y-73095320D01*
X148013315Y-73007623D01*
X148024067Y-72988205D01*
X148057121Y-72928520D01*
X148081031Y-72850645D01*
X148081064Y-72850539D01*
X148104635Y-72758488D01*
X148104922Y-72757537D01*
X148143756Y-72646825D01*
X148149727Y-72640155D01*
X148158669Y-72639659D01*
X148159217Y-72639868D01*
G37*
%TD.AperFunction*%
%TD*%
%TA.AperFunction,Conductor*%
%TO.N,/BAT_2_STDBY*%
G36*
X150097369Y-81903427D02*
G01*
X150100767Y-81910877D01*
X150108935Y-82026728D01*
X150133896Y-82113639D01*
X150172028Y-82185565D01*
X150172039Y-82185586D01*
X150172105Y-82185709D01*
X150172177Y-82185831D01*
X150172184Y-82185843D01*
X150220527Y-82267466D01*
X150221005Y-82268359D01*
X150271822Y-82374082D01*
X150272318Y-82383023D01*
X150266346Y-82389696D01*
X150265788Y-82389947D01*
X150004510Y-82499115D01*
X149995555Y-82499142D01*
X149995502Y-82499120D01*
X149887793Y-82454117D01*
X149734210Y-82389947D01*
X149727898Y-82383595D01*
X149727925Y-82374640D01*
X149728155Y-82374128D01*
X149778998Y-82268346D01*
X149779468Y-82267470D01*
X149827893Y-82185709D01*
X149866102Y-82113640D01*
X149891062Y-82026727D01*
X149899232Y-81910877D01*
X149903233Y-81902865D01*
X149910904Y-81900000D01*
X150089096Y-81900000D01*
X150097369Y-81903427D01*
G37*
%TD.AperFunction*%
%TD*%
%TA.AperFunction,Conductor*%
%TO.N,/BAT_2_STDBY*%
G36*
X150227917Y-75294228D02*
G01*
X150265788Y-75310052D01*
X150272100Y-75316404D01*
X150272073Y-75325359D01*
X150271822Y-75325917D01*
X150221005Y-75431638D01*
X150220527Y-75432531D01*
X150172184Y-75514155D01*
X150172166Y-75514185D01*
X150172105Y-75514290D01*
X150172049Y-75514394D01*
X150172028Y-75514433D01*
X150133896Y-75586359D01*
X150108935Y-75673270D01*
X150100767Y-75789123D01*
X150096767Y-75797135D01*
X150089096Y-75800000D01*
X149910904Y-75800000D01*
X149902631Y-75796573D01*
X149899233Y-75789123D01*
X149891062Y-75673270D01*
X149866102Y-75586359D01*
X149827969Y-75514434D01*
X149827893Y-75514290D01*
X149779462Y-75432517D01*
X149779000Y-75431654D01*
X149728176Y-75325916D01*
X149727681Y-75316975D01*
X149733653Y-75310303D01*
X149734202Y-75310055D01*
X149995490Y-75200883D01*
X150004444Y-75200857D01*
X150227917Y-75294228D01*
G37*
%TD.AperFunction*%
%TD*%
%TA.AperFunction,Conductor*%
%TO.N,/BAT_1_V*%
G36*
X127686307Y-84668111D02*
G01*
X127686466Y-84668268D01*
X127883389Y-84865191D01*
X127886816Y-84873464D01*
X127884858Y-84879944D01*
X127835483Y-84954171D01*
X127835483Y-84954172D01*
X127836835Y-85026385D01*
X127869009Y-85100298D01*
X127869010Y-85100299D01*
X127906220Y-85186265D01*
X127907033Y-85189043D01*
X127922807Y-85286462D01*
X127920746Y-85295176D01*
X127913127Y-85299882D01*
X127911284Y-85300032D01*
X127626654Y-85300701D01*
X127622116Y-85299797D01*
X127358557Y-85189674D01*
X127352245Y-85183322D01*
X127352242Y-85174444D01*
X127406669Y-85041639D01*
X127406750Y-85041450D01*
X127451898Y-84940236D01*
X127452514Y-84939046D01*
X127500789Y-84857713D01*
X127501754Y-84856327D01*
X127570549Y-84771564D01*
X127571171Y-84770860D01*
X127669763Y-84668426D01*
X127677969Y-84664843D01*
X127686307Y-84668111D01*
G37*
%TD.AperFunction*%
%TD*%
%TA.AperFunction,Conductor*%
%TO.N,/BAT_1_V*%
G36*
X148814704Y-75033632D02*
G01*
X148814757Y-75033755D01*
X148924115Y-75295488D01*
X148924142Y-75304443D01*
X148924115Y-75304510D01*
X148814768Y-75566218D01*
X148808416Y-75572530D01*
X148799461Y-75572503D01*
X148799313Y-75572439D01*
X148694837Y-75527084D01*
X148611805Y-75491056D01*
X148611797Y-75491053D01*
X148611539Y-75490941D01*
X148611268Y-75490854D01*
X148611263Y-75490852D01*
X148537400Y-75467121D01*
X148449847Y-75454059D01*
X148449833Y-75454057D01*
X148449520Y-75454011D01*
X148449194Y-75454000D01*
X148449189Y-75454000D01*
X148336323Y-75450364D01*
X148328165Y-75446672D01*
X148325000Y-75438670D01*
X148325000Y-75161329D01*
X148328427Y-75153056D01*
X148336322Y-75149635D01*
X148449520Y-75145988D01*
X148537400Y-75132878D01*
X148611539Y-75109058D01*
X148694837Y-75072914D01*
X148799315Y-75027558D01*
X148808266Y-75027408D01*
X148814704Y-75033632D01*
G37*
%TD.AperFunction*%
%TD*%
%TA.AperFunction,Conductor*%
%TO.N,/BAT_2_V*%
G36*
X148198398Y-75864151D02*
G01*
X148407591Y-75950049D01*
X148460781Y-75971890D01*
X148467133Y-75978202D01*
X148467160Y-75978269D01*
X148574922Y-76240708D01*
X148574895Y-76249663D01*
X148568543Y-76255975D01*
X148568457Y-76256010D01*
X148463591Y-76298098D01*
X148380886Y-76332610D01*
X148380874Y-76332615D01*
X148380605Y-76332728D01*
X148380342Y-76332871D01*
X148380330Y-76332878D01*
X148312881Y-76369873D01*
X148243095Y-76423713D01*
X148243082Y-76423723D01*
X148242854Y-76423900D01*
X148242643Y-76424100D01*
X148242642Y-76424101D01*
X148161229Y-76501328D01*
X148152868Y-76504535D01*
X148144904Y-76501112D01*
X147948789Y-76304997D01*
X147945362Y-76296724D01*
X147948475Y-76288778D01*
X148025423Y-76205646D01*
X148076655Y-76133186D01*
X148110251Y-76062683D01*
X148141935Y-75977162D01*
X148183122Y-75870780D01*
X148189305Y-75864304D01*
X148198257Y-75864095D01*
X148198398Y-75864151D01*
G37*
%TD.AperFunction*%
%TD*%
%TA.AperFunction,Conductor*%
%TO.N,/BAT_2_V*%
G36*
X147290065Y-84752417D02*
G01*
X147372688Y-84829882D01*
X147372969Y-84830090D01*
X147444097Y-84882753D01*
X147479967Y-84901177D01*
X147513365Y-84918333D01*
X147597823Y-84951676D01*
X147703771Y-84993482D01*
X147710208Y-84999705D01*
X147710359Y-85008658D01*
X147710299Y-85008808D01*
X147602563Y-85271184D01*
X147596251Y-85277536D01*
X147596184Y-85277563D01*
X147333808Y-85385299D01*
X147324853Y-85385272D01*
X147318541Y-85378920D01*
X147318532Y-85378898D01*
X147276676Y-85272823D01*
X147243333Y-85188365D01*
X147226177Y-85154967D01*
X147207753Y-85119097D01*
X147155090Y-85047969D01*
X147154882Y-85047688D01*
X147077417Y-84965065D01*
X147074259Y-84956687D01*
X147077679Y-84948792D01*
X147273792Y-84752679D01*
X147282064Y-84749253D01*
X147290065Y-84752417D01*
G37*
%TD.AperFunction*%
%TD*%
%TA.AperFunction,Conductor*%
%TO.N,/BAT_3_V*%
G36*
X166799703Y-83673635D02*
G01*
X166799806Y-83673872D01*
X166909115Y-83935489D01*
X166909142Y-83944444D01*
X166909115Y-83944511D01*
X166799733Y-84206301D01*
X166793381Y-84212613D01*
X166784427Y-84212586D01*
X166680610Y-84168446D01*
X166680609Y-84168445D01*
X166597785Y-84134945D01*
X166597776Y-84134941D01*
X166597482Y-84134823D01*
X166597170Y-84134734D01*
X166597168Y-84134734D01*
X166523324Y-84113841D01*
X166435940Y-84103086D01*
X166435656Y-84103051D01*
X166435385Y-84103044D01*
X166435368Y-84103043D01*
X166323400Y-84100281D01*
X166315214Y-84096652D01*
X166311989Y-84088585D01*
X166311989Y-83811235D01*
X166315416Y-83802962D01*
X166323215Y-83799545D01*
X166436408Y-83794961D01*
X166523748Y-83779397D01*
X166523749Y-83779396D01*
X166523752Y-83779396D01*
X166596968Y-83752721D01*
X166597199Y-83752637D01*
X166679951Y-83714007D01*
X166784263Y-83667689D01*
X166793214Y-83667464D01*
X166799703Y-83673635D01*
G37*
%TD.AperFunction*%
%TD*%
%TA.AperFunction,Conductor*%
%TO.N,/BAT_3_V*%
G36*
X149566218Y-76733469D02*
G01*
X149572530Y-76739821D01*
X149572503Y-76748776D01*
X149572439Y-76748924D01*
X149527084Y-76853400D01*
X149491056Y-76936431D01*
X149491050Y-76936445D01*
X149490941Y-76936698D01*
X149490856Y-76936961D01*
X149490852Y-76936973D01*
X149467121Y-77010836D01*
X149454059Y-77098389D01*
X149454057Y-77098404D01*
X149454011Y-77098717D01*
X149454000Y-77099040D01*
X149454000Y-77099047D01*
X149450365Y-77211915D01*
X149446674Y-77220073D01*
X149438671Y-77223238D01*
X149161329Y-77223238D01*
X149153056Y-77219811D01*
X149149635Y-77211915D01*
X149145988Y-77098717D01*
X149132878Y-77010837D01*
X149109058Y-76936698D01*
X149072914Y-76853400D01*
X149027560Y-76748924D01*
X149027409Y-76739971D01*
X149033633Y-76733533D01*
X149033716Y-76733497D01*
X149295490Y-76624121D01*
X149304444Y-76624095D01*
X149566218Y-76733469D01*
G37*
%TD.AperFunction*%
%TD*%
%TA.AperFunction,Conductor*%
%TO.N,/BAT_4_V*%
G36*
X186589704Y-85383632D02*
G01*
X186589757Y-85383755D01*
X186631173Y-85482878D01*
X186699115Y-85645489D01*
X186699142Y-85654444D01*
X186699115Y-85654511D01*
X186589768Y-85916218D01*
X186583416Y-85922530D01*
X186574461Y-85922503D01*
X186574313Y-85922439D01*
X186469837Y-85877084D01*
X186386805Y-85841056D01*
X186386797Y-85841053D01*
X186386539Y-85840941D01*
X186386268Y-85840854D01*
X186386263Y-85840852D01*
X186312400Y-85817121D01*
X186224847Y-85804059D01*
X186224833Y-85804057D01*
X186224520Y-85804011D01*
X186224194Y-85804000D01*
X186224189Y-85804000D01*
X186111323Y-85800364D01*
X186103165Y-85796672D01*
X186100000Y-85788670D01*
X186100000Y-85511329D01*
X186103427Y-85503056D01*
X186111322Y-85499635D01*
X186224520Y-85495988D01*
X186312400Y-85482878D01*
X186386539Y-85459058D01*
X186469837Y-85422914D01*
X186574315Y-85377558D01*
X186583266Y-85377408D01*
X186589704Y-85383632D01*
G37*
%TD.AperFunction*%
%TD*%
%TA.AperFunction,Conductor*%
%TO.N,/BAT_4_V*%
G36*
X148716218Y-77385231D02*
G01*
X148722530Y-77391583D01*
X148722503Y-77400538D01*
X148722439Y-77400686D01*
X148677084Y-77505162D01*
X148641056Y-77588193D01*
X148641050Y-77588207D01*
X148640941Y-77588460D01*
X148640856Y-77588723D01*
X148640852Y-77588735D01*
X148617121Y-77662598D01*
X148604059Y-77750151D01*
X148604057Y-77750166D01*
X148604011Y-77750479D01*
X148604000Y-77750802D01*
X148604000Y-77750809D01*
X148600365Y-77863677D01*
X148596674Y-77871835D01*
X148588671Y-77875000D01*
X148311329Y-77875000D01*
X148303056Y-77871573D01*
X148299635Y-77863677D01*
X148295988Y-77750479D01*
X148282878Y-77662599D01*
X148259058Y-77588460D01*
X148222914Y-77505162D01*
X148177560Y-77400686D01*
X148177409Y-77391733D01*
X148183633Y-77385295D01*
X148183716Y-77385259D01*
X148445490Y-77275883D01*
X148454444Y-77275857D01*
X148716218Y-77385231D01*
G37*
%TD.AperFunction*%
%TD*%
%TA.AperFunction,Conductor*%
%TO.N,/BAT_4_CE*%
G36*
X182339704Y-82283632D02*
G01*
X182339757Y-82283755D01*
X182381173Y-82382878D01*
X182449115Y-82545489D01*
X182449142Y-82554444D01*
X182449115Y-82554511D01*
X182339768Y-82816218D01*
X182333416Y-82822530D01*
X182324461Y-82822503D01*
X182324313Y-82822439D01*
X182219837Y-82777084D01*
X182136805Y-82741056D01*
X182136797Y-82741053D01*
X182136539Y-82740941D01*
X182136268Y-82740854D01*
X182136263Y-82740852D01*
X182062400Y-82717121D01*
X181974847Y-82704059D01*
X181974833Y-82704057D01*
X181974520Y-82704011D01*
X181974194Y-82704000D01*
X181974189Y-82704000D01*
X181861323Y-82700364D01*
X181853165Y-82696672D01*
X181850000Y-82688670D01*
X181850000Y-82411329D01*
X181853427Y-82403056D01*
X181861322Y-82399635D01*
X181974520Y-82395988D01*
X182062400Y-82382878D01*
X182136539Y-82359058D01*
X182219837Y-82322914D01*
X182324315Y-82277558D01*
X182333266Y-82277408D01*
X182339704Y-82283632D01*
G37*
%TD.AperFunction*%
%TD*%
%TA.AperFunction,Conductor*%
%TO.N,/BAT_4_CE*%
G36*
X154199031Y-76327513D02*
G01*
X154199196Y-76327584D01*
X154303638Y-76373116D01*
X154386835Y-76409723D01*
X154460848Y-76434092D01*
X154548629Y-76447659D01*
X154661824Y-76451481D01*
X154669977Y-76455185D01*
X154673129Y-76463174D01*
X154673129Y-76740518D01*
X154669702Y-76748791D01*
X154661789Y-76752212D01*
X154549105Y-76755684D01*
X154549093Y-76755684D01*
X154548769Y-76755695D01*
X154548448Y-76755741D01*
X154548440Y-76755742D01*
X154460926Y-76768373D01*
X154387058Y-76791578D01*
X154387046Y-76791582D01*
X154386783Y-76791665D01*
X154386535Y-76791770D01*
X154386522Y-76791776D01*
X154303516Y-76827339D01*
X154199178Y-76872461D01*
X154190224Y-76872599D01*
X154183795Y-76866366D01*
X154183738Y-76866233D01*
X154137572Y-76755742D01*
X154074383Y-76604509D01*
X154074357Y-76595556D01*
X154074362Y-76595542D01*
X154183725Y-76333796D01*
X154190076Y-76327486D01*
X154199031Y-76327513D01*
G37*
%TD.AperFunction*%
%TD*%
%TA.AperFunction,Conductor*%
%TO.N,/BAT_1_PROG*%
G36*
X126739704Y-82133632D02*
G01*
X126739757Y-82133755D01*
X126781173Y-82232878D01*
X126849115Y-82395489D01*
X126849142Y-82404444D01*
X126849115Y-82404511D01*
X126739768Y-82666218D01*
X126733416Y-82672530D01*
X126724461Y-82672503D01*
X126724313Y-82672439D01*
X126619837Y-82627084D01*
X126536805Y-82591056D01*
X126536797Y-82591053D01*
X126536539Y-82590941D01*
X126536268Y-82590854D01*
X126536263Y-82590852D01*
X126462400Y-82567121D01*
X126374847Y-82554059D01*
X126374833Y-82554057D01*
X126374520Y-82554011D01*
X126374194Y-82554000D01*
X126374189Y-82554000D01*
X126261323Y-82550364D01*
X126253165Y-82546672D01*
X126250000Y-82538670D01*
X126250000Y-82261329D01*
X126253427Y-82253056D01*
X126261322Y-82249635D01*
X126374520Y-82245988D01*
X126462400Y-82232878D01*
X126536539Y-82209058D01*
X126619837Y-82172914D01*
X126724315Y-82127558D01*
X126733266Y-82127408D01*
X126739704Y-82133632D01*
G37*
%TD.AperFunction*%
%TD*%
%TA.AperFunction,Conductor*%
%TO.N,/BAT_1_PROG*%
G36*
X116025537Y-84602494D02*
G01*
X116130162Y-84647914D01*
X116213460Y-84684058D01*
X116287599Y-84707878D01*
X116375479Y-84720988D01*
X116488677Y-84724635D01*
X116496835Y-84728327D01*
X116500000Y-84736329D01*
X116500000Y-85013670D01*
X116496573Y-85021943D01*
X116488677Y-85025364D01*
X116375809Y-85029000D01*
X116375802Y-85029000D01*
X116375479Y-85029011D01*
X116375166Y-85029057D01*
X116375151Y-85029059D01*
X116287598Y-85042121D01*
X116213735Y-85065852D01*
X116213723Y-85065856D01*
X116213460Y-85065941D01*
X116213207Y-85066050D01*
X116213193Y-85066056D01*
X116130162Y-85102084D01*
X116025686Y-85147439D01*
X116016733Y-85147590D01*
X116010295Y-85141366D01*
X116010246Y-85141254D01*
X115900883Y-84879509D01*
X115900857Y-84870556D01*
X115900862Y-84870542D01*
X116010233Y-84608777D01*
X116016583Y-84602468D01*
X116025537Y-84602494D01*
G37*
%TD.AperFunction*%
%TD*%
%TA.AperFunction,Conductor*%
%TO.N,/BAT_3_PROG*%
G36*
X156125537Y-84552494D02*
G01*
X156230162Y-84597914D01*
X156313460Y-84634058D01*
X156387599Y-84657878D01*
X156475479Y-84670988D01*
X156588677Y-84674635D01*
X156596835Y-84678327D01*
X156600000Y-84686329D01*
X156600000Y-84963670D01*
X156596573Y-84971943D01*
X156588677Y-84975364D01*
X156475809Y-84979000D01*
X156475802Y-84979000D01*
X156475479Y-84979011D01*
X156475166Y-84979057D01*
X156475151Y-84979059D01*
X156387598Y-84992121D01*
X156313735Y-85015852D01*
X156313723Y-85015856D01*
X156313460Y-85015941D01*
X156313207Y-85016050D01*
X156313193Y-85016056D01*
X156230162Y-85052084D01*
X156125686Y-85097439D01*
X156116733Y-85097590D01*
X156110295Y-85091366D01*
X156110246Y-85091254D01*
X156000883Y-84829509D01*
X156000857Y-84820555D01*
X156110233Y-84558777D01*
X156116583Y-84552468D01*
X156125537Y-84552494D01*
G37*
%TD.AperFunction*%
%TD*%
%TA.AperFunction,Conductor*%
%TO.N,/BAT_3_PROG*%
G36*
X168858387Y-84577286D02*
G01*
X168864681Y-84583574D01*
X168974115Y-84845489D01*
X168974142Y-84854444D01*
X168974115Y-84854511D01*
X168864863Y-85115989D01*
X168858511Y-85122301D01*
X168849556Y-85122274D01*
X168849186Y-85122111D01*
X168745322Y-85074439D01*
X168744828Y-85074198D01*
X168663348Y-85032054D01*
X168663335Y-85032048D01*
X168663169Y-85031962D01*
X168656961Y-85029289D01*
X168590802Y-85000800D01*
X168504298Y-84981571D01*
X168391055Y-84975585D01*
X168382975Y-84971726D01*
X168379973Y-84963901D01*
X168379973Y-84686547D01*
X168383400Y-84678274D01*
X168391517Y-84674848D01*
X168502409Y-84673393D01*
X168589742Y-84666093D01*
X168663879Y-84649380D01*
X168746727Y-84619534D01*
X168849433Y-84577265D01*
X168858387Y-84577286D01*
G37*
%TD.AperFunction*%
%TD*%
%TA.AperFunction,Conductor*%
%TO.N,Net-(C8-Pad1)*%
G36*
X105710547Y-80839271D02*
G01*
X106416414Y-81310268D01*
X106421394Y-81317710D01*
X106419652Y-81326494D01*
X106416414Y-81329732D01*
X105710547Y-81800728D01*
X105701763Y-81802470D01*
X105697611Y-81800763D01*
X105534509Y-81693185D01*
X105534504Y-81693182D01*
X105534272Y-81693029D01*
X105364454Y-81603522D01*
X105364157Y-81603405D01*
X105364151Y-81603402D01*
X105249248Y-81558063D01*
X105194636Y-81536514D01*
X105194293Y-81536424D01*
X105025179Y-81492101D01*
X105025169Y-81492099D01*
X105024818Y-81492007D01*
X105024458Y-81491960D01*
X105024446Y-81491958D01*
X104865196Y-81471321D01*
X104857432Y-81466859D01*
X104855000Y-81459718D01*
X104855000Y-81180281D01*
X104858427Y-81172008D01*
X104865194Y-81168678D01*
X105024818Y-81147992D01*
X105194636Y-81103485D01*
X105364454Y-81036477D01*
X105534272Y-80946970D01*
X105697613Y-80839235D01*
X105706404Y-80837542D01*
X105710547Y-80839271D01*
G37*
%TD.AperFunction*%
%TD*%
%TA.AperFunction,Conductor*%
%TO.N,Net-(C8-Pad1)*%
G36*
X102878585Y-80908160D02*
G01*
X102878986Y-80908405D01*
X103017522Y-80993254D01*
X103017528Y-80993257D01*
X103017766Y-80993403D01*
X103163324Y-81064552D01*
X103308883Y-81117701D01*
X103454441Y-81152850D01*
X103589670Y-81168782D01*
X103597484Y-81173154D01*
X103600000Y-81180402D01*
X103600000Y-81459597D01*
X103596573Y-81467870D01*
X103589669Y-81471217D01*
X103454782Y-81487108D01*
X103454768Y-81487110D01*
X103454441Y-81487149D01*
X103454115Y-81487227D01*
X103454102Y-81487230D01*
X103309198Y-81522221D01*
X103309182Y-81522225D01*
X103308883Y-81522298D01*
X103308583Y-81522407D01*
X103308578Y-81522409D01*
X103163615Y-81575340D01*
X103163602Y-81575345D01*
X103163324Y-81575447D01*
X103163048Y-81575581D01*
X103163043Y-81575584D01*
X103018023Y-81646470D01*
X103018016Y-81646473D01*
X103017766Y-81646596D01*
X103017544Y-81646731D01*
X103017522Y-81646744D01*
X102878588Y-81731838D01*
X102869743Y-81733237D01*
X102865984Y-81731594D01*
X102631918Y-81575447D01*
X102263588Y-81329731D01*
X102258609Y-81322291D01*
X102260349Y-81313507D01*
X102263587Y-81310268D01*
X102865986Y-80908404D01*
X102874768Y-80906665D01*
X102878585Y-80908160D01*
G37*
%TD.AperFunction*%
%TD*%
%TA.AperFunction,Conductor*%
%TO.N,Net-(C8-Pad1)*%
G36*
X102258263Y-72687282D02*
G01*
X102258281Y-72687300D01*
X102692461Y-73122444D01*
X102695879Y-73130721D01*
X102693167Y-73138198D01*
X102650197Y-73189762D01*
X102650185Y-73189777D01*
X102650000Y-73190000D01*
X102649836Y-73190245D01*
X102649830Y-73190254D01*
X102600134Y-73264797D01*
X102600126Y-73264808D01*
X102600000Y-73264999D01*
X102599888Y-73265198D01*
X102599884Y-73265207D01*
X102550090Y-73354835D01*
X102550081Y-73354851D01*
X102549999Y-73355000D01*
X102549928Y-73355148D01*
X102549911Y-73355182D01*
X102500071Y-73459847D01*
X102500057Y-73459877D01*
X102499999Y-73460000D01*
X102499952Y-73460111D01*
X102499938Y-73460144D01*
X102453000Y-73572800D01*
X102446655Y-73579119D01*
X102442200Y-73580000D01*
X102057800Y-73580000D01*
X102049527Y-73576573D01*
X102047000Y-73572800D01*
X102000060Y-73460144D01*
X102000000Y-73460000D01*
X101950000Y-73354999D01*
X101899999Y-73265000D01*
X101849999Y-73190000D01*
X101806832Y-73138198D01*
X101804168Y-73129649D01*
X101807536Y-73122446D01*
X102241719Y-72687299D01*
X102249986Y-72683864D01*
X102258263Y-72687282D01*
G37*
%TD.AperFunction*%
%TD*%
%TA.AperFunction,Conductor*%
%TO.N,Net-(C8-Pad1)*%
G36*
X102450473Y-80423427D02*
G01*
X102453000Y-80427200D01*
X102499938Y-80539855D01*
X102499946Y-80539873D01*
X102499999Y-80540000D01*
X102500064Y-80540138D01*
X102500071Y-80540152D01*
X102549911Y-80644817D01*
X102549922Y-80644838D01*
X102549999Y-80645000D01*
X102600000Y-80735000D01*
X102650000Y-80810000D01*
X102650192Y-80810231D01*
X102650197Y-80810237D01*
X102693167Y-80861801D01*
X102695831Y-80870350D01*
X102692461Y-80877555D01*
X102258282Y-81312699D01*
X102250013Y-81316135D01*
X102241736Y-81312717D01*
X102241718Y-81312699D01*
X101807538Y-80877555D01*
X101804120Y-80869278D01*
X101806832Y-80861801D01*
X101849999Y-80810000D01*
X101899999Y-80735000D01*
X101950000Y-80645000D01*
X102000000Y-80540000D01*
X102047000Y-80427200D01*
X102053345Y-80420881D01*
X102057800Y-80420000D01*
X102442200Y-80420000D01*
X102450473Y-80423427D01*
G37*
%TD.AperFunction*%
%TD*%
%TA.AperFunction,Conductor*%
%TO.N,Net-(C8-Pad1)*%
G36*
X105710073Y-72198955D02*
G01*
X105962767Y-72367567D01*
X106416414Y-72670268D01*
X106421394Y-72677710D01*
X106419652Y-72686494D01*
X106416414Y-72689732D01*
X105710078Y-73161042D01*
X105701294Y-73162784D01*
X105697826Y-73161495D01*
X105534500Y-73069158D01*
X105534501Y-73069158D01*
X105534272Y-73069029D01*
X105534038Y-73068923D01*
X105534029Y-73068919D01*
X105364716Y-72992640D01*
X105364715Y-72992639D01*
X105364454Y-72992522D01*
X105364197Y-72992435D01*
X105364185Y-72992431D01*
X105246359Y-72952877D01*
X105194636Y-72935514D01*
X105024818Y-72898007D01*
X105024505Y-72897973D01*
X105024494Y-72897972D01*
X104865466Y-72881109D01*
X104857601Y-72876829D01*
X104855000Y-72869474D01*
X104855000Y-72490525D01*
X104858427Y-72482252D01*
X104865465Y-72478890D01*
X105024818Y-72461992D01*
X105194636Y-72424485D01*
X105364454Y-72367477D01*
X105534272Y-72290970D01*
X105697828Y-72198503D01*
X105706714Y-72197416D01*
X105710073Y-72198955D01*
G37*
%TD.AperFunction*%
%TD*%
%TA.AperFunction,Conductor*%
%TO.N,Net-(C8-Pad1)*%
G36*
X102878291Y-72267311D02*
G01*
X103017766Y-72337403D01*
X103163324Y-72395552D01*
X103308883Y-72438701D01*
X103454441Y-72466850D01*
X103589352Y-72479038D01*
X103597283Y-72483196D01*
X103599999Y-72490691D01*
X103599999Y-72869308D01*
X103596572Y-72877581D01*
X103589352Y-72880961D01*
X103454736Y-72893122D01*
X103454729Y-72893122D01*
X103454441Y-72893149D01*
X103454157Y-72893203D01*
X103454142Y-72893206D01*
X103309156Y-72921245D01*
X103309151Y-72921245D01*
X103308883Y-72921298D01*
X103308628Y-72921373D01*
X103308622Y-72921375D01*
X103163580Y-72964371D01*
X103163324Y-72964447D01*
X103163085Y-72964542D01*
X103163069Y-72964548D01*
X103018004Y-73022500D01*
X103017985Y-73022508D01*
X103017766Y-73022596D01*
X103017559Y-73022699D01*
X103017539Y-73022709D01*
X102878291Y-73092688D01*
X102869360Y-73093341D01*
X102866544Y-73091967D01*
X102532775Y-72869308D01*
X102263588Y-72689731D01*
X102258609Y-72682291D01*
X102260349Y-72673507D01*
X102263587Y-72670268D01*
X102866545Y-72268031D01*
X102875328Y-72266292D01*
X102878291Y-72267311D01*
G37*
%TD.AperFunction*%
%TD*%
%TA.AperFunction,Conductor*%
%TO.N,+3.3V*%
G36*
X157274250Y-69816290D02*
G01*
X157274629Y-69816691D01*
X157332723Y-69881182D01*
X157333616Y-69882306D01*
X157373841Y-69939797D01*
X157374257Y-69940435D01*
X157406268Y-69993246D01*
X157406384Y-69993412D01*
X157406392Y-69993424D01*
X157446805Y-70051183D01*
X157447122Y-70051636D01*
X157482172Y-70090546D01*
X157506475Y-70117524D01*
X157509466Y-70125965D01*
X157506055Y-70133628D01*
X157309628Y-70330055D01*
X157301355Y-70333482D01*
X157293524Y-70330475D01*
X157227636Y-70271122D01*
X157227183Y-70270805D01*
X157169424Y-70230392D01*
X157169412Y-70230384D01*
X157169246Y-70230268D01*
X157116435Y-70198257D01*
X157115797Y-70197841D01*
X157058306Y-70157616D01*
X157057182Y-70156723D01*
X156992691Y-70098629D01*
X156988838Y-70090546D01*
X156991829Y-70082105D01*
X156992181Y-70081732D01*
X157124293Y-69948293D01*
X157257706Y-69816207D01*
X157265994Y-69812822D01*
X157274250Y-69816290D01*
G37*
%TD.AperFunction*%
%TD*%
%TA.AperFunction,Conductor*%
%TO.N,+3.3V*%
G36*
X157274250Y-69816290D02*
G01*
X157274629Y-69816691D01*
X157332723Y-69881182D01*
X157333616Y-69882306D01*
X157373841Y-69939797D01*
X157374257Y-69940435D01*
X157406268Y-69993246D01*
X157406384Y-69993412D01*
X157406392Y-69993424D01*
X157446805Y-70051183D01*
X157447122Y-70051636D01*
X157482172Y-70090546D01*
X157506475Y-70117524D01*
X157509466Y-70125965D01*
X157506055Y-70133628D01*
X157309628Y-70330055D01*
X157301355Y-70333482D01*
X157293524Y-70330475D01*
X157227636Y-70271122D01*
X157227183Y-70270805D01*
X157169424Y-70230392D01*
X157169412Y-70230384D01*
X157169246Y-70230268D01*
X157116435Y-70198257D01*
X157115797Y-70197841D01*
X157058306Y-70157616D01*
X157057182Y-70156723D01*
X156992691Y-70098629D01*
X156988838Y-70090546D01*
X156991829Y-70082105D01*
X156992181Y-70081732D01*
X157124293Y-69948293D01*
X157257706Y-69816207D01*
X157265994Y-69812822D01*
X157274250Y-69816290D01*
G37*
%TD.AperFunction*%
%TD*%
%TA.AperFunction,Conductor*%
%TO.N,Net-(C8-Pad1)*%
G36*
X102262241Y-81120638D02*
G01*
X102348929Y-81125162D01*
X102350347Y-81125323D01*
X102412358Y-81136280D01*
X102419456Y-81137535D01*
X102420209Y-81137694D01*
X102480175Y-81152400D01*
X102540409Y-81163043D01*
X102550005Y-81164739D01*
X102550007Y-81164739D01*
X102550351Y-81164800D01*
X102638910Y-81169421D01*
X102646993Y-81173274D01*
X102650000Y-81181105D01*
X102650000Y-81458894D01*
X102646573Y-81467167D01*
X102638910Y-81470578D01*
X102550705Y-81475181D01*
X102550696Y-81475181D01*
X102550351Y-81475200D01*
X102550022Y-81475257D01*
X102550005Y-81475260D01*
X102480344Y-81487570D01*
X102480339Y-81487570D01*
X102480175Y-81487600D01*
X102480027Y-81487636D01*
X102479990Y-81487644D01*
X102420206Y-81502305D01*
X102419456Y-81502464D01*
X102350351Y-81514675D01*
X102348925Y-81514837D01*
X102262248Y-81519360D01*
X102253807Y-81516369D01*
X102249954Y-81508286D01*
X102249938Y-81507761D01*
X102249000Y-81320000D01*
X102249938Y-81132263D01*
X102253406Y-81124009D01*
X102261696Y-81120623D01*
X102262241Y-81120638D01*
G37*
%TD.AperFunction*%
%TD*%
M02*
