M48
INCH
T1C0.0118
T2C0.0236
T3C0.0315
%
G90
G05
T1
X4.0354Y-3.4449
X4.0354Y-3.6417
X4.2323Y-2.6575
X4.2323Y-3.248
X4.2323Y-3.4449
X4.2323Y-3.6417
X4.2323Y-3.8386
X4.3307Y-3.1791
X4.4291Y-2.6575
X4.4291Y-2.8543
X4.4291Y-3.248
X4.4291Y-3.6417
X4.4291Y-3.8386
X4.5453Y-3.81
X4.563Y-3.3415
X4.626Y-2.6575
X4.626Y-2.8543
X4.626Y-3.0512
X4.626Y-3.248
X4.626Y-3.8386
X4.627Y-3.4705
X4.8228Y-2.6575
X4.8228Y-2.8543
X4.8228Y-3.8386
X4.8376Y-3.063
X4.8848Y-3.3917
X4.9193Y-3.3671
X4.9469Y-3.06
X4.9941Y-3.2441
X5.0197Y-2.6575
X5.0197Y-2.8543
X5.0197Y-3.6417
X5.0197Y-3.8386
X5.0246Y-3.3583
X5.0709Y-3.5187
X5.0866Y-2.9596
X5.1319Y-2.7539
X5.2165Y-2.6575
X5.2165Y-3.6417
X5.2165Y-3.8386
X5.2835Y-2.8425
X5.2835Y-2.9656
X5.2904Y-2.7815
X5.3297Y-3.811
X5.4134Y-2.6575
X5.4134Y-3.0512
X5.4134Y-3.248
X5.4134Y-3.8386
X5.4154Y-3.4695
X5.4331Y-2.9173
X5.4823Y-2.9124
X5.6102Y-2.6575
X5.6102Y-3.0512
X5.6102Y-3.248
X5.6102Y-3.8386
X5.6683Y-2.7869
X5.7095Y-3.3404
X5.7451Y-2.9144
X5.8071Y-2.6575
X5.8071Y-3.6417
X5.8071Y-3.8386
X5.811Y-3.3573
X5.814Y-3.2372
X5.8159Y-3.3228
X5.8415Y-2.94
X5.8435Y-2.8642
X5.8445Y-3.0423
X5.8451Y-2.9911
X5.8563Y-2.8002
X5.8602Y-2.8346
X5.8632Y-2.9646
X5.8632Y-3.4163
X5.8632Y-3.5394
X5.878Y-3.0167
X5.9055Y-2.9606
X5.9055Y-3.248
X5.936Y-2.9154
X5.9518Y-3.003
X5.9636Y-2.8888
X6.0039Y-2.6575
X6.0039Y-3.248
X6.0039Y-3.6417
X6.0039Y-3.8386
X6.0659Y-3.0157
X6.0659Y-2.94
X6.123Y-3.811
X6.1417Y-3.3396
X6.2008Y-2.6575
X6.2008Y-3.248
X6.2008Y-3.8386
X6.2018Y-3.4675
X6.2028Y-2.8661
X6.251Y-2.997
X6.3642Y-3.1683
X6.3976Y-2.6575
X6.3976Y-2.8543
X6.3976Y-3.0512
X6.3976Y-3.8386
X6.4774Y-3.2746
X6.5713Y-3.3047
X6.594Y-3.2741
X6.5945Y-2.6575
X6.5945Y-2.8543
X6.5945Y-3.5177
X6.5945Y-3.6417
X6.5945Y-3.8386
X6.6358Y-2.9528
X6.6526Y-3.3406
X6.6614Y-3.0965
X6.687Y-3.0758
X6.7913Y-2.6575
X6.7913Y-2.8543
X6.7913Y-3.6417
X6.7913Y-3.8386
X6.9124Y-3.811
X6.9882Y-2.6575
X6.9882Y-2.8543
X6.9882Y-3.0512
X6.9882Y-3.8386
X6.9892Y-3.4695
X7.1831Y-3.25
X7.185Y-2.6575
X7.185Y-2.8543
X7.185Y-3.0512
X7.185Y-3.8386
X7.2628Y-3.3406
X7.3504Y-3.372
X7.3819Y-2.8543
X7.3819Y-3.0512
X7.3819Y-3.248
X7.3819Y-3.6417
T3
X4.685Y-3.7598
X4.7638Y-3.7598
X5.4724Y-3.7598
X5.5512Y-3.7598
X6.2598Y-3.7598
X6.3386Y-3.7598
X7.0472Y-3.7598
X7.126Y-3.7598
T2
G00X4.0413Y-2.8614
M15
G01X4.0098Y-2.8614
M16
G05
G00X4.0413Y-3.2016
M15
G01X4.0098Y-3.2016
M16
G05
G00X4.2118Y-2.8614
M15
G01X4.1685Y-2.8614
M16
G05
G00X4.2118Y-3.2016
M15
G01X4.1685Y-3.2016
M16
G05
T0
M30
